<svg xmlns="http://www.w3.org/2000/svg" height="24" fill="rgb(156 163 175)" viewBox="0 96 960 960" width="24"><path d="M180.043 561q-33.582 0-56.812-23.187Q100 514.625 100 481.043q0-33.582 23.187-56.812Q146.375 401 179.957 401q33.582 0 56.812 23.187Q260 447.375 260 480.957q0 33.582-23.187 56.812Q213.625 561 180.043 561Zm180-160q-33.582 0-56.812-23.187Q280 354.625 280 321.043q0-33.582 23.187-56.812Q326.375 241 359.957 241q33.582 0 56.812 23.187Q440 287.375 440 320.957q0 33.582-23.187 56.812Q393.625 401 360.043 401Zm240 0q-33.582 0-56.812-23.187Q520 354.625 520 321.043q0-33.582 23.187-56.812Q566.375 241 599.957 241q33.582 0 56.812 23.187Q680 287.375 680 320.957q0 33.582-23.187 56.812Q633.625 401 600.043 401Zm180 160q-33.582 0-56.812-23.187Q700 514.625 700 481.043q0-33.582 23.187-56.812Q746.375 401 779.957 401q33.582 0 56.812 23.187Q860 447.375 860 480.957q0 33.582-23.187 56.812Q813.625 561 780.043 561ZM266 961q-37.308 0-61.654-28.552Q180 903.897 180 865q0-48.923 34.346-83.692 34.346-34.77 67.039-70.462 29-31.769 50.384-67.885 21.385-36.115 49.616-68.115 19.692-22.154 44.57-38T480 521q30.02 0 55.625 15.231 25.606 15.23 44.529 38.154 28 32 49.115 68.23 21.116 36.231 49.346 68.231 32.693 35.692 67.039 70.462Q780 816.077 780 865q0 38.897-24.346 67.448Q731.308 961 694 961q-54 0-107-9t-107-9q-54 0-107 9t-107 9Z"/></svg>