<svg xmlns="http://www.w3.org/2000/svg" height="24" fill="rgb(156 163 175)" viewBox="0 96 960 960" width="24"><path d="M184.615 896Q157 896 138.5 877.5 120 859 120 831.385v-390.77Q120 413 138.5 394.5 157 376 184.615 376H360v-55.385Q360 293 378.5 274.5 397 256 424.615 256h110.77Q563 256 581.5 274.5 600 293 600 320.615V376h175.385Q803 376 821.5 394.5 840 413 840 440.615v390.77Q840 859 821.5 877.5 803 896 775.385 896h-590.77ZM400 376h160v-55.385q0-9.231-7.692-16.923Q544.615 296 535.385 296h-110.77q-9.23 0-16.923 7.692Q400 311.384 400 320.615V376Z"/></svg>