<svg id="Группа_7" data-name="Группа 7" xmlns="http://www.w3.org/2000/svg" width="2144" height="2177" viewBox="0 0 2144 2177">
  <defs>
    <style>
      .cls-1 {
        fill: #75a9ff;
        <!-- stroke: #fff;
        stroke-width: 1px; -->
        fill-rule: evenodd;
      }
    </style>
  </defs>
  <g id="Группа_8" data-name="Группа 8">
    <path id="Фигура_26" data-name="Фигура 26" class="cls-1" d="M1089,835c-39.12-10.967-51.91-56.513-55-74-4.53-25.647.69-44.226,6-52,25.54-37.409,110.31-38.024,143,7,14.41,19.841,22.18,53.576,6,81-5.46,9.252-25.86,27.613-60,36C1111.79,837.227,1094.78,836.62,1089,835Zm68.56,354.59c-5.44-9.7-25.34-19.11-58.01-24.05-75.64-11.44-137.117,7.41-158.035,20.04-24.38,14.72-74.038,50.49-68.015,89.18,4.645,29.84,40.377,49.19,73.016,60.13,46.405,15.55,96.984,7.88,136.034-16.03C1133.25,1287.8,1176.15,1222.74,1157.56,1189.59ZM982,1175.96c0.573-5.85,33.73-13.49,64.95-7.99,19.45,3.43,35.37,11.37,47.96,3,10.07-6.69,11.84-34.59,15.99-41.96,10.62-18.9,39.44-26.73,52.1-43.01,5.38-6.93,18.23-13.85,23-34,8.66-36.59,16.97-78.878,5-124-13.39-50.475-25.78-100.412-52-96-63.94,10.756-29.87-28.39-35-31-9.95-5.06-17.31,13.919-16.07.374,1.48-16.14,15.88-26.876,27.98-28.968,12.94-2.239,26.86,4.764,45.96,24.972,27.67,29.274,50.94,90.072,56.94,155.833,4.39,48.039,8.82,127.829-43.95,157.809-10,5.68-35.23,18.98-40.98,33.97-5.06,13.2,2.78,32.7-2,41.96C1115.38,1218.92,980.819,1188.02,982,1175.96ZM1089,835c-39.12-10.967-51.91-56.513-55-74-4.53-25.647.69-44.226,6-52,25.54-37.409,110.31-38.024,143,7,14.41,19.841,22.18,53.576,6,81-5.46,9.252-25.86,27.613-60,36C1111.79,837.227,1094.78,836.62,1089,835Zm68.56,354.59c-5.44-9.7-25.34-19.11-58.01-24.05-75.64-11.44-137.117,7.41-158.035,20.04-24.38,14.72-74.038,50.49-68.015,89.18,4.645,29.84,40.377,49.19,73.016,60.13,46.405,15.55,96.984,7.88,136.034-16.03C1133.25,1287.8,1176.15,1222.74,1157.56,1189.59ZM982,1175.96c0.573-5.85,33.73-13.49,64.95-7.99,19.45,3.43,35.37,11.37,47.96,3,10.07-6.69,11.84-34.59,15.99-41.96,10.62-18.9,39.44-26.73,52.1-43.01,5.38-6.93,18.23-13.85,23-34,8.66-36.59,16.97-78.878,5-124-13.39-50.475-25.78-100.412-52-96-63.94,10.756-29.87-28.39-35-31-9.95-5.06-17.31,13.919-16.07.374,1.48-16.14,15.88-26.876,27.98-28.968,12.94-2.239,26.86,4.764,45.96,24.972,27.67,29.274,50.94,90.072,56.94,155.833,4.39,48.039,8.82,127.829-43.95,157.809-10,5.68-35.23,18.98-40.98,33.97-5.06,13.2,2.78,32.7-2,41.96C1115.38,1218.92,980.819,1188.02,982,1175.96ZM1089,835c-39.12-10.967-51.91-56.513-55-74-4.53-25.647.69-44.226,6-52,25.54-37.409,110.31-38.024,143,7,14.41,19.841,22.18,53.576,6,81-5.46,9.252-25.86,27.613-60,36C1111.79,837.227,1094.78,836.62,1089,835Zm68.56,354.59c-5.44-9.7-25.34-19.11-58.01-24.05-75.64-11.44-137.117,7.41-158.035,20.04-24.38,14.72-74.038,50.49-68.015,89.18,4.645,29.84,40.377,49.19,73.016,60.13,46.405,15.55,96.984,7.88,136.034-16.03C1133.25,1287.8,1176.15,1222.74,1157.56,1189.59ZM982,1175.96c0.573-5.85,33.73-13.49,64.95-7.99,19.45,3.43,35.37,11.37,47.96,3,10.07-6.69,11.84-34.59,15.99-41.96,10.62-18.9,39.44-26.73,52.1-43.01,5.38-6.93,18.23-13.85,23-34,8.66-36.59,16.97-78.878,5-124-13.39-50.475-25.78-100.412-52-96-63.94,10.756-29.87-28.39-35-31-9.95-5.06-17.31,13.919-16.07.374,1.48-16.14,15.88-26.876,27.98-28.968,12.94-2.239,26.86,4.764,45.96,24.972,27.67,29.274,50.94,90.072,56.94,155.833,4.39,48.039,8.82,127.829-43.95,157.809-10,5.68-35.23,18.98-40.98,33.97-5.06,13.2,2.78,32.7-2,41.96C1115.38,1218.92,980.819,1188.02,982,1175.96ZM1089,835c-39.12-10.967-51.91-56.513-55-74-4.53-25.647.69-44.226,6-52,25.54-37.409,110.31-38.024,143,7,14.41,19.841,22.18,53.576,6,81-5.46,9.252-25.86,27.613-60,36C1111.79,837.227,1094.78,836.62,1089,835Zm68.56,354.59c-5.44-9.7-25.34-19.11-58.01-24.05-75.64-11.44-137.117,7.41-158.035,20.04-24.38,14.72-74.038,50.49-68.015,89.18,4.645,29.84,40.377,49.19,73.016,60.13,46.405,15.55,96.984,7.88,136.034-16.03C1133.25,1287.8,1176.15,1222.74,1157.56,1189.59ZM982,1175.96c0.573-5.85,33.73-13.49,64.95-7.99,19.45,3.43,35.37,11.37,47.96,3,10.07-6.69,11.84-34.59,15.99-41.96,10.62-18.9,39.44-26.73,52.1-43.01,5.38-6.93,18.23-13.85,23-34,8.66-36.59,16.97-78.878,5-124-13.39-50.475-25.78-100.412-52-96-63.94,10.756-29.87-28.39-35-31-9.95-5.06-17.31,13.919-16.07.374,1.48-16.14,15.88-26.876,27.98-28.968,12.94-2.239,26.86,4.764,45.96,24.972,27.67,29.274,50.94,90.072,56.94,155.833,4.39,48.039,8.82,127.829-43.95,157.809-10,5.68-35.23,18.98-40.98,33.97-5.06,13.2,2.78,32.7-2,41.96C1115.38,1218.92,980.819,1188.02,982,1175.96ZM1089,835c-39.12-10.967-51.91-56.513-55-74-4.53-25.647.69-44.226,6-52,25.54-37.409,110.31-38.024,143,7,14.41,19.841,22.18,53.576,6,81-5.46,9.252-25.86,27.613-60,36C1111.79,837.227,1094.78,836.62,1089,835Zm68.56,354.59c-5.44-9.7-25.34-19.11-58.01-24.05-75.64-11.44-137.117,7.41-158.035,20.04-24.38,14.72-74.038,50.49-68.015,89.18,4.645,29.84,40.377,49.19,73.016,60.13,46.405,15.55,96.984,7.88,136.034-16.03C1133.25,1287.8,1176.15,1222.74,1157.56,1189.59ZM982,1175.96c0.573-5.85,33.73-13.49,64.95-7.99,19.45,3.43,35.37,11.37,47.96,3,10.07-6.69,11.84-34.59,15.99-41.96,10.62-18.9,39.44-26.73,52.1-43.01,5.38-6.93,18.23-13.85,23-34,8.66-36.59,16.97-78.878,5-124-13.39-50.475-25.78-100.412-52-96-63.94,10.756-29.87-28.39-35-31-9.95-5.06-17.31,13.919-16.07.374,1.48-16.14,15.88-26.876,27.98-28.968,12.94-2.239,26.86,4.764,45.96,24.972,27.67,29.274,50.94,90.072,56.94,155.833,4.39,48.039,8.82,127.829-43.95,157.809-10,5.68-35.23,18.98-40.98,33.97-5.06,13.2,2.78,32.7-2,41.96C1115.38,1218.92,980.819,1188.02,982,1175.96ZM1089,835c-39.12-10.967-51.91-56.513-55-74-4.53-25.647.69-44.226,6-52,25.54-37.409,110.31-38.024,143,7,14.41,19.841,22.18,53.576,6,81-5.46,9.252-25.86,27.613-60,36C1111.79,837.227,1094.78,836.62,1089,835Zm68.56,354.59c-5.44-9.7-25.34-19.11-58.01-24.05-75.64-11.44-137.117,7.41-158.035,20.04-24.38,14.72-74.038,50.49-68.015,89.18,4.645,29.84,40.377,49.19,73.016,60.13,46.405,15.55,96.984,7.88,136.034-16.03C1133.25,1287.8,1176.15,1222.74,1157.56,1189.59Z"/>
    <path id="Фигура_26_копия" data-name="Фигура 26 копия" class="cls-1" d="M1089,835c-39.12-10.967-51.91-56.513-55-74-4.53-25.647.69-44.226,6-52,25.54-37.409,110.31-38.024,143,7,14.41,19.841,22.18,53.576,6,81-5.46,9.252-25.86,27.613-60,36C1111.79,837.227,1094.78,836.62,1089,835Zm68.56,354.59c-5.44-9.7-25.34-19.11-58.01-24.05-75.64-11.44-137.117,7.41-158.035,20.04-24.38,14.72-74.038,50.49-68.015,89.18,4.645,29.84,40.377,49.19,73.016,60.13,46.405,15.55,96.984,7.88,136.034-16.03C1133.25,1287.8,1176.15,1222.74,1157.56,1189.59ZM982,1175.96c0.573-5.85,33.73-13.49,64.95-7.99,19.45,3.43,35.37,11.37,47.96,3,10.07-6.69,11.84-34.59,15.99-41.96,10.62-18.9,39.44-26.73,52.1-43.01,5.38-6.93,18.23-13.85,23-34,8.66-36.59,16.97-78.878,5-124-13.39-50.475-25.78-100.412-52-96-63.94,10.756-29.87-28.39-35-31-9.95-5.06-17.31,13.919-16.07.374,1.48-16.14,15.88-26.876,27.98-28.968,12.94-2.239,26.86,4.764,45.96,24.972,27.67,29.274,50.94,90.072,56.94,155.833,4.39,48.039,8.82,127.829-43.95,157.809-10,5.68-35.23,18.98-40.98,33.97-5.06,13.2,2.78,32.7-2,41.96C1115.38,1218.92,980.819,1188.02,982,1175.96ZM1089,835c-39.12-10.967-51.91-56.513-55-74-4.53-25.647.69-44.226,6-52,25.54-37.409,110.31-38.024,143,7,14.41,19.841,22.18,53.576,6,81-5.46,9.252-25.86,27.613-60,36C1111.79,837.227,1094.78,836.62,1089,835Zm68.56,354.59c-5.44-9.7-25.34-19.11-58.01-24.05-75.64-11.44-137.117,7.41-158.035,20.04-24.38,14.72-74.038,50.49-68.015,89.18,4.645,29.84,40.377,49.19,73.016,60.13,46.405,15.55,96.984,7.88,136.034-16.03C1133.25,1287.8,1176.15,1222.74,1157.56,1189.59ZM982,1175.96c0.573-5.85,33.73-13.49,64.95-7.99,19.45,3.43,35.37,11.37,47.96,3,10.07-6.69,11.84-34.59,15.99-41.96,10.62-18.9,39.44-26.73,52.1-43.01,5.38-6.93,18.23-13.85,23-34,8.66-36.59,16.97-78.878,5-124-13.39-50.475-25.78-100.412-52-96-63.94,10.756-29.87-28.39-35-31-9.95-5.06-17.31,13.919-16.07.374,1.48-16.14,15.88-26.876,27.98-28.968,12.94-2.239,26.86,4.764,45.96,24.972,27.67,29.274,50.94,90.072,56.94,155.833,4.39,48.039,8.82,127.829-43.95,157.809-10,5.68-35.23,18.98-40.98,33.97-5.06,13.2,2.78,32.7-2,41.96C1115.38,1218.92,980.819,1188.02,982,1175.96ZM1089,835c-39.12-10.967-51.91-56.513-55-74-4.53-25.647.69-44.226,6-52,25.54-37.409,110.31-38.024,143,7,14.41,19.841,22.18,53.576,6,81-5.46,9.252-25.86,27.613-60,36C1111.79,837.227,1094.78,836.62,1089,835Zm68.56,354.59c-5.44-9.7-25.34-19.11-58.01-24.05-75.64-11.44-137.117,7.41-158.035,20.04-24.38,14.72-74.038,50.49-68.015,89.18,4.645,29.84,40.377,49.19,73.016,60.13,46.405,15.55,96.984,7.88,136.034-16.03C1133.25,1287.8,1176.15,1222.74,1157.56,1189.59ZM982,1175.96c0.573-5.85,33.73-13.49,64.95-7.99,19.45,3.43,35.37,11.37,47.96,3,10.07-6.69,11.84-34.59,15.99-41.96,10.62-18.9,39.44-26.73,52.1-43.01,5.38-6.93,18.23-13.85,23-34,8.66-36.59,16.97-78.878,5-124-13.39-50.475-25.78-100.412-52-96-63.94,10.756-29.87-28.39-35-31-9.95-5.06-17.31,13.919-16.07.374,1.48-16.14,15.88-26.876,27.98-28.968,12.94-2.239,26.86,4.764,45.96,24.972,27.67,29.274,50.94,90.072,56.94,155.833,4.39,48.039,8.82,127.829-43.95,157.809-10,5.68-35.23,18.98-40.98,33.97-5.06,13.2,2.78,32.7-2,41.96C1115.38,1218.92,980.819,1188.02,982,1175.96ZM1089,835c-39.12-10.967-51.91-56.513-55-74-4.53-25.647.69-44.226,6-52,25.54-37.409,110.31-38.024,143,7,14.41,19.841,22.18,53.576,6,81-5.46,9.252-25.86,27.613-60,36C1111.79,837.227,1094.78,836.62,1089,835Zm68.56,354.59c-5.44-9.7-25.34-19.11-58.01-24.05-75.64-11.44-137.117,7.41-158.035,20.04-24.38,14.72-74.038,50.49-68.015,89.18,4.645,29.84,40.377,49.19,73.016,60.13,46.405,15.55,96.984,7.88,136.034-16.03C1133.25,1287.8,1176.15,1222.74,1157.56,1189.59ZM982,1175.96c0.573-5.85,33.73-13.49,64.95-7.99,19.45,3.43,35.37,11.37,47.96,3,10.07-6.69,11.84-34.59,15.99-41.96,10.62-18.9,39.44-26.73,52.1-43.01,5.38-6.93,18.23-13.85,23-34,8.66-36.59,16.97-78.878,5-124-13.39-50.475-25.78-100.412-52-96-63.94,10.756-29.87-28.39-35-31-9.95-5.06-17.31,13.919-16.07.374,1.48-16.14,15.88-26.876,27.98-28.968,12.94-2.239,26.86,4.764,45.96,24.972,27.67,29.274,50.94,90.072,56.94,155.833,4.39,48.039,8.82,127.829-43.95,157.809-10,5.68-35.23,18.98-40.98,33.97-5.06,13.2,2.78,32.7-2,41.96C1115.38,1218.92,980.819,1188.02,982,1175.96ZM1089,835c-39.12-10.967-51.91-56.513-55-74-4.53-25.647.69-44.226,6-52,25.54-37.409,110.31-38.024,143,7,14.41,19.841,22.18,53.576,6,81-5.46,9.252-25.86,27.613-60,36C1111.79,837.227,1094.78,836.62,1089,835Zm68.56,354.59c-5.44-9.7-25.34-19.11-58.01-24.05-75.64-11.44-137.117,7.41-158.035,20.04-24.38,14.72-74.038,50.49-68.015,89.18,4.645,29.84,40.377,49.19,73.016,60.13,46.405,15.55,96.984,7.88,136.034-16.03C1133.25,1287.8,1176.15,1222.74,1157.56,1189.59ZM982,1175.96c0.573-5.85,33.73-13.49,64.95-7.99,19.45,3.43,35.37,11.37,47.96,3,10.07-6.69,11.84-34.59,15.99-41.96,10.62-18.9,39.44-26.73,52.1-43.01,5.38-6.93,18.23-13.85,23-34,8.66-36.59,16.97-78.878,5-124-13.39-50.475-25.78-100.412-52-96-63.94,10.756-29.87-28.39-35-31-9.95-5.06-17.31,13.919-16.07.374,1.48-16.14,15.88-26.876,27.98-28.968,12.94-2.239,26.86,4.764,45.96,24.972,27.67,29.274,50.94,90.072,56.94,155.833,4.39,48.039,8.82,127.829-43.95,157.809-10,5.68-35.23,18.98-40.98,33.97-5.06,13.2,2.78,32.7-2,41.96C1115.38,1218.92,980.819,1188.02,982,1175.96Zm0,0c0.573-5.85,33.73-13.49,64.95-7.99,19.45,3.43,35.37,11.37,47.96,3,10.07-6.69,11.84-34.59,15.99-41.96,10.62-18.9,39.44-26.73,52.1-43.01,5.38-6.93,18.23-13.85,23-34,8.66-36.59,16.97-78.878,5-124-13.39-50.475-25.78-100.412-52-96-63.94,10.756-29.87-28.39-35-31-9.95-5.06-17.31,13.919-16.07.374,1.48-16.14,15.88-26.876,27.98-28.968,12.94-2.239,26.86,4.764,45.96,24.972,27.67,29.274,50.94,90.072,56.94,155.833,4.39,48.039,8.82,127.829-43.95,157.809-10,5.68-35.23,18.98-40.98,33.97-5.06,13.2,2.78,32.7-2,41.96C1115.38,1218.92,980.819,1188.02,982,1175.96Z"/>
  </g>
</svg>
