<svg xmlns="http://www.w3.org/2000/svg" height="20" width="20"><path d="M4 10q-.833 0-1.417-.583Q2 8.833 2 8q0-.833.583-1.417Q3.167 6 4 6q.833 0 1.417.583Q6 7.167 6 8q0 .833-.583 1.417Q4.833 10 4 10Zm3.5-3q-.833 0-1.417-.583Q5.5 5.833 5.5 5q0-.833.583-1.417Q6.667 3 7.5 3q.833 0 1.417.583Q9.5 4.167 9.5 5q0 .833-.583 1.417Q8.333 7 7.5 7Zm5 0q-.833 0-1.417-.583Q10.5 5.833 10.5 5q0-.833.583-1.417Q11.667 3 12.5 3q.833 0 1.417.583.583.584.583 1.417 0 .833-.583 1.417Q13.333 7 12.5 7Zm3.5 3q-.833 0-1.417-.583Q14 8.833 14 8q0-.833.583-1.417Q15.167 6 16 6q.833 0 1.417.583Q18 7.167 18 8q0 .833-.583 1.417Q16.833 10 16 10ZM5.938 18.021q-.792 0-1.355-.646-.562-.646-.562-1.583 0-.98.667-1.688.666-.708 1.312-1.437.542-.625.958-1.271.417-.646.896-1.292.417-.542.948-.823Q9.333 9 10 9q.667 0 1.208.271.542.271.938.812.479.646.896 1.282.416.635.958 1.281.625.75 1.312 1.448.688.698.688 1.698 0 .916-.573 1.562T14.042 18q-1.042 0-2.021-.25-.979-.25-2.021-.25-1.042 0-2.031.26-.99.261-2.031.261Z"/></svg>