<svg xmlns="http://www.w3.org/2000/svg" viewBox="0 0 500 500"><g id="freepik--background-simple--inject-2"><path d="M291,17.76S213.5,3.67,148.36,56.87,60.37,198.33,40,269.36s8.48,135.18,68.37,156.8,89.85-29.55,166.5-44.31,99.15-7.13,156-61.06,51.59-158.55-11.22-226.34S291,17.76,291,17.76Z" style="fill:#407BFF"></path><path d="M291,17.76S213.5,3.67,148.36,56.87,60.37,198.33,40,269.36s8.48,135.18,68.37,156.8,89.85-29.55,166.5-44.31,99.15-7.13,156-61.06,51.59-158.55-11.22-226.34S291,17.76,291,17.76Z" style="fill:#fff;opacity:0.7000000000000001"></path></g><g id="freepik--Circles--inject-2"><path d="M68.82,74.32a5,5,0,1,1,5-5A5,5,0,0,1,68.82,74.32Zm0-9a4,4,0,1,0,4,4A4,4,0,0,0,68.82,65.36Z" style="fill:#263238"></path><path d="M158.84,119.94a6.2,6.2,0,1,1,6.2-6.2A6.21,6.21,0,0,1,158.84,119.94Zm0-11.4a5.2,5.2,0,1,0,5.2,5.2A5.2,5.2,0,0,0,158.84,108.54Z" style="fill:#263238"></path><path d="M138.88,37.66a3.35,3.35,0,1,1,3.35-3.35A3.35,3.35,0,0,1,138.88,37.66Zm0-5.7a2.35,2.35,0,1,0,2.35,2.35A2.35,2.35,0,0,0,138.88,32Z" style="fill:#263238"></path><path d="M169.43,45a3.76,3.76,0,1,1,3.76-3.76A3.77,3.77,0,0,1,169.43,45Zm0-6.52a2.76,2.76,0,1,0,2.76,2.76A2.77,2.77,0,0,0,169.43,38.48Z" style="fill:#263238"></path><path d="M58.23,245.4a6.61,6.61,0,1,1,6.61-6.61A6.61,6.61,0,0,1,58.23,245.4Zm0-12.22a5.61,5.61,0,1,0,5.61,5.61A5.61,5.61,0,0,0,58.23,233.18Z" style="fill:#263238"></path><path d="M454.16,274.73a4.17,4.17,0,1,1,4.16-4.16A4.17,4.17,0,0,1,454.16,274.73Zm0-7.33a3.17,3.17,0,1,0,3.16,3.17A3.17,3.17,0,0,0,454.16,267.4Z" style="fill:#263238"></path><path d="M444.38,156.6a3.35,3.35,0,1,1,3.35-3.35A3.35,3.35,0,0,1,444.38,156.6Zm0-5.7a2.35,2.35,0,1,0,2.35,2.35A2.35,2.35,0,0,0,444.38,150.9Z" style="fill:#263238"></path><path d="M305.07,31.15a5.8,5.8,0,1,1,5.8-5.8A5.8,5.8,0,0,1,305.07,31.15Zm0-10.59a4.8,4.8,0,1,0,4.8,4.79A4.8,4.8,0,0,0,305.07,20.56Z" style="fill:#263238"></path><path d="M360.88,27.07a2.95,2.95,0,1,1,2.94-2.94A2.95,2.95,0,0,1,360.88,27.07Zm0-4.89a1.95,1.95,0,1,0,1.94,1.95A2,2,0,0,0,360.88,22.18Z" style="fill:#263238"></path><path d="M202.83,363.53a5.39,5.39,0,1,1,5.39-5.39A5.4,5.4,0,0,1,202.83,363.53Zm0-9.78a4.39,4.39,0,1,0,4.39,4.39A4.4,4.4,0,0,0,202.83,353.75Z" style="fill:#263238"></path><path d="M191.83,300a3.36,3.36,0,1,1,3.35-3.36A3.37,3.37,0,0,1,191.83,300Zm0-5.71a2.36,2.36,0,1,0,2.35,2.35A2.36,2.36,0,0,0,191.83,294.28Z" style="fill:#263238"></path><path d="M118.11,436a3.76,3.76,0,1,1,3.75-3.76A3.76,3.76,0,0,1,118.11,436Zm0-6.52a2.76,2.76,0,1,0,2.75,2.76A2.76,2.76,0,0,0,118.11,429.52Z" style="fill:#263238"></path><path d="M38.68,342.35a2.54,2.54,0,1,1,2.53-2.54A2.54,2.54,0,0,1,38.68,342.35Zm0-4.07a1.54,1.54,0,1,0,1.53,1.53A1.53,1.53,0,0,0,38.68,338.28Z" style="fill:#263238"></path><path d="M447.23,411.59A4.57,4.57,0,1,1,451.8,407,4.58,4.58,0,0,1,447.23,411.59Zm0-8.14A3.57,3.57,0,1,0,450.8,407,3.57,3.57,0,0,0,447.23,403.45Z" style="fill:#263238"></path><path d="M479.41,333.39a5.8,5.8,0,1,1,5.8-5.8A5.8,5.8,0,0,1,479.41,333.39Zm0-10.59a4.8,4.8,0,1,0,4.8,4.79A4.8,4.8,0,0,0,479.41,322.8Z" style="fill:#263238"></path></g><g id="freepik--Character--inject-2"><polygon points="55.44 412.39 47.83 425.1 58.23 431.37 67.19 417.9 55.44 412.39" style="fill:#fff"></polygon><path d="M58.23,431.87a.48.48,0,0,1-.26-.07l-10.39-6.28a.49.49,0,0,1-.18-.68L55,412.13a.51.51,0,0,1,.64-.2l11.75,5.52a.48.48,0,0,1,.27.32.49.49,0,0,1-.06.41l-9,13.47A.52.52,0,0,1,58.23,431.87Zm-9.71-6.94,9.56,5.77,8.37-12.59L55.63,413Z" style="fill:#263238"></path><path d="M55,424.73s1.73-6.24-.29-7.55-4-.29-5.66.75-9.68,3.21-12.15,3.49-7.21-.3-9.92,3.07-1.37,6.14-.06,7.35S35,437.08,39.27,439,54,448.25,55,448s3-1.8,3.24-3.52a21.87,21.87,0,0,0,0-3.82s3.08-2.69,3.45-4.94.3-5.36,1.13-6.27,4.64-1.65,3-2.76-5.64-.62-7.71-1A17.33,17.33,0,0,1,55,424.73Z" style="fill:#263238"></path><path d="M55,448.48c-.72,0-2.27-.91-7-3.88a86.42,86.42,0,0,0-8.92-5.19c-4.41-1.91-11.22-6-12.52-7.2-1.7-1.58-2.72-4.63,0-8,2.34-2.91,6-3.06,8.67-3.16.59,0,1.13,0,1.59-.1,2.5-.28,10.42-2.47,11.94-3.41,1.31-.82,3.75-2.33,6.2-.75,2,1.3,1,6.09.6,7.66a20.32,20.32,0,0,0,2.68.72,20.18,20.18,0,0,0,2.75.21c1.95.06,4,.12,5.14.9a1.19,1.19,0,0,1,.64,1.05c-.06.75-1,1.18-2.09,1.67a5.77,5.77,0,0,0-1.43.79c-.45.5-.61,2.19-.74,3.68-.08.79-.15,1.6-.27,2.34-.34,2.09-2.73,4.42-3.43,5.06a21.28,21.28,0,0,1-.06,3.68c-.25,2-2.52,3.64-3.61,3.94Zm-2.3-31.41a6.75,6.75,0,0,0-3.37,1.29c-1.79,1.11-9.89,3.28-12.36,3.56-.48.05-1,.07-1.65.1-2.49.1-5.89.23-7.94,2.79-3,3.69-.61,6.2-.11,6.66,1.25,1.17,7.9,5.15,12.24,7a87.79,87.79,0,0,1,9.05,5.27c2.6,1.64,5.84,3.68,6.43,3.73a4.73,4.73,0,0,0,2.81-3.09,21.42,21.42,0,0,0,0-3.72.49.49,0,0,1,.17-.42s3-2.6,3.28-4.64c.12-.7.19-1.5.26-2.28.18-1.88.33-3.51,1-4.25a6,6,0,0,1,1.75-1,5.36,5.36,0,0,0,1.5-.84l-.19-.13c-.94-.63-2.89-.69-4.61-.74a20,20,0,0,1-2.92-.23,17.32,17.32,0,0,1-3.27-.93.51.51,0,0,1-.29-.59c.64-2.28,1.17-6.19-.07-7A3.15,3.15,0,0,0,52.66,417.07Z" style="fill:#263238"></path><path d="M56.06,440c-1.75-.7-9.72-1.28-14.19-2.61s-8-3.21-9.32-5.19-1.35-5.7-1.74-8.23-4.07,1.2-4.07,1.2l-.24,0c-2.08,3.09-.83,5.6.39,6.73S35,437.08,39.27,439,54,448.25,55,448s3-1.8,3.24-3.52a21.87,21.87,0,0,0,0-3.82C57.67,440.12,57.82,440.67,56.06,440Z" style="fill:#fff"></path><path d="M55,448.48c-.72,0-2.27-.91-7-3.88a86.42,86.42,0,0,0-8.92-5.19c-4.41-1.91-11.22-6-12.52-7.2C25,430.78,24,428,26.08,424.83a.5.5,0,0,1,.47-.21h0c.77-.75,2.63-2.39,3.85-2a1.36,1.36,0,0,1,.9,1.24c.1.64.18,1.36.26,2.1.22,2.13.48,4.54,1.4,5.93,1.21,1.82,4.51,3.64,9,5A71.22,71.22,0,0,0,51,438.54a32,32,0,0,1,5.3,1h0a4.43,4.43,0,0,0,1.42.37,1.34,1.34,0,0,1,.94.37.48.48,0,0,1,.18.34,21.78,21.78,0,0,1,0,3.93c-.25,2-2.52,3.64-3.61,3.94ZM26.75,425.64c-2,3.25,0,5.42.48,5.83,1.25,1.17,7.9,5.15,12.24,7a87.79,87.79,0,0,1,9.05,5.27c2.6,1.64,5.84,3.68,6.43,3.73a4.73,4.73,0,0,0,2.81-3.09,19.89,19.89,0,0,0,.05-3.49.33.33,0,0,0-.19,0,5.19,5.19,0,0,1-1.74-.44h0a34.47,34.47,0,0,0-5.07-.91,70.88,70.88,0,0,1-9.08-1.69c-4.77-1.42-8.26-3.39-9.6-5.4-1.06-1.59-1.33-4.13-1.57-6.38-.07-.72-.15-1.42-.24-2.05,0-.14-.09-.39-.22-.44-.5-.15-2,.86-3,1.92A.49.49,0,0,1,26.75,425.64Z" style="fill:#263238"></path><path d="M45.08,420s3.52,1.1,5.27,7.17l-3.08.54s-2.26-5.44-4.81-6.91Z" style="fill:#fff"></path><path d="M47.27,428.19a.51.51,0,0,1-.47-.31c0-.05-2.22-5.3-4.58-6.66a.5.5,0,0,1,.1-.91l2.61-.81a.51.51,0,0,1,.3,0c.15.05,3.8,1.25,5.6,7.52a.56.56,0,0,1-.06.4.54.54,0,0,1-.34.23l-3.08.54ZM43.56,421c1.92,1.7,3.51,5,4,6.16l2.13-.37c-1.48-4.62-4-6-4.64-6.25Z" style="fill:#263238"></path><path d="M40.86,420.63s3.52,1.1,5.26,7.18l-3.07.54s-2.26-5.45-4.81-6.91Z" style="fill:#fff"></path><path d="M43.05,428.85a.51.51,0,0,1-.47-.31c0-.05-2.22-5.31-4.58-6.67a.48.48,0,0,1-.25-.49.51.51,0,0,1,.35-.42l2.61-.81a.51.51,0,0,1,.3,0c.15.05,3.8,1.26,5.6,7.52a.56.56,0,0,1-.06.4.54.54,0,0,1-.34.23l-3.08.54Zm-3.71-7.23c1.92,1.7,3.51,5.05,4,6.17l2.13-.38c-1.48-4.62-4-6-4.64-6.25Z" style="fill:#263238"></path><path d="M50.2,426a.49.49,0,0,1-.49-.42.48.48,0,0,1,.41-.57l4.76-.8a.5.5,0,1,1,.17,1l-4.77.8Z" style="fill:#263238"></path><path d="M43.05,428.35a2.68,2.68,0,0,1-2.18,2.44c-2,.25-10.13-6.74-9.28-7.94s6.65-1.41,6.65-1.41A20.22,20.22,0,0,1,43.05,428.35Z" style="fill:#fff"></path><path d="M40.79,431.3c-2.12,0-8-5-9.41-7.23-.15-.24-.58-1-.2-1.51.92-1.31,5.63-1.57,7-1.62a.5.5,0,0,1,.34.12,20.63,20.63,0,0,1,4.94,7.1.45.45,0,0,1,0,.23,3.11,3.11,0,0,1-2.61,2.9ZM38.06,422c-2.63.11-5.64.58-6.06,1.19,0,.19.68,1.26,2.53,3,2.77,2.58,5.55,4.25,6.28,4.18a2.09,2.09,0,0,0,1.72-1.88A20,20,0,0,0,38.06,422Z" style="fill:#263238"></path><polygon points="172.8 440.05 171.38 454.79 159.29 453.67 160.07 437.51 172.8 440.05" style="fill:#fff"></polygon><path d="M171.38,455.29h0l-12.1-1.12a.5.5,0,0,1-.45-.52l.78-16.16a.52.52,0,0,1,.19-.37.51.51,0,0,1,.41-.1l12.73,2.54a.5.5,0,0,1,.4.54l-1.42,14.74A.5.5,0,0,1,171.38,455.29Zm-11.57-2.07,11.12,1,1.33-13.8-11.72-2.33Z" style="fill:#263238"></path><path d="M165.86,450.26s2.3-6,4.7-5.9,3.39,2.13,4.12,4,5.89,8.33,7.71,10,6,4,6.16,8.36-2.54,5.75-4.31,5.95-9.61-.57-14.18-1.63-17.38-1.25-18-2.07-1.37-3.24-.53-4.76a22.15,22.15,0,0,1,2.24-3.1s-.89-4,.15-6,2.94-4.5,2.81-5.72-2.76-4.08-.75-4,4.91,2.84,6.82,3.73A17.36,17.36,0,0,0,165.86,450.26Z" style="fill:#263238"></path><path d="M183.51,473.18a79.81,79.81,0,0,1-13.57-1.67,86.6,86.6,0,0,0-10.26-1.11c-6.05-.44-7.63-.62-8-1.14-.71-.88-1.55-3.57-.57-5.31a20.46,20.46,0,0,1,2.13-3c-.18-.93-.72-4.23.25-6.11.34-.66.76-1.36,1.17-2,.77-1.28,1.65-2.73,1.58-3.4a5.67,5.67,0,0,0-.68-1.48c-.58-1.05-1.08-1.95-.68-2.59a1.14,1.14,0,0,1,1.13-.46c1.41.06,3.07,1.21,4.68,2.32a19.11,19.11,0,0,0,2.33,1.46,20.82,20.82,0,0,0,2.58,1c.62-1.49,2.64-5.94,5-5.8,2.91.17,4,2.84,4.55,4.27.66,1.66,5.74,8.13,7.59,9.84.34.31.75.65,1.21,1,2.09,1.68,4.95,4,5.11,7.7.17,4.35-2.45,6.2-4.76,6.47Q184,473.18,183.51,473.18Zm-27.66-27.32a.44.44,0,0,0-.2,0,7.4,7.4,0,0,0,.75,1.54,6,6,0,0,1,.8,1.86c.1,1-.74,2.41-1.72,4-.4.67-.82,1.36-1.14,2-1,1.85-.12,5.66-.11,5.69a.53.53,0,0,1-.11.44,21.08,21.08,0,0,0-2.18,3,4.65,4.65,0,0,0,.48,4.2c.45.26,4.27.54,7.34.77a86.34,86.34,0,0,1,10.41,1.12c4.6,1.07,12.32,1.82,14,1.62.68-.07,4.06-.7,3.87-5.43-.14-3.28-2.79-5.4-4.73-7-.48-.38-.92-.73-1.27-1.06-1.83-1.69-7.06-8.24-7.84-10.19-.71-1.78-1.58-3.53-3.67-3.65h-.06c-1.47,0-3.32,3.41-4.15,5.59a.5.5,0,0,1-.58.31,17.66,17.66,0,0,1-3.19-1.19,19,19,0,0,1-2.48-1.55c-1.42-1-3-2.09-4.16-2.14Z" style="fill:#263238"></path><path d="M155.93,461.88c1.83.48,8.59,4.75,13,6.32s8.35,2.17,10.59,1.35,4.46-3.78,6.28-5.59,2.57,3.38,2.57,3.38l.21.13c-.16,3.72-2.65,5-4.31,5.18s-9.61-.57-14.18-1.63-17.38-1.25-18-2.07-1.37-3.24-.53-4.76a22.15,22.15,0,0,1,2.24-3.1C154.55,461.05,154.11,461.4,155.93,461.88Z" style="fill:#fff"></path><path d="M183.51,473.18a79.81,79.81,0,0,1-13.57-1.67,86.6,86.6,0,0,0-10.26-1.11c-6.05-.44-7.63-.62-8-1.14-.71-.88-1.55-3.57-.57-5.31a22.34,22.34,0,0,1,2.29-3.19.53.53,0,0,1,.35-.17,1.35,1.35,0,0,1,1,.26,3.84,3.84,0,0,0,1.37.55,32.76,32.76,0,0,1,4.84,2.36,68.35,68.35,0,0,0,8.17,4c4.46,1.61,8.2,2.1,10.25,1.35,1.57-.57,3.21-2.36,4.65-3.94.51-.55,1-1.08,1.45-1.53a1.39,1.39,0,0,1,1.46-.47c1.22.41,1.74,2.84,1.92,3.89h0a.5.5,0,0,1,.25.45c-.17,3.8-2.67,5.42-4.76,5.66Q184,473.18,183.51,473.18ZM154,461.59a20.15,20.15,0,0,0-2,2.85,4.65,4.65,0,0,0,.48,4.2c.45.26,4.27.54,7.34.77a86.34,86.34,0,0,1,10.41,1.12c4.6,1.07,12.32,1.82,14,1.62.6-.07,3.54-.59,3.85-4.41a.53.53,0,0,1-.19-.32c-.21-1.47-.78-3.16-1.28-3.33-.14,0-.33.12-.44.23-.45.44-.92,1-1.41,1.5-1.52,1.66-3.25,3.55-5.05,4.2-2.27.83-6.25.34-10.93-1.35a70.67,70.67,0,0,1-8.31-4,35.52,35.52,0,0,0-4.62-2.28h0a5,5,0,0,1-1.66-.67A.45.45,0,0,0,154,461.59Z" style="fill:#263238"></path><path d="M176.63,452.31s-3.48-1.21-8.49,2.65l2.16,2.26s5-3.05,8-2.71Z" style="fill:#fff"></path><path d="M170.3,457.72a.45.45,0,0,1-.36-.16l-2.16-2.26a.49.49,0,0,1-.14-.38.52.52,0,0,1,.19-.36c5.17-4,8.82-2.78,9-2.73a.61.61,0,0,1,.24.18l1.62,2.2a.48.48,0,0,1,0,.55.49.49,0,0,1-.48.24c-2.71-.31-7.61,2.62-7.65,2.65A.59.59,0,0,1,170.3,457.72Zm-1.41-2.7,1.5,1.57c1.06-.61,4.32-2.36,6.88-2.58l-.93-1.27C175.69,452.6,172.82,452.18,168.89,455Z" style="fill:#263238"></path><path d="M179.64,455.34s-3.48-1.21-8.49,2.65l2.16,2.26s5.05-3.05,8-2.71Z" style="fill:#fff"></path><path d="M173.31,460.75a.49.49,0,0,1-.37-.16l-2.15-2.26a.49.49,0,0,1-.14-.38.52.52,0,0,1,.19-.36c5.17-4,8.82-2.78,9-2.73a.61.61,0,0,1,.24.18l1.62,2.2a.5.5,0,0,1,0,.55.49.49,0,0,1-.49.24c-2.71-.3-7.6,2.62-7.65,2.65A.45.45,0,0,1,173.31,460.75Zm-1.41-2.7,1.5,1.57c1.06-.61,4.32-2.36,6.88-2.58l-.93-1.27C178.7,455.63,175.83,455.21,171.9,458.05Z" style="fill:#263238"></path><path d="M169.22,454.24a.48.48,0,0,1-.36-.16l-3.36-3.47a.5.5,0,1,1,.72-.69l3.36,3.47a.5.5,0,0,1,0,.71A.54.54,0,0,1,169.22,454.24Z" style="fill:#263238"></path><path d="M173.31,460.25a2.69,2.69,0,0,0,.29,3.26c1.46,1.37,12.16.58,12.19-.89s-4.52-5.08-4.52-5.08A20.32,20.32,0,0,0,173.31,460.25Z" style="fill:#fff"></path><path d="M177.94,464.72c-2.14,0-4-.25-4.68-.85a3.13,3.13,0,0,1-.38-3.88.46.46,0,0,1,.17-.17,20.65,20.65,0,0,1,8.18-2.78.49.49,0,0,1,.35.11c1.12.88,4.75,3.89,4.71,5.48,0,.66-.8,1-1,1.1A23.72,23.72,0,0,1,177.94,464.72Zm-4.26-4.11a2.1,2.1,0,0,0,.27,2.53c.55.52,3.78.81,7.54.37,2.5-.29,3.67-.75,3.82-1,0-.67-2.14-2.83-4.19-4.48A20.09,20.09,0,0,0,173.68,460.61Z" style="fill:#263238"></path><path d="M120.11,276.65s-2.49,24.41-16.93,44.27-48.35,92.62-48.35,92.62l14.32,7.57S110,372,118.4,360.24s23.76-25.5,23.76-25.5l15.06,104.8,15.61,1.83s7.48-66.18,5.59-101.33-7.95-58.5-7.95-58.5Z" style="fill:#263238"></path><path d="M172.83,441.87h-.06L157.16,440a.5.5,0,0,1-.44-.43L141.8,335.74c-3.08,2.83-15.7,14.63-23,24.8-8.36,11.64-48.86,60.4-49.27,60.89a.5.5,0,0,1-.62.12L54.6,414a.48.48,0,0,1-.22-.65c.34-.73,34.08-73,48.39-92.71,14.2-19.51,16.82-43.78,16.85-44a.51.51,0,0,1,.54-.45L170.52,281a.5.5,0,0,1,.43.38c.06.23,6.11,23.8,8,58.59s-5.52,100.75-5.59,101.41a.58.58,0,0,1-.19.34A.51.51,0,0,1,172.83,441.87Zm-15.17-2.78,14.73,1.72c.68-6.18,7.31-67.64,5.54-100.74-1.75-32.43-7.12-55.06-7.86-58.06l-49.52-4.81c-.45,3.58-3.74,25.83-17,44C89.9,340,58.31,407.27,55.48,413.32L69,420.48c3.5-4.22,41-49.4,49-60.53,8.38-11.67,23.69-25.45,23.84-25.59a.48.48,0,0,1,.5-.09.49.49,0,0,1,.33.39Z" style="fill:#263238"></path><path d="M165.07,318.72a.51.51,0,0,1-.5-.49c0-1.22-.08-2.63-.18-4.19a.5.5,0,0,1,.47-.54.5.5,0,0,1,.53.47c.1,1.58.16,3,.18,4.24a.49.49,0,0,1-.49.51Z" style="fill:#fff"></path><path d="M164.49,309.59a.5.5,0,0,1-.5-.45c-1.06-11.17-3.2-24.59-3.22-24.73a.51.51,0,0,1,.42-.57.5.5,0,0,1,.57.42c0,.13,2.17,13.58,3.23,24.79a.5.5,0,0,1-.45.54Z" style="fill:#fff"></path><path d="M159.76,305.68a.5.5,0,0,1-.49-.43c-.66-4.49-1.11-20.52-1.13-21.2a.5.5,0,0,1,.48-.52.54.54,0,0,1,.52.49c0,.17.46,16.65,1.12,21.09a.5.5,0,0,1-.42.56Z" style="fill:#fff"></path><path d="M123.55,306.56l-.11,0a.5.5,0,0,1-.38-.6c.21-.87.44-1.89.69-3a.5.5,0,0,1,1,.22c-.26,1.12-.49,2.14-.69,3A.51.51,0,0,1,123.55,306.56Z" style="fill:#fff"></path><path d="M125.21,299.19h-.11a.5.5,0,0,1-.38-.6c1.8-8.15,3.92-18,3.92-18l1,.21s-2.12,9.89-3.92,18.05A.5.5,0,0,1,125.21,299.19Z" style="fill:#fff"></path><path d="M124,295.35h-.1a.48.48,0,0,1-.39-.58l2.77-13.89a.51.51,0,0,1,.59-.4.5.5,0,0,1,.39.59L124.44,295A.5.5,0,0,1,124,295.35Z" style="fill:#fff"></path><path d="M160.74,165.31s10.76,2.34,7.58,7.67-5.86,6.14-6.4,6.08-4.13-7.28-4.13-7.28Z" style="fill:#263238"></path><path d="M162,179.56h-.11c-.3,0-.81-.09-4.52-7.55a.5.5,0,0,1,0-.43l2.95-6.47a.5.5,0,0,1,.56-.28c.28.06,6.82,1.52,8.27,4.87a3.72,3.72,0,0,1-.37,3.55C165.62,178.47,162.91,179.56,162,179.56Zm.18-.94Zm-3.81-6.85a60.56,60.56,0,0,0,3.74,6.78c.66-.08,3-1.19,5.81-5.82a2.78,2.78,0,0,0,.31-2.64c-1.07-2.46-5.79-3.84-7.18-4.2Z" style="fill:#263238"></path><path d="M208.34,202.43c.17-1.45.8-2.12-.39-3s-11.41-3.15-11.41-3.15-2.28.66-2.45,2.11c0,0-1.67,5-.41,6.76s6,8.23,5.94,9.14-4.91,26.84-4.91,26.84l-9-8.47c-1.49-2.67-6.42-11.21-9.72-13.45a21.67,21.67,0,0,0-9.41-3.44c-1.45-.17-8.78-.58-9.63-4.36A13,13,0,0,1,158,203.8s6.62,1.68,7.89.17,1.79-14,1.79-14l1.3-1.69c1.29-1.69,1.62-4.24-.59-4.48s-4.05-1.57-4.82-6.07a12.82,12.82,0,0,0-4.68-7.34c-10.39-5.61-15.67-1.25-15.67-1.25s-11.64,8.41-9.61,18,7.08,12,7.08,12-.64,7.1-2.28,10.95a10.85,10.85,0,0,1-6.14-1.65c-3.39-2.21-3.83-1.1-7.62-3.81s-15.53-15.45-15.53-15.45L75,148.52l-1.15-4.81a5.22,5.22,0,0,0-2.06-3c-1.53-1.08-3.76-2.66-4.88-3.52-1.79-1.37-2.92-8.51-5.53-6.08s1.81,8,1.81,8l-8.71-2.17s-6.43-5-6.27-3.05,4.23,10.61,6.7,12.84c2.2,2,11,4.75,12.94,5.34,2.72,6.31,13.34,25.48,15.52,30.45,2.53,5.75,11.7,14.83,11.7,14.83l17.89,25.75,6.15,6.57c.28,2.9-.37,21.35.35,25,.93,4.7.61,23.89.61,23.89l50.45,3.05,0-38.59,9.67,6.27.1-.28c4.31,2.49,13.45,7.63,17.85,9,5.86,1.78,7.14.27,7.68-4.45s0-41.39,0-41.39S208.18,203.88,208.34,202.43Z" style="fill:#fff"></path><path d="M170.47,282h0L120,279a.51.51,0,0,1-.47-.51c0-.19.31-19.19-.6-23.79-.45-2.25-.38-9.73-.32-16.34,0-3.87.06-7.24,0-8.5l-6-6.45L94.61,197.59c-.32-.3-9.21-9.13-11.75-14.91-1-2.27-3.79-7.58-6.75-13.19-3.51-6.67-7.14-13.55-8.68-17.05-2.75-.85-10.74-3.42-12.9-5.38-2.48-2.24-6.69-11-6.87-13.17a.87.87,0,0,1,.42-.89c1-.57,4.13,1.55,6.57,3.44l7.3,1.82c-1.21-1.85-3.13-5.54-1-7.55a1.88,1.88,0,0,1,1.68-.6c1.26.25,2,2,2.87,3.84a8.77,8.77,0,0,0,1.63,2.82c1.15.88,3.54,2.57,4.86,3.5a5.68,5.68,0,0,1,2.25,3.33l1.12,4.69L109.47,189c.1.11,11.74,12.71,15.45,15.36a12.89,12.89,0,0,0,4,2.1,13.17,13.17,0,0,1,3.56,1.7,10.23,10.23,0,0,0,5.52,1.57c1.31-3.31,1.94-8.8,2.09-10.17-1.18-.71-5.26-3.74-7-12.21-2.07-9.82,9.32-18.18,9.8-18.53.2-.17,5.64-4.49,16.21,1.21a13.2,13.2,0,0,1,4.93,7.7c.8,4.68,2.76,5.48,4.38,5.65a2.1,2.1,0,0,1,1.86,1.27c.54,1.24-.08,2.91-.93,4l-1.2,1.56c-.1,2.43-.6,12.58-1.89,14.1s-6.25.51-8,.1a12.26,12.26,0,0,0-.86,6.92c.71,3.14,6.78,3.74,8.77,3.93l.44,0a21.81,21.81,0,0,1,9.63,3.52c3.28,2.22,7.95,10.16,9.84,13.54l8.3,7.8c1.7-9.16,4.67-25.22,4.75-25.9-.09-.78-3.63-5.7-5-7.56l-.89-1.24c-1.34-1.91.08-6.44.32-7.16.25-1.72,2.7-2.45,2.8-2.48a.7.7,0,0,1,.25,0c1.06.24,10.36,2.33,11.6,3.24a2,2,0,0,1,.76,2.52,8.28,8.28,0,0,0-.17.93h0c-.16,1.42-2.32,8.77-2.57,9.64,0,2.34.56,36.74,0,41.38-.28,2.38-.73,4.14-2.08,5s-3.14.78-6.25-.16c-4.22-1.28-12.6-5.92-17.51-8.75l-.14.07a.48.48,0,0,1-.42-.06l-8.9-5.77,0,37.67a.52.52,0,0,1-.16.37A.48.48,0,0,1,170.47,282Zm-49.94-4L170,281,170,243a.49.49,0,0,1,.27-.43.47.47,0,0,1,.51,0l9.22,6,.11-.05a.49.49,0,0,1,.41,0c3.87,2.24,13.33,7.58,17.74,8.92,2.76.83,4.43.92,5.41.28s1.35-1.83,1.63-4.31c.53-4.64,0-41,0-41.33a.39.39,0,0,1,0-.15c.83-2.81,2.43-8.43,2.56-9.55h0a8,8,0,0,1,.19-1c.18-.8.23-1-.38-1.5-.8-.58-7.17-2.15-11.1-3-.61.2-1.87.79-2,1.65,0,0,0,.07,0,.1-.45,1.31-1.39,5-.48,6.31l.89,1.24c4,5.53,5.22,7.53,5.14,8.25-.1.91-4.73,25.81-4.92,26.87a.5.5,0,0,1-.84.28l-9-8.48a.47.47,0,0,1-.09-.12c-1.44-2.56-6.36-11.1-9.57-13.27a21,21,0,0,0-9.19-3.36l-.42,0c-2.17-.22-8.77-.86-9.64-4.7a13.31,13.31,0,0,1,1.1-8,.49.49,0,0,1,.57-.26c2.62.66,6.64,1.2,7.38.33s1.48-8.91,1.67-13.66a.48.48,0,0,1,.1-.28l1.3-1.69a3.42,3.42,0,0,0,.8-3,1.15,1.15,0,0,0-1-.66c-2.88-.31-4.55-2.37-5.26-6.49s-4.44-7-4.47-7c-9.88-5.32-15-1.3-15.07-1.26s-11.37,8.35-9.43,17.53,6.76,11.67,6.8,11.69a.49.49,0,0,1,.28.49c0,.3-.66,7.23-2.31,11.1a.5.5,0,0,1-.44.31A11.42,11.42,0,0,1,132,209a12.46,12.46,0,0,0-3.32-1.59,13.74,13.74,0,0,1-4.32-2.24c-3.78-2.71-15.13-15-15.61-15.51L74.56,148.84a.47.47,0,0,1-.1-.2l-1.15-4.81a4.65,4.65,0,0,0-1.86-2.74c-1.62-1.14-3.79-2.68-4.89-3.53a8.88,8.88,0,0,1-1.93-3.2c-.62-1.39-1.4-3.12-2.16-3.27-.08,0-.34-.07-.8.35-1.86,1.73.71,5.87,1.86,7.32a.51.51,0,0,1,0,.58.51.51,0,0,1-.54.22l-8.71-2.17a.66.66,0,0,1-.19-.09c-2.32-1.81-4.69-3.28-5.45-3.4.32,2.1,4.15,10.27,6.53,12.42,2.12,1.92,11,4.69,12.74,5.23a.52.52,0,0,1,.32.28c1.46,3.39,5.16,10.41,8.73,17.19,3,5.64,5.78,11,6.79,13.26,2.46,5.6,11.5,14.58,11.59,14.67l17.95,25.83,6.1,6.51a.48.48,0,0,1,.13.3c.12,1.16.09,4.68,0,8.77-.06,6.23-.13,14,.3,16.14C120.76,258.84,120.57,275,120.53,278Z" style="fill:#263238"></path><path d="M67.4,147.05a.46.46,0,0,1-.33-.13c-1.42-1.28-2-1.44-2.25-1.46-1.72-.08-8.23-1.69-8.5-1.76a.53.53,0,0,1-.21-.11l-5.42-4.81a.5.5,0,0,1,.66-.75l5.33,4.73c.9.22,6.69,1.63,8.19,1.71a5.44,5.44,0,0,1,2.87,1.71.5.5,0,0,1,0,.71A.49.49,0,0,1,67.4,147.05Z" style="fill:#263238"></path><path d="M70.27,150.09a.5.5,0,0,1-.38-.19s-.42-.51-1-1.18a.5.5,0,0,1,0-.71.51.51,0,0,1,.71,0c.64.7,1.07,1.23,1.07,1.23a.49.49,0,0,1-.07.7A.47.47,0,0,1,70.27,150.09Z" style="fill:#263238"></path><polygon points="157.97 203.8 153.16 202.41 156.58 207.39 157.97 203.8" style="fill:#263238"></polygon><path d="M156.58,207.89a.49.49,0,0,1-.41-.22l-3.42-5a.5.5,0,0,1,0-.58.49.49,0,0,1,.54-.18l4.81,1.39a.48.48,0,0,1,.31.26.51.51,0,0,1,0,.4l-1.39,3.59a.49.49,0,0,1-.41.32Zm-2.22-4.61,2.1,3.05.85-2.2Z" style="fill:#263238"></path><path d="M158.33,181.32h-.12a1,1,0,0,1-.87-1.1,5.67,5.67,0,0,1,.72-2.08,3.78,3.78,0,0,1,3.87-1.89,1,1,0,1,1-.23,2c-2-.23-2.32,1.81-2.37,2.22A1,1,0,0,1,158.33,181.32Z" style="fill:#263238"></path><path d="M165,193.76l-6-3.82s-1.29,6.47,1.09,6.56S165,193.76,165,193.76Z" style="fill:#263238"></path><path d="M160.21,197h-.13a1.58,1.58,0,0,1-1.23-.63c-1.27-1.61-.43-6-.33-6.53a.49.49,0,0,1,.3-.36.5.5,0,0,1,.46,0l6,3.82a.48.48,0,0,1,.23.35.53.53,0,0,1-.12.4C165.28,194.21,162.75,197,160.21,197Zm-.83-6.24c-.27,1.74-.39,4.16.26,5a.57.57,0,0,0,.48.25c1.56.05,3.32-1.4,4.1-2.15Z" style="fill:#263238"></path><path d="M163.63,184.5a.49.49,0,0,1-.41-.21,1.57,1.57,0,0,0-1.1-.72,3,3,0,0,0-2,.72.5.5,0,0,1-.66-.76,4.12,4.12,0,0,1,2.72-1,2.6,2.6,0,0,1,1.81,1.14.5.5,0,0,1-.12.7A.52.52,0,0,1,163.63,184.5Z" style="fill:#263238"></path><path d="M158.73,192l5.5,2.51c.48-.43.78-.76.78-.76l-6-3.82S158.83,190.86,158.73,192Z" style="fill:#fff"></path><path d="M164.23,195a.52.52,0,0,1-.21,0l-5.5-2.52a.48.48,0,0,1-.29-.49,20.57,20.57,0,0,1,.29-2.13.49.49,0,0,1,.3-.36.5.5,0,0,1,.46,0l6,3.82a.48.48,0,0,1,.23.35.49.49,0,0,1-.13.4,11.39,11.39,0,0,1-.82.81A.5.5,0,0,1,164.23,195Zm-5-3.32,4.87,2.23.09-.08-4.84-3.08C159.34,191,159.3,191.35,159.26,191.7Z" style="fill:#263238"></path><path d="M112,192.5l-9.71,20.19,13,19.75-7.37,38.09,62.47,9,.56-31.32,7.51,5.09,9.77-19.48s-10.4-15-13-16.63c-3.3-2.11-9.42-2.72-9.42-2.72l-8.88-3L145.76,224.2l-7.38-14s-7-4.17-9.2-4.42S112,192.5,112,192.5Z" style="fill:#407BFF"></path><path d="M170.35,280h-.07l-62.47-9a.51.51,0,0,1-.34-.21.47.47,0,0,1-.08-.38l7.33-37.9L101.88,213a.5.5,0,0,1,0-.5l9.71-20.19a.47.47,0,0,1,.35-.27.52.52,0,0,1,.43.11c5.76,5,15.45,13,16.9,13.16,2.22.25,9.1,4.3,9.4,4.47a.49.49,0,0,1,.18.2l7.05,13.37,10.67-12.22a.49.49,0,0,1,.53-.15l8.84,3c.67.07,6.35.72,9.58,2.79,2.62,1.68,12.69,16.15,13.11,16.77a.49.49,0,0,1,0,.51l-9.78,19.48a.49.49,0,0,1-.32.26.47.47,0,0,1-.4-.07l-6.75-4.58-.54,30.4a.49.49,0,0,1-.18.37A.47.47,0,0,1,170.35,280Zm-61.88-9.87,61.39,8.8.55-30.76a.49.49,0,0,1,.27-.43.47.47,0,0,1,.51,0l7,4.77,9.38-18.7c-3-4.32-10.66-15-12.66-16.25-3.16-2-9.14-2.64-9.2-2.65l-.11,0L157.07,212l-10.93,12.52a.5.5,0,0,1-.82-.1L138,210.54c-2-1.19-7.25-4.08-8.89-4.27-2.07-.24-13.57-10.05-17-13l-9.3,19.35,12.8,19.52a.47.47,0,0,1,.07.37Z" style="fill:#263238"></path><path d="M170.91,248.66a.5.5,0,0,1-.5-.47l-.64-13.25a.5.5,0,1,1,1-.05l.64,13.25a.5.5,0,0,1-.48.52Z" style="fill:#263238"></path><path d="M115.22,208.68h0a.9.9,0,0,1-.78-1l.53-4.61a.89.89,0,0,1,1-.77h0a.88.88,0,0,1,.78,1l-.53,4.61A.89.89,0,0,1,115.22,208.68Zm-.11,16.43.53-4.6a.87.87,0,0,0-.77-1h0a.87.87,0,0,0-1,.77l-.53,4.61a.89.89,0,0,0,.78,1h0A.88.88,0,0,0,115.11,225.11Zm14,2,.53-4.61a.87.87,0,0,0-.78-1h0a.87.87,0,0,0-1,.77l-.53,4.61a.89.89,0,0,0,.77,1h0A.88.88,0,0,0,129.1,227.16ZM140.47,254l.52-4.6a.87.87,0,0,0-.77-1h0a.88.88,0,0,0-1,.78l-.53,4.6a.89.89,0,0,0,.78,1h0A.89.89,0,0,0,140.47,254Zm23.36-21.54.53-4.61a.89.89,0,0,0-.78-1h0a.9.9,0,0,0-1,.78l-.53,4.61a.9.9,0,0,0,.78,1h0A.89.89,0,0,0,163.83,232.48Zm-16.29.58.53-4.61a.89.89,0,0,0-.78-1h0a.89.89,0,0,0-1,.78l-.53,4.6a.89.89,0,0,0,.78,1h0A.88.88,0,0,0,147.54,233.06Zm6,31.13.53-4.61a.89.89,0,0,0-.78-1h0a.88.88,0,0,0-1,.78l-.53,4.61a.89.89,0,0,0,.78,1h0A.88.88,0,0,0,153.52,264.19Zm-23.86-18.63.53-4.61a.88.88,0,0,0-.78-1h0a.89.89,0,0,0-1,.77l-.53,4.61a.9.9,0,0,0,.78,1h0A.9.9,0,0,0,129.66,245.56Zm23.79-2.05.53-4.6a.87.87,0,0,0-.78-1h0a.89.89,0,0,0-1,.77l-.52,4.61a.88.88,0,0,0,.77,1h0A.88.88,0,0,0,153.45,243.51Zm-7.84,25.94-4.4-1.47a.89.89,0,0,0-1.12.56h0a.89.89,0,0,0,.56,1.12l4.4,1.46a.89.89,0,0,0,1.12-.56h0A.88.88,0,0,0,145.61,269.45Zm-22.71-3.77-4.4-1.46a.87.87,0,0,0-1.11.56h0a.87.87,0,0,0,.56,1.11l4.4,1.46a.87.87,0,0,0,1.11-.56h0A.87.87,0,0,0,122.9,265.68Zm52.62-30.53.53-4.6a.88.88,0,0,0-.77-1h0a.87.87,0,0,0-1,.78l-.53,4.6a.87.87,0,0,0,.78,1h0A.87.87,0,0,0,175.52,235.15Zm-68.66-19.43.53-4.61a.9.9,0,0,0-.78-1h0a.89.89,0,0,0-1,.78l-.53,4.61a.89.89,0,0,0,.78,1h0A.9.9,0,0,0,106.86,215.72Zm16-.59,4.54-.95a.88.88,0,0,0,.68-1.05h0a.88.88,0,0,0-1-.68l-4.54,1a.88.88,0,0,0-.69,1h0A.89.89,0,0,0,122.82,215.13ZM118.49,237,123,236a.89.89,0,0,0,.69-1.05h0a.89.89,0,0,0-1-.68l-4.54,1a.88.88,0,0,0-.68,1h0A.89.89,0,0,0,118.49,237Zm31.37,15.15,4.54-.94a.88.88,0,0,0,.68-1.05h0a.87.87,0,0,0-1-.68l-4.54,1a.87.87,0,0,0-.68,1h0A.87.87,0,0,0,149.86,252.12Zm9.26,22,4.54-.95a.88.88,0,0,0,.68-1.05h0a.88.88,0,0,0-1-.68l-4.54,1a.88.88,0,0,0-.68,1h0A.88.88,0,0,0,159.12,274.08Zm14.61-31.86,4.54-.95a.88.88,0,0,0,.68-1.05h0a.88.88,0,0,0-1-.68l-4.54,1a.88.88,0,0,0-.68,1h0A.88.88,0,0,0,173.73,242.22Zm-7.67-20.91,4.54-.95a.88.88,0,0,0,.69-1h0a.88.88,0,0,0-1-.68l-4.54.94a.89.89,0,0,0-.68,1h0A.88.88,0,0,0,166.06,221.31Zm-3.52,44.27,4.54-.95a.88.88,0,0,0,.68-1h0a.88.88,0,0,0-1-.69l-4.54,1a.88.88,0,0,0-.68,1h0A.88.88,0,0,0,162.54,265.58Zm1.3-20,1,4.53a.9.9,0,0,0,1.06.68h0a.9.9,0,0,0,.67-1.06l-1-4.52a.89.89,0,0,0-1-.68h0A.89.89,0,0,0,163.84,245.56Zm-27.47-5.65,4.54-.95a.88.88,0,0,0,.68-1.05h0a.88.88,0,0,0-1-.68l-4.54,1a.88.88,0,0,0-.68,1h0A.88.88,0,0,0,136.37,239.91Zm-9.12,21.4,4.54-.95a.88.88,0,0,0,.68-1.05h0a.88.88,0,0,0-1-.68l-4.54.95a.88.88,0,0,0-.69,1h0A.89.89,0,0,0,127.25,261.31Zm-9.68-6.67,4.54-.95a.88.88,0,0,0,.68-1h0a.88.88,0,0,0-1-.69l-4.54.95a.89.89,0,0,0-.69,1.05h0A.88.88,0,0,0,117.57,254.64Z" style="fill:#fff"></path><path d="M120.08,179.07c.19,0,.4.08.66.11C120.52,179.16,120.3,179.11,120.08,179.07Z" style="fill:#263238"></path><path d="M120.74,179.68h-.06c-.28,0-.51-.08-.71-.12a.5.5,0,0,1,.21-1l.12,0a3.85,3.85,0,0,0,.49.08h0a.5.5,0,0,1,.44.55A.51.51,0,0,1,120.74,179.68Z" style="fill:#263238"></path><path d="M162,163.49a32.84,32.84,0,0,0-26.5-3.54,14.8,14.8,0,0,0-6.11,3.52c-2.67-3.88-7.19-7.29-10.61-7.68-2.81-.33-4.31,1.47-5.2,4.05l.16-1.39s-5,6.9-5.26,11.11a7.34,7.34,0,0,0,3.26,6.35s-1.21-5.48.63-9.8c-.07.59-.14,1.18-.2,1.75a10.07,10.07,0,0,0,7.88,11.21c-2.27-.52.72-1.94,4.23-3.68a27.49,27.49,0,0,0,0,6s-5.13,5.64-3,11.36,14.26,10.36,17.67,11a12.57,12.57,0,0,0,1.61-7.54s2.74.07,6.3-2.76,4.66-10.18,4.66-10.18l.28,0a9.57,9.57,0,0,1,3.56-5.25c3-2.15,6.1-7.53,6.1-7.53C164.21,166.23,163.89,164.7,162,163.49Z" style="fill:#263238"></path><path d="M139,204.2h-.09c-3.61-.67-15.89-5.36-18-11.32-2-5.43,2.11-10.65,3-11.69a28.86,28.86,0,0,1-.09-5,18.84,18.84,0,0,0-3.89,2.25,1.6,1.6,0,0,0,.34.1.5.5,0,0,1,.38.59.49.49,0,0,1-.58.39,10.37,10.37,0,0,1-8.1-8.08,20.9,20.9,0,0,0,.37,4.32.5.5,0,0,1-.75.54,7.84,7.84,0,0,1-3.5-6.81c.24-4.31,5.15-11.09,5.36-11.38a.52.52,0,0,1,.52-.19,4.7,4.7,0,0,1,5-2.67c3.35.38,7.74,3.47,10.63,7.42a15.53,15.53,0,0,1,5.88-3.24,33.14,33.14,0,0,1,26.93,3.6,3.11,3.11,0,0,1,1.67,2.78c0,1.19-.67,2.68-2.07,4.83-.12.2-3.18,5.47-6.22,7.65a9,9,0,0,0-3.38,5,.5.5,0,0,1-.33.33c-.27,1.56-1.52,7.55-4.78,10.14a12.39,12.39,0,0,1-6,2.83,13.82,13.82,0,0,1-1.73,7.32A.5.5,0,0,1,139,204.2Zm-14.67-29.31a.47.47,0,0,1,.28.09.49.49,0,0,1,.22.46,26.6,26.6,0,0,0,0,5.83.51.51,0,0,1-.13.41s-4.9,5.49-2.94,10.85,13.16,9.75,16.93,10.6a12.06,12.06,0,0,0,1.39-6.88.54.54,0,0,1,.11-.41.52.52,0,0,1,.4-.18s2.63,0,6-2.66,4.46-9.79,4.47-9.86a.5.5,0,0,1,.39-.41,10,10,0,0,1,3.66-5.21c2.87-2.06,5.93-7.32,6-7.37,1.27-2,1.89-3.36,1.92-4.33a2.09,2.09,0,0,0-1.22-1.91h0a32.6,32.6,0,0,0-26.08-3.48,14.23,14.23,0,0,0-5.91,3.4.5.5,0,0,1-.4.13.47.47,0,0,1-.36-.21c-2.68-3.89-7.09-7.1-10.25-7.47-2.23-.25-3.71.93-4.67,3.72a.52.52,0,0,1-.59.33.59.59,0,0,1-.28-.18c-1.45,2.2-4,6.54-4.21,9.43a6.59,6.59,0,0,0,2,5.1,17.73,17.73,0,0,1,.88-8.76.5.5,0,0,1,1,.25l-.2,1.75a9.68,9.68,0,0,0,6.16,10.3c.32-.81,1.88-1.62,4.89-3.11l.35-.17A.42.42,0,0,1,124.31,174.89Zm27.52,8.29h0Z" style="fill:#263238"></path><polygon points="140.04 205.41 135.6 205.35 133.77 207.81 136.07 224.52 143.38 218.91 140.47 209.46 140.04 205.41" style="fill:#fff"></polygon><path d="M136.07,225a.65.65,0,0,1-.19,0,.5.5,0,0,1-.3-.4l-2.31-16.71a.51.51,0,0,1,.1-.36l1.84-2.46a.48.48,0,0,1,.4-.2l4.44.06a.51.51,0,0,1,.49.45l.42,4,2.9,9.35a.52.52,0,0,1-.17.55l-7.31,5.6A.51.51,0,0,1,136.07,225Zm-1.78-17.08,2.16,15.66,6.35-4.87L140,209.61l-.4-3.7-3.74-.06Z" style="fill:#263238"></path><polygon points="156.58 207.39 155.18 212.93 149.97 219.66 156.2 227.27 161.01 212.49 160.15 208.39 156.58 207.39" style="fill:#fff"></polygon><path d="M156.2,227.77a.51.51,0,0,1-.38-.18L149.58,220a.5.5,0,0,1,0-.62l5.15-6.65,1.38-5.44a.52.52,0,0,1,.23-.31.49.49,0,0,1,.39-.05l3.56,1a.5.5,0,0,1,.36.37l.86,4.1a.57.57,0,0,1,0,.26l-4.81,14.79a.49.49,0,0,1-.38.33Zm-5.6-8.11,5.41,6.59,4.48-13.79-.77-3.67-2.78-.78-1.27,5a.66.66,0,0,1-.09.19Zm4.58-6.73h0Z" style="fill:#263238"></path><polygon points="187 236.42 182.63 250.09 180.17 249.22 187 236.42" style="fill:#263238"></polygon><path d="M182.63,250.59a.45.45,0,0,1-.16,0l-2.47-.87a.46.46,0,0,1-.3-.29.49.49,0,0,1,0-.41l6.83-12.81a.5.5,0,0,1,.91.39l-4.36,13.68a.51.51,0,0,1-.25.29A.46.46,0,0,1,182.63,250.59ZM180.88,249l1.43.5,2.54-7.94Z" style="fill:#263238"></path><path d="M211.31,204.51l-20.24-5.13.59-5.12a.88.88,0,1,1,1.75.2l-.41,3.59,16.93,4.29.77-4.12a.87.87,0,0,1,1-.7.88.88,0,0,1,.7,1Z" style="fill:#263238"></path><polygon points="195.64 200.97 206.77 203.35 207.95 199.44 196.54 196.29 195.64 200.97" style="fill:#fff"></polygon><path d="M206.77,203.85h-.11l-11.13-2.38a.5.5,0,0,1-.38-.58l.9-4.68a.49.49,0,0,1,.23-.33.45.45,0,0,1,.39-.06L208.08,199a.49.49,0,0,1,.31.24.51.51,0,0,1,0,.38l-1.18,3.92A.51.51,0,0,1,206.77,203.85Zm-10.55-3.27,10.2,2.19.9-3-10.39-2.87Z" style="fill:#263238"></path><path d="M193.58,201.29s.52-4.54,1.1-4.84,8.33,1.14,8.21,2.23-.19,1.63-1.1,1.52-2.74-.13-2.74-.13,3.74,4.3,2.07,7.6" style="fill:#fff"></path><path d="M201.12,208.17a.59.59,0,0,1-.22,0,.51.51,0,0,1-.23-.68c1.5-3-2-7-2-7a.49.49,0,0,1-.07-.54.46.46,0,0,1,.46-.29c.07,0,1.87,0,2.79.14.38,0,.41,0,.53-1-.7-.75-6.39-1.88-7.44-1.81a20.9,20.9,0,0,0-.87,4.44.48.48,0,0,1-.55.44.5.5,0,0,1-.44-.55c.55-4.81,1.17-5.12,1.38-5.23.77-.4,6.94.82,8.4,1.83a1,1,0,0,1,.53.9c-.12,1.05-.25,2.13-1.65,2-.44,0-1.1-.08-1.65-.1,1,1.49,2.82,4.63,1.48,7.29A.5.5,0,0,1,201.12,208.17Z" style="fill:#263238"></path><path d="M193.06,249.55H193a.51.51,0,0,1-.39-.59l1.65-7.91a.5.5,0,0,1,.59-.39.49.49,0,0,1,.38.59l-1.64,7.91A.5.5,0,0,1,193.06,249.55Z" style="fill:#263238"></path><path d="M199.05,200.57h0l-2.38-.09a.5.5,0,1,1,0-1l2.38.08a.51.51,0,0,1,.48.52A.5.5,0,0,1,199.05,200.57Z" style="fill:#263238"></path><polygon points="182.67 192.88 242.21 208.29 239.12 162.59 181.98 182.44 182.67 192.88" style="fill:#407BFF"></polygon><path d="M242.2,208.79l-.12,0-59.53-15.4a.52.52,0,0,1-.38-.45l-.69-10.44a.5.5,0,0,1,.33-.51L239,162.11a.5.5,0,0,1,.44.06.5.5,0,0,1,.22.38l3.08,45.71a.51.51,0,0,1-.5.53Zm-59-16.3,58.51,15.14-3-44.36L182.5,182.79Z" style="fill:#263238"></path><rect x="173.13" y="182.74" width="9.2" height="10.41" transform="translate(-12.11 12.24) rotate(-3.81)" style="fill:#407BFF"></rect><path d="M173.49,194a.51.51,0,0,1-.5-.47l-.69-10.39a.48.48,0,0,1,.12-.36.51.51,0,0,1,.34-.17l9.18-.62a.56.56,0,0,1,.37.13.49.49,0,0,1,.17.34l.69,10.39a.52.52,0,0,1-.12.36.53.53,0,0,1-.35.17l-9.18.61Zm-.16-10.43.62,9.39,8.19-.54-.63-9.39Z" style="fill:#263238"></path></g></svg>
