<svg xmlns="http://www.w3.org/2000/svg" height="20" width="20"><path d="M2 15.542q-.708 0-1.167-.469-.458-.469-.458-1.156V6.083q0-.708.469-1.166.468-.459 1.156-.459h16q.708 0 1.167.469.458.469.458 1.156v7.834q0 .708-.469 1.166-.468.459-1.156.459Zm0-.959h16q.25 0 .458-.208.209-.208.209-.458V6.083q0-.25-.209-.458-.208-.208-.458-.208h-3.188v3.75h-.958v-3.75h-3.375v3.75h-.958v-3.75H6.146v3.75h-.958v-3.75H2q-.25 0-.458.208-.209.208-.209.458v7.834q0 .25.209.458.208.208.458.208Zm3.188-5.416h.958Zm4.333 0h.958Zm4.333 0h.958ZM10 10Z"/></svg>