<svg id="Слой_1" data-name="Слой 1" xmlns="http://www.w3.org/2000/svg" xmlns:xlink="http://www.w3.org/1999/xlink" viewBox="0 0 430.10001 460.56">
  <defs>
    <style>
      .cls-1, .cls-44 {
        fill: none;
      }

      .cls-2 {
        fill: #fff;
      }

      .cls-3 {
        fill: #c7956d;
      }

      .cls-4 {
        fill: #828282;
      }

      .cls-5 {
        fill: #b4b4b4;
      }

      .cls-6 {
        fill: #dfdfdf;
      }

      .cls-7 {
        clip-path: url(#clip-path);
      }

      .cls-8 {
        fill: #14022b;
      }

      .cls-9 {
        fill: #13022a;
      }

      .cls-10 {
        fill: #120228;
      }

      .cls-11 {
        fill: #120227;
      }

      .cls-12 {
        fill: #110226;
      }

      .cls-13 {
        fill: #100224;
      }

      .cls-14 {
        fill: #100223;
      }

      .cls-15 {
        fill: #0f0222;
      }

      .cls-16 {
        fill: #13022e;
      }

      .cls-17 {
        clip-path: url(#clip-path-2);
      }

      .cls-18 {
        clip-path: url(#clip-path-3);
      }

      .cls-19 {
        fill: #858585;
      }

      .cls-20 {
        clip-path: url(#clip-path-4);
      }

      .cls-21 {
        fill: #0f0221;
      }

      .cls-22 {
        clip-path: url(#clip-path-5);
      }

      .cls-23 {
        clip-path: url(#clip-path-6);
      }

      .cls-24 {
        fill: #a8a8a8;
      }

      .cls-25 {
        fill: #a3a3a3;
      }

      .cls-26 {
        fill: #9e9e9e;
      }

      .cls-27 {
        clip-path: url(#clip-path-7);
      }

      .cls-28 {
        clip-path: url(#clip-path-8);
      }

      .cls-29 {
        fill: #8a8a8a;
      }

      .cls-30 {
        fill: #8f8f8f;
      }

      .cls-31 {
        fill: #949494;
      }

      .cls-32 {
        fill: #999;
      }

      .cls-33 {
        clip-path: url(#clip-path-9);
      }

      .cls-34 {
        clip-path: url(#clip-path-10);
      }

      .cls-35 {
        clip-path: url(#clip-path-11);
      }

      .cls-36 {
        clip-path: url(#clip-path-12);
      }

      .cls-37 {
        clip-path: url(#clip-path-13);
      }

      .cls-38 {
        clip-path: url(#clip-path-14);
      }

      .cls-39 {
        clip-path: url(#clip-path-15);
      }

      .cls-40 {
        fill: #1a0339;
      }

      .cls-41 {
        clip-path: url(#clip-path-16);
      }

      .cls-42 {
        fill: #4465de;
      }

      .cls-43 {
        isolation: isolate;
      }

      .cls-44 {
        stroke: #000;
        stroke-miterlimit: 10;
        stroke-width: 5px;
      }

      .cls-45 {
        fill-rule: evenodd;
      }

      .cls-46 {
        clip-path: url(#clip-path-17);
      }

      .cls-47 {
        fill: #ffc89d;
      }
    </style>
    <clipPath id="clip-path">
      <path class="cls-1" d="M284.28,332.5,279,329.63c7.07-1.06,12.78-7.85,12.77-15.16l5.28,2.87C297.07,324.65,291.36,331.44,284.28,332.5Z"/>
    </clipPath>
    <clipPath id="clip-path-2">
      <path class="cls-1" d="M178.56,346.17l-5.28-2.87a11.20984,11.20984,0,0,0,7,1.19l5.28,2.87A11.19,11.19,0,0,1,178.56,346.17Z"/>
    </clipPath>
    <clipPath id="clip-path-3">
      <path class="cls-1" d="M178.54,346.14l-5.27-2.87a11.23,11.23,0,0,1-5.69-10.1l5.28,2.87A11.2,11.2,0,0,0,178.54,346.14Z"/>
    </clipPath>
    <clipPath id="clip-path-4">
      <path class="cls-1" d="M176.19,350.15l-5.28-2.87a15,15,0,0,1-7.59-13.47l5.27,2.87A15,15,0,0,0,176.19,350.15Z"/>
    </clipPath>
    <clipPath id="clip-path-5">
      <path class="cls-1" d="M285.36,83.39l5.28,2.87a11.27,11.27,0,0,1,5.69,10.14l-5.27-2.87A11.3,11.3,0,0,0,285.36,83.39Z"/>
    </clipPath>
    <clipPath id="clip-path-6">
      <path class="cls-1" d="M278.21,82.22a11.52,11.52,0,0,1,7.16,1.2l5.28,2.87a11.52006,11.52006,0,0,0-7.16-1.2Z"/>
    </clipPath>
    <clipPath id="clip-path-7">
      <path class="cls-1" d="M287.73,79.42,293,82.29a15.28,15.28,0,0,0-9.53-1.61l-5.28-2.87A15.2799,15.2799,0,0,1,287.73,79.42Z"/>
    </clipPath>
    <clipPath id="clip-path-8">
      <path class="cls-1" d="M254.17,89.93a4.6,4.6,0,0,1,3.7-4.65l5.28,2.87a4.62,4.62,0,0,0-3.71,4.65v.1L254.17,90Z"/>
    </clipPath>
    <clipPath id="clip-path-9">
      <path class="cls-1" d="M254.17,90l5.27,2.87a7.17,7.17,0,0,1-5.87,6.88l-5.27-2.87A7.19,7.19,0,0,0,254.17,90Z"/>
    </clipPath>
    <clipPath id="clip-path-10">
      <rect class="cls-1" x="214.50999" y="100.8202" height="6.0096"/>
    </clipPath>
    <clipPath id="clip-path-11">
      <path class="cls-1" d="M208.72,101.85a5.11,5.11,0,0,0,3.15.54l5.28,2.87a5.07991,5.07991,0,0,1-3.15-.54Z"/>
    </clipPath>
    <clipPath id="clip-path-12">
      <path class="cls-1" d="M214,104.69l-5.28-2.87a5.14,5.14,0,0,1-2.61-4.63l5.27,2.87A5.13,5.13,0,0,0,214,104.69Z"/>
    </clipPath>
    <clipPath id="clip-path-13">
      <path class="cls-1" d="M204.37,94l5.27,2.87a3.48,3.48,0,0,1,1.69,3.21l-5.27-2.87A3.49,3.49,0,0,0,204.37,94Z"/>
    </clipPath>
    <clipPath id="clip-path-14">
      <path class="cls-1" d="M202.33,93.65a3.28005,3.28005,0,0,1,2.08.35l5.28,2.87a3.28005,3.28005,0,0,0-2.08-.35Z"/>
    </clipPath>
    <clipPath id="clip-path-15">
      <path class="cls-1" d="M172.14,115.1l-5.28-2.87c0-7.31,5.69-14.1,12.77-15.16l5.27,2.87C177.83,101,172.11,107.79,172.14,115.1Z"/>
    </clipPath>
    <clipPath id="clip-path-16">
      <path class="cls-1" d="M167.87,115.74l-5.27-2.87c0-9.73,7.6-18.8,17-20.21l5.28,2.87C175.48,96.94,167.84,106,167.87,115.74Z"/>
    </clipPath>
    <clipPath id="clip-path-17">
      <rect class="cls-1" x="213.19" y="191.83" width="172.01001" height="273.57997"/>
    </clipPath>
  </defs>
  <g id="BACKGROUND">
    <circle class="cls-2" cx="215.05" cy="215.05" r="215.05"/>
  </g>
  <g id="OBJECTS">
    <polygon class="cls-3" points="297.18 224.78 317.7 257.47 305.34 297.28 281.08 269.75 297.18 224.78"/>
    <g>
      <polygon class="cls-4" points="191.2 238.3 187.52 236.3 187.53 231.92 191.21 233.92 191.2 238.3"/>
      <polygon class="cls-5" points="187.14 238.88 183.46 236.87 187.52 236.3 191.2 238.3 187.14 238.88"/>
      <polygon points="187.14 238.88 183.46 236.87 183.47 232.49 187.15 234.49 187.14 238.88"/>
      <polygon points="187.15 234.49 183.47 232.49 187.53 231.92 191.21 233.92 187.15 234.49"/>
      <polygon class="cls-4" points="183.07 243.84 179.39 241.83 179.4 237.44 183.08 239.44 183.07 243.84"/>
      <polygon class="cls-5" points="179 244.41 175.32 242.41 179.39 241.83 183.07 243.84 179 244.41"/>
      <polygon class="cls-4" points="183.08 239.44 179.4 237.44 179.41 233.06 183.09 235.06 183.08 239.44"/>
      <polygon class="cls-5" points="174.94 244.98 171.26 242.98 175.32 242.41 179 244.41 174.94 244.98"/>
      <polygon class="cls-4" points="187.16 225.72 183.48 223.72 183.49 219.34 187.17 221.34 187.16 225.72"/>
      <polygon points="179.02 235.63 175.34 233.63 179.41 233.06 183.09 235.06 179.02 235.63"/>
      <polygon class="cls-4" points="191.24 216.38 187.56 214.38 187.57 210 191.25 212 191.24 216.38"/>
      <polygon class="cls-4" points="183.09 230.68 179.42 228.68 179.42 224.29 183.1 226.29 183.09 230.68"/>
      <polygon class="cls-5" points="183.1 226.29 179.42 224.29 183.48 223.72 187.16 225.72 183.1 226.29"/>
      <polygon class="cls-5" points="187.18 216.95 183.5 214.95 187.56 214.38 191.24 216.38 187.18 216.95"/>
      <polygon class="cls-4" points="179.02 235.63 175.34 233.63 175.35 229.25 179.03 231.25 179.02 235.63"/>
      <polygon class="cls-5" points="179.03 231.25 175.35 229.25 179.42 228.68 183.09 230.68 179.03 231.25"/>
      <polygon class="cls-5" points="170.88 245.55 167.2 243.55 171.26 242.98 174.94 244.98 170.88 245.55"/>
      <polygon class="cls-4" points="191.25 212 187.57 210 187.58 205.61 191.26 207.61 191.25 212"/>
      <polygon points="183.11 221.91 179.43 219.91 183.49 219.34 187.17 221.34 183.11 221.91"/>
      <polygon points="187.18 216.95 183.5 214.95 183.51 210.57 187.19 212.57 187.18 216.95"/>
      <polygon class="cls-4" points="183.11 221.91 179.43 219.91 179.44 215.52 183.12 217.53 183.11 221.91"/>
      <polygon points="174.96 236.21 171.28 234.2 171.29 229.82 174.97 231.82 174.96 236.21"/>
      <polygon class="cls-5" points="166.81 246.12 163.14 244.12 167.2 243.55 170.88 245.55 166.81 246.12"/>
      <polygon points="187.19 212.57 183.51 210.57 183.52 206.18 187.2 208.18 187.19 212.57"/>
      <polygon points="187.2 208.18 183.52 206.18 187.58 205.61 191.26 207.61 187.2 208.18"/>
      <polygon points="170.9 236.78 167.22 234.77 171.28 234.2 174.96 236.21 170.9 236.78"/>
      <polygon class="cls-4" points="191.27 203.23 187.59 201.23 187.59 196.84 191.27 198.84 191.27 203.23"/>
      <polygon class="cls-4" points="183.12 217.53 179.44 215.52 179.45 211.14 183.13 213.14 183.12 217.53"/>
      <polygon points="166.81 246.12 163.14 244.12 163.14 239.73 166.82 241.73 166.81 246.12"/>
      <polygon class="cls-5" points="187.21 203.8 183.53 201.8 187.59 201.23 191.27 203.23 187.21 203.8"/>
      <polygon class="cls-5" points="170.91 232.39 167.23 230.39 171.29 229.82 174.97 231.82 170.91 232.39"/>
      <polygon class="cls-4" points="170.9 236.78 167.22 234.77 167.23 230.39 170.91 232.39 170.9 236.78"/>
      <polygon points="187.21 199.42 183.53 197.41 187.59 196.84 191.27 198.84 187.21 199.42"/>
      <polygon points="179.06 213.71 175.38 211.71 179.45 211.14 183.13 213.14 179.06 213.71"/>
      <polygon points="170.91 232.39 167.23 230.39 167.24 226 170.91 228 170.91 232.39"/>
      <polygon class="cls-5" points="162.76 242.3 159.08 240.3 163.14 239.73 166.82 241.73 162.76 242.3"/>
      <polygon class="cls-5" points="183.14 204.37 179.47 202.37 183.53 201.8 187.21 203.8 183.14 204.37"/>
      <polygon points="174.98 223.05 171.3 221.05 171.31 216.66 174.99 218.67 174.98 223.05"/>
      <polygon points="166.84 232.97 163.16 230.96 167.23 230.39 170.91 232.39 166.84 232.97"/>
      <polygon class="cls-4" points="187.21 199.42 183.53 197.41 183.54 193.03 187.22 195.03 187.21 199.42"/>
      <polygon points="170.91 228 167.24 226 167.24 221.62 170.92 223.62 170.91 228"/>
      <polygon points="170.92 223.62 167.24 221.62 171.3 221.05 174.98 223.05 170.92 223.62"/>
      <polygon points="183.14 204.37 179.47 202.37 179.47 197.99 183.15 199.99 183.14 204.37"/>
      <polygon points="175 214.28 171.32 212.28 175.38 211.71 179.06 213.71 175 214.28"/>
      <polygon points="174.99 218.67 171.31 216.66 171.32 212.28 175 214.28 174.99 218.67"/>
      <polygon class="cls-4" points="166.84 232.97 163.16 230.96 163.17 226.57 166.85 228.57 166.84 232.97"/>
      <polygon class="cls-4" points="158.69 247.26 155.01 245.26 155.02 240.87 158.7 242.87 158.69 247.26"/>
      <polygon class="cls-5" points="158.7 242.87 155.02 240.87 159.08 240.3 162.76 242.3 158.7 242.87"/>
      <polygon class="cls-4" points="170.92 223.62 167.24 221.62 167.25 217.24 170.93 219.24 170.92 223.62"/>
      <polygon points="183.15 199.99 179.47 197.99 179.48 193.59 183.16 195.6 183.15 199.99"/>
      <polygon points="183.16 195.6 179.48 193.59 183.54 193.03 187.22 195.03 183.16 195.6"/>
      <polygon class="cls-5" points="154.63 247.83 150.95 245.83 155.01 245.26 158.69 247.26 154.63 247.83"/>
      <polygon class="cls-5" points="166.86 224.19 163.18 222.19 167.24 221.62 170.92 223.62 166.86 224.19"/>
      <polygon class="cls-4" points="187.23 190.64 183.55 188.64 183.56 184.26 187.24 186.26 187.23 190.64"/>
      <polygon class="cls-4" points="179.08 204.94 175.4 202.94 175.41 198.56 179.09 200.56 179.08 204.94"/>
      <polygon class="cls-4" points="191.31 181.3 187.63 179.3 187.63 174.92 191.31 176.92 191.31 181.3"/>
      <polygon points="162.79 229.15 159.11 227.14 163.17 226.57 166.85 228.57 162.79 229.15"/>
      <polygon class="cls-4" points="183.16 195.6 179.48 193.59 179.49 189.21 183.17 191.21 183.16 195.6"/>
      <polygon class="cls-5" points="183.17 191.21 179.49 189.21 183.55 188.64 187.23 190.64 183.17 191.21"/>
      <polygon points="154.63 247.83 150.95 245.83 150.96 241.44 154.64 243.44 154.63 247.83"/>
      <polygon class="cls-5" points="175.02 205.51 171.34 203.51 175.4 202.94 179.08 204.94 175.02 205.51"/>
      <polygon points="166.86 219.81 163.19 217.81 167.25 217.24 170.93 219.24 166.86 219.81"/>
      <polygon points="166.86 224.19 163.18 222.19 163.19 217.81 166.86 219.81 166.86 224.19"/>
      <polygon class="cls-5" points="187.25 181.87 183.57 179.87 187.63 179.3 191.31 181.3 187.25 181.87"/>
      <polygon points="158.71 238.49 155.03 236.49 155.04 232.1 158.72 234.11 158.71 238.49"/>
      <polygon points="158.72 234.11 155.04 232.1 159.1 231.53 162.78 233.53 158.72 234.11"/>
      <polygon class="cls-4" points="158.71 238.49 155.03 236.49 155.04 232.1 158.72 234.11 158.71 238.49"/>
      <polygon class="cls-5" points="158.72 234.11 155.04 232.1 159.1 231.53 162.78 233.53 158.72 234.11"/>
      <polygon class="cls-5" points="179.09 196.17 175.41 194.17 179.48 193.59 183.16 195.6 179.09 196.17"/>
      <polygon class="cls-4" points="179.09 200.56 175.41 198.56 175.41 194.17 179.09 196.17 179.09 200.56"/>
      <polygon class="cls-4" points="170.94 214.85 167.26 212.85 167.27 208.46 170.95 210.47 170.94 214.85"/>
      <polygon class="cls-4" points="191.31 176.92 187.63 174.92 187.64 170.53 191.32 172.53 191.31 176.92"/>
      <polygon class="cls-4" points="162.79 229.15 159.11 227.14 159.12 222.76 162.8 224.76 162.79 229.15"/>
      <polygon points="187.24 186.26 187.23 190.64 183.17 191.21 183.18 186.83 187.24 186.26"/>
      <polygon points="183.17 191.21 179.49 189.21 179.5 184.83 183.18 186.83 183.17 191.21"/>
      <polygon points="183.18 186.83 179.5 184.83 183.56 184.26 187.24 186.26 183.18 186.83"/>
      <polygon points="175.02 205.51 171.34 203.51 171.34 199.13 175.03 201.13 175.02 205.51"/>
      <polygon class="cls-5" points="166.87 215.43 163.19 213.43 167.26 212.85 170.94 214.85 166.87 215.43"/>
      <polygon points="179.1 191.79 175.42 189.78 179.49 189.21 183.17 191.21 179.1 191.79"/>
      <polygon class="cls-5" points="150.57 244.01 146.9 242.01 150.96 241.44 154.64 243.44 150.57 244.01"/>
      <polygon class="cls-4" points="150.57 248.4 146.89 246.4 146.9 242.01 150.57 244.01 150.57 248.4"/>
      <polygon class="cls-4" points="170.95 210.47 167.27 208.46 167.28 204.08 170.96 206.08 170.95 210.47"/>
      <polygon class="cls-4" points="191.32 172.53 187.64 170.53 187.65 166.15 191.33 168.15 191.32 172.53"/>
      <polygon class="cls-5" points="183.19 182.44 179.5 180.44 183.57 179.87 187.25 181.87 183.19 182.44"/>
      <polygon points="154.65 239.06 150.97 237.06 150.98 232.68 154.66 234.68 154.65 239.06"/>
      <polygon points="175.03 201.13 171.34 199.13 171.35 194.74 175.03 196.74 175.03 201.13"/>
      <polygon class="cls-5" points="146.51 248.97 142.83 246.97 146.89 246.4 150.57 248.4 146.51 248.97"/>
      <polygon points="166.87 215.43 163.19 213.43 163.2 209.03 166.88 211.04 166.87 215.43"/>
      <polygon points="158.74 225.33 155.06 223.33 159.12 222.76 162.8 224.76 158.74 225.33"/>
      <polygon points="158.73 229.72 155.05 227.71 155.06 223.33 158.74 225.33 158.73 229.72"/>
      <polygon class="cls-4" points="179.1 191.79 175.42 189.78 175.43 185.4 179.11 187.4 179.1 191.79"/>
      <polygon points="150.58 239.63 146.9 237.63 150.97 237.06 154.65 239.06 150.58 239.63"/>
      <polygon class="cls-4" points="170.96 206.08 167.28 204.08 167.28 199.7 170.96 201.7 170.96 206.08"/>
      <polygon class="cls-4" points="191.33 168.15 187.65 166.15 187.66 161.76 191.34 163.76 191.33 168.15"/>
      <polygon class="cls-4" points="162.8 220.38 159.12 218.38 159.13 214 162.81 216 162.8 220.38"/>
      <polygon points="154.67 230.29 150.99 228.28 155.05 227.71 158.73 229.72 154.67 230.29"/>
      <polygon points="175.03 196.74 171.35 194.74 171.36 190.35 175.04 192.36 175.03 196.74"/>
      <polygon points="146.51 248.97 142.83 246.97 142.83 242.58 146.51 244.58 146.51 248.97"/>
      <polygon points="166.88 211.04 163.2 209.03 163.21 204.65 166.89 206.65 166.88 211.04"/>
      <polygon class="cls-5" points="158.74 220.95 155.06 218.95 159.12 218.38 162.8 220.38 158.74 220.95"/>
      <polygon class="cls-5" points="179.12 183.01 175.44 181.01 179.5 180.44 183.19 182.44 179.12 183.01"/>
      <polygon class="cls-5" points="150.59 235.25 146.91 233.25 150.98 232.68 154.66 234.68 150.59 235.25"/>
      <polygon class="cls-4" points="170.96 201.7 167.28 199.7 167.29 195.31 170.97 197.31 170.96 201.7"/>
      <polygon class="cls-4" points="191.34 163.76 187.66 161.76 187.67 157.38 191.35 159.38 191.34 163.76"/>
      <polygon class="cls-4" points="154.67 230.29 150.99 228.28 151 223.9 154.67 225.9 154.67 230.29"/>
      <polygon points="175.04 192.36 171.36 190.35 171.37 185.97 175.05 187.97 175.04 192.36"/>
      <polygon points="175.05 187.97 171.37 185.97 175.43 185.4 179.11 187.4 175.05 187.97"/>
      <polygon points="146.52 240.2 142.84 238.2 146.9 237.63 150.58 239.63 146.52 240.2"/>
      <polygon points="146.51 244.58 142.83 242.58 142.84 238.2 146.52 240.2 146.51 244.58"/>
      <polygon points="162.81 216 162.8 220.38 158.74 220.95 158.75 216.57 162.81 216"/>
      <polygon points="158.75 216.57 155.07 214.57 159.13 214 162.81 216 158.75 216.57"/>
      <polygon points="158.74 220.95 155.06 218.95 155.07 214.57 158.75 216.57 158.74 220.95"/>
      <polygon class="cls-4" points="170.97 197.31 167.29 195.31 167.3 190.93 170.98 192.93 170.97 197.31"/>
      <polygon class="cls-4" points="142.44 249.54 138.76 247.54 138.77 243.15 142.45 245.16 142.44 249.54"/>
      <polygon class="cls-4" points="191.35 159.38 187.67 157.38 187.68 153 191.35 155 191.35 159.38"/>
      <polygon class="cls-5" points="162.83 207.22 159.15 205.22 163.21 204.65 166.89 206.65 162.83 207.22"/>
      <polygon class="cls-5" points="175.06 183.58 171.38 181.58 175.44 181.01 179.12 183.01 175.06 183.58"/>
      <polygon class="cls-5" points="146.53 235.82 142.85 233.82 146.91 233.25 150.59 235.25 146.53 235.82"/>
      <polygon class="cls-2" points="154.65 239.06 150.58 239.63 146.52 240.2 146.53 235.82 150.59 235.25 154.66 234.68 154.65 239.06"/>
      <polygon class="cls-4" points="146.52 240.2 142.84 238.2 142.85 233.82 146.53 235.82 146.52 240.2"/>
      <polygon class="cls-5" points="138.38 250.12 134.7 248.12 138.76 247.54 142.44 249.54 138.38 250.12"/>
      <polygon class="cls-4" points="158.75 216.57 155.07 214.57 155.08 210.18 158.76 212.18 158.75 216.57"/>
      <polygon points="150.61 226.48 146.93 224.47 151 223.9 154.67 225.9 150.61 226.48"/>
      <polygon class="cls-4" points="170.98 192.93 167.3 190.93 167.31 186.54 170.99 188.54 170.98 192.93"/>
      <polygon class="cls-4" points="142.45 245.16 138.77 243.15 138.78 238.77 142.46 240.77 142.45 245.16"/>
      <polygon class="cls-5" points="142.46 240.77 138.78 238.77 142.84 238.2 146.52 240.2 142.46 240.77"/>
      <polygon class="cls-4" points="191.35 155 187.68 153 187.68 148.6 191.36 150.61 191.35 155"/>
      <polygon class="cls-5" points="154.69 217.14 151.01 215.14 155.07 214.57 158.75 216.57 154.69 217.14"/>
      <polygon class="cls-4" points="154.68 221.52 151 219.52 151.01 215.14 154.69 217.14 154.68 221.52"/>
      <polygon points="146.53 235.82 142.85 233.82 142.86 229.43 146.54 231.43 146.53 235.82"/>
      <polygon points="138.38 250.12 134.7 248.12 134.71 243.72 138.39 245.73 138.38 250.12"/>
      <polygon class="cls-5" points="158.77 207.79 155.09 205.79 159.15 205.22 162.83 207.22 158.77 207.79"/>
      <polygon class="cls-4" points="158.76 212.18 155.08 210.18 155.09 205.79 158.77 207.79 158.76 212.18"/>
      <polygon class="cls-4" points="150.61 226.48 146.93 224.47 146.94 220.09 150.62 222.09 150.61 226.48"/>
      <polygon class="cls-5" points="150.62 222.09 146.94 220.09 151 219.52 154.68 221.52 150.62 222.09"/>
      <polygon class="cls-5" points="171 184.16 167.32 182.15 171.38 181.58 175.06 183.58 171 184.16"/>
      <polygon points="142.47 236.39 138.79 234.39 142.85 233.82 146.53 235.82 142.47 236.39"/>
      <polygon points="154.69 217.14 151.01 215.14 151.02 210.75 154.7 212.75 154.69 217.14"/>
      <polygon points="166.91 193.5 163.23 191.5 163.24 187.11 166.92 189.12 166.91 193.5"/>
      <polygon points="166.92 189.12 163.24 187.11 167.31 186.54 170.99 188.54 166.92 189.12"/>
      <polygon points="138.39 245.73 134.71 243.72 134.72 239.34 138.39 241.34 138.39 245.73"/>
      <polygon points="187.3 151.18 183.62 149.18 187.68 148.6 191.36 150.61 187.3 151.18"/>
      <polygon points="150.62 217.71 146.94 215.71 151.01 215.14 154.69 217.14 150.62 217.71"/>
      <polygon class="cls-5" points="142.48 232 138.8 230 142.86 229.43 146.54 231.43 142.48 232"/>
      <polygon class="cls-4" points="142.47 236.39 138.79 234.39 138.8 230 142.48 232 142.47 236.39"/>
      <polygon points="162.85 194.07 159.17 192.07 163.23 191.5 166.91 193.5 162.85 194.07"/>
      <polygon class="cls-4" points="134.32 250.69 130.64 248.69 130.65 244.3 134.33 246.3 134.32 250.69"/>
      <polygon points="183.23 156.14 179.55 154.14 183.62 153.57 187.29 155.57 183.23 156.14"/>
      <polygon class="cls-5" points="183.23 156.14 179.55 154.14 183.62 153.57 187.29 155.57 183.23 156.14"/>
      <polygon points="154.7 212.75 151.02 210.75 151.03 206.36 154.71 208.37 154.7 212.75"/>
      <polygon class="cls-5" points="166.93 184.73 163.25 182.72 167.32 182.15 171 184.16 166.93 184.73"/>
      <polygon points="138.39 241.34 134.72 239.34 134.72 234.96 138.4 236.96 138.39 241.34"/>
      <polygon points="162.84 202.84 158.78 203.41 158.78 199.02 162.84 198.45 162.84 202.84"/>
      <polygon points="158.78 199.02 155.1 197.02 159.16 196.45 162.84 198.45 158.78 199.02"/>
      <polygon class="cls-4" points="158.78 203.41 155.1 201.41 155.1 197.02 158.78 199.02 158.78 203.41"/>
      <polygon class="cls-5" points="158.78 199.02 155.1 197.02 159.16 196.45 162.84 198.45 158.78 199.02"/>
      <polygon points="158.78 203.41 155.1 201.41 155.1 197.02 158.78 199.02 158.78 203.41"/>
      <polygon class="cls-5" points="130.26 251.26 126.58 249.26 130.64 248.69 134.32 250.69 130.26 251.26"/>
      <polygon points="179.16 161.09 175.48 159.09 179.55 158.52 183.23 160.52 179.16 161.09"/>
      <polygon class="cls-5" points="179.16 161.09 175.48 159.09 179.55 158.52 183.23 160.52 179.16 161.09"/>
      <polygon class="cls-4" points="162.85 194.07 159.17 192.07 159.18 187.69 162.86 189.69 162.85 194.07"/>
      <polygon class="cls-4" points="134.33 246.3 130.65 244.3 130.65 239.91 134.33 241.91 134.33 246.3"/>
      <polygon points="183.24 151.75 179.56 149.75 183.62 149.18 187.3 151.18 183.24 151.75"/>
      <polygon points="146.56 222.66 142.88 220.66 142.88 216.28 146.56 218.28 146.56 222.66"/>
      <polygon points="146.56 218.28 142.88 216.28 146.94 215.71 150.62 217.71 146.56 218.28"/>
      <polygon points="138.4 236.96 134.72 234.96 134.73 230.57 138.41 232.57 138.4 236.96"/>
      <polygon class="cls-5" points="179.17 156.71 175.49 154.71 179.55 154.14 183.23 156.14 179.17 156.71"/>
      <polygon points="179.17 156.71 175.49 154.71 179.55 154.14 183.23 156.14 179.17 156.71"/>
      <polygon class="cls-5" points="150.64 208.94 146.96 206.94 151.03 206.36 154.71 208.37 150.64 208.94"/>
      <polygon class="cls-4" points="150.63 213.32 146.95 211.32 146.96 206.94 150.64 208.94 150.63 213.32"/>
      <polygon points="171.01 175.39 167.33 173.39 167.34 169 171.02 171.01 171.01 175.39"/>
      <polygon class="cls-4" points="171.01 175.39 167.33 173.39 167.34 169 171.02 171.01 171.01 175.39"/>
      <polygon points="142.49 223.23 138.81 221.23 142.88 220.66 146.56 222.66 142.49 223.23"/>
      <polygon points="142.49 227.62 138.81 225.62 138.81 221.23 142.49 223.23 142.49 227.62"/>
      <polygon class="cls-5" points="162.87 185.3 159.19 183.29 163.25 182.72 166.93 184.73 162.87 185.3"/>
      <polygon class="cls-4" points="134.33 241.91 130.65 239.91 130.66 235.53 134.34 237.53 134.33 241.91"/>
      <polygon points="154.72 203.98 151.03 201.98 151.04 197.59 154.72 199.59 154.72 203.98"/>
      <polygon class="cls-5" points="126.2 251.83 122.52 249.83 126.58 249.26 130.26 251.26 126.2 251.83"/>
      <polygon points="175.1 161.66 171.42 159.66 175.48 159.09 179.16 161.09 175.1 161.66"/>
      <polygon class="cls-5" points="175.1 161.66 171.42 159.66 175.48 159.09 179.16 161.09 175.1 161.66"/>
      <polygon class="cls-5" points="146.57 213.89 142.89 211.89 146.95 211.32 150.63 213.32 146.57 213.89"/>
      <polygon class="cls-4" points="166.94 180.34 163.26 178.34 163.27 173.96 166.95 175.96 166.94 180.34"/>
      <polygon points="166.94 180.34 163.26 178.34 163.27 173.96 166.95 175.96 166.94 180.34"/>
      <polygon points="138.41 232.57 134.73 230.57 134.74 226.19 138.42 228.19 138.41 232.57"/>
      <polygon points="138.42 228.19 134.74 226.19 138.81 225.62 142.49 227.62 138.42 228.19"/>
      <polygon points="183.11 221.91 187.17 221.34 187.16 225.72 183.1 226.29 183.09 230.68 179.03 231.25 179.02 235.63 183.09 235.06 183.08 239.44 183.07 243.84 179 244.41 174.94 244.98 170.88 245.55 166.81 246.12 166.82 241.73 162.76 242.3 158.7 242.87 158.69 247.26 154.63 247.83 154.64 243.44 150.57 244.01 150.57 248.4 146.51 248.97 146.51 244.58 146.52 240.2 150.58 239.63 154.65 239.06 154.66 234.68 150.59 235.25 146.53 235.82 146.54 231.43 142.48 232 142.47 236.39 146.53 235.82 146.52 240.2 142.46 240.77 142.45 245.16 142.44 249.54 138.38 250.12 138.39 245.73 138.39 241.34 138.4 236.96 138.41 232.57 138.42 228.19 142.49 227.62 142.49 223.23 146.56 222.66 146.56 218.28 150.62 217.71 154.69 217.14 154.68 221.52 150.62 222.09 150.61 226.48 154.67 225.9 154.67 230.29 158.73 229.72 158.74 225.33 162.8 224.76 162.79 229.15 166.85 228.57 166.84 232.97 170.91 232.39 170.9 236.78 174.96 236.21 174.97 231.82 170.91 232.39 170.91 228 170.92 223.62 174.98 223.05 174.99 218.67 175 214.28 179.06 213.71 183.13 213.14 183.12 217.53 183.11 221.91"/>
      <polygon points="158.8 190.26 155.12 188.26 159.18 187.69 162.86 189.69 158.8 190.26"/>
      <polygon points="158.79 194.64 155.11 192.64 155.12 188.26 158.8 190.26 158.79 194.64"/>
      <polygon points="179.18 152.32 175.5 150.32 179.56 149.75 183.24 151.75 179.18 152.32"/>
      <polygon points="150.65 204.56 146.97 202.55 151.03 201.98 154.72 203.98 150.65 204.56"/>
      <polygon points="171.02 171.01 167.34 169 167.35 164.62 171.03 166.62 171.02 171.01"/>
      <polygon class="cls-4" points="171.02 171.01 167.34 169 167.35 164.62 171.03 166.62 171.02 171.01"/>
      <polygon class="cls-4" points="142.49 223.23 138.81 221.23 138.82 216.85 142.5 218.85 142.49 223.23"/>
      <polygon points="162.87 185.3 159.19 183.29 159.2 178.91 162.88 180.91 162.87 185.3"/>
      <polygon class="cls-4" points="134.34 237.53 130.66 235.53 130.67 231.14 134.35 233.14 134.34 237.53"/>
      <polygon points="154.73 195.21 151.05 193.21 155.11 192.64 158.79 194.64 154.73 195.21"/>
      <polygon class="cls-5" points="175.11 157.28 171.43 155.28 175.49 154.71 179.17 156.71 175.11 157.28"/>
      <polygon points="175.11 157.28 171.43 155.28 175.49 154.71 179.17 156.71 175.11 157.28"/>
      <polygon points="166.95 175.96 163.27 173.96 163.27 169.58 166.95 171.58 166.95 175.96"/>
      <polygon class="cls-4" points="166.95 175.96 163.27 173.96 163.27 169.58 166.95 171.58 166.95 175.96"/>
      <polygon class="cls-5" points="138.43 223.81 134.75 221.8 138.81 221.23 142.49 223.23 138.43 223.81"/>
      <polygon class="cls-4" points="150.65 204.56 146.97 202.55 146.98 198.16 150.66 200.16 150.65 204.56"/>
      <polygon class="cls-5" points="150.66 200.16 146.98 198.16 151.04 197.59 154.72 199.59 150.66 200.16"/>
      <polygon class="cls-5" points="122.13 252.4 118.45 250.4 122.52 249.83 126.2 251.83 122.13 252.4"/>
      <polygon points="183.23 160.52 183.22 164.9 183.21 169.29 183.2 173.68 179.13 174.25 175.07 174.82 171.01 175.39 171.02 171.01 171.03 166.62 171.04 162.23 175.1 161.66 179.16 161.09 183.23 160.52"/>
      <polygon points="171.04 162.23 167.36 160.23 171.42 159.66 175.1 161.66 171.04 162.23"/>
      <polygon points="171.03 166.62 167.35 164.62 167.36 160.23 171.04 162.23 171.03 166.62"/>
      <polygon class="cls-5" points="171.04 162.23 167.36 160.23 171.42 159.66 175.1 161.66 171.04 162.23"/>
      <polygon class="cls-4" points="171.03 166.62 167.35 164.62 167.36 160.23 171.04 162.23 171.03 166.62"/>
      <polygon points="187.29 159.95 187.28 164.33 187.27 168.72 187.26 173.11 187.25 177.49 183.19 178.06 179.13 178.63 175.06 179.2 171 179.77 166.94 180.34 166.95 175.96 166.95 171.58 166.96 167.19 166.97 162.81 166.98 158.42 171.05 157.85 175.11 157.28 179.17 156.71 183.23 156.14 187.29 155.57 187.29 159.95"/>
      <polygon class="cls-6" points="179.17 156.71 183.23 156.14 187.29 155.57 187.29 159.95 187.28 164.33 187.27 168.72 187.26 173.11 187.25 177.49 183.19 178.06 179.13 178.63 175.06 179.2 171 179.77 166.94 180.34 166.95 175.96 166.95 171.58 166.96 167.19 166.97 162.81 166.98 158.42 171.05 157.85 175.11 157.28 179.17 156.71"/>
      <polygon class="cls-6" points="183.22 164.9 183.21 169.29 183.2 173.68 179.13 174.25 175.07 174.82 171.01 175.39 171.02 171.01 171.03 166.62 171.04 162.23 175.1 161.66 179.16 161.09 183.23 160.52 183.22 164.9"/>
      <polygon class="cls-4" points="142.5 218.85 138.82 216.85 138.83 212.46 142.51 214.46 142.5 218.85"/>
      <polygon class="cls-5" points="142.51 214.46 138.83 212.46 142.89 211.89 146.57 213.89 142.51 214.46"/>
      <polygon points="162.88 180.91 159.2 178.91 159.21 174.53 162.88 176.53 162.88 180.91"/>
      <polygon class="cls-4" points="134.35 233.14 130.67 231.14 130.68 226.76 134.36 228.76 134.35 233.14"/>
      <polygon class="cls-4" points="154.73 195.21 151.05 193.21 151.06 188.83 154.74 190.83 154.73 195.21"/>
      <polygon points="175.11 152.89 171.43 150.89 175.5 150.32 179.18 152.32 175.11 152.89"/>
      <polygon points="166.95 171.58 163.27 169.58 163.28 165.19 166.96 167.19 166.95 171.58"/>
      <polygon class="cls-4" points="166.95 171.58 163.27 169.58 163.28 165.19 166.96 167.19 166.95 171.58"/>
      <polygon points="138.43 223.81 134.75 221.8 134.75 217.42 138.44 219.42 138.43 223.81"/>
      <polygon class="cls-4" points="158.81 185.87 155.13 183.87 155.14 179.48 158.82 181.49 158.81 185.87"/>
      <polygon points="150.66 200.16 146.98 198.16 146.99 193.78 150.66 195.78 150.66 200.16"/>
      <polygon class="cls-5" points="171.05 157.85 167.37 155.85 171.43 155.28 175.11 157.28 171.05 157.85"/>
      <polygon points="171.05 157.85 167.37 155.85 171.43 155.28 175.11 157.28 171.05 157.85"/>
      <polygon points="162.88 176.53 159.21 174.53 159.21 170.15 162.89 172.15 162.88 176.53"/>
      <polygon class="cls-4" points="134.36 228.76 130.68 226.76 130.69 222.38 134.37 224.38 134.36 228.76"/>
      <polygon class="cls-5" points="154.75 186.44 151.07 184.44 155.13 183.87 158.81 185.87 154.75 186.44"/>
      <polygon points="146.59 205.13 142.91 203.12 142.92 198.73 146.59 200.74 146.59 205.13"/>
      <polygon points="146.59 200.74 142.92 198.73 146.98 198.16 150.66 200.16 146.59 200.74"/>
      <polygon class="cls-5" points="118.07 252.97 114.39 250.97 118.45 250.4 122.13 252.4 118.07 252.97"/>
      <polygon points="166.96 167.19 163.28 165.19 163.29 160.8 166.97 162.81 166.96 167.19"/>
      <polygon class="cls-4" points="166.96 167.19 163.28 165.19 163.29 160.8 166.97 162.81 166.96 167.19"/>
      <polygon points="138.44 219.42 134.75 217.42 134.76 213.03 138.44 215.03 138.44 219.42"/>
      <polygon points="150.66 195.78 146.99 193.78 146.99 189.4 150.67 191.4 150.66 195.78"/>
      <polygon points="150.67 191.4 146.99 189.4 151.06 188.83 154.74 190.83 150.67 191.4"/>
      <polygon points="171.05 153.46 167.37 151.46 171.43 150.89 175.11 152.89 171.05 153.46"/>
      <polygon points="142.52 210.08 138.84 208.08 138.85 203.69 142.53 205.7 142.52 210.08"/>
      <polygon points="142.53 205.7 138.85 203.69 142.91 203.12 146.59 205.13 142.53 205.7"/>
      <polygon points="162.89 172.15 159.21 170.15 159.22 165.76 162.9 167.76 162.89 172.15"/>
      <polygon class="cls-4" points="134.37 224.38 130.69 222.38 130.69 217.99 134.37 219.99 134.37 224.38"/>
      <polygon points="154.75 186.44 151.07 184.44 151.08 180.05 154.76 182.06 154.75 186.44"/>
      <polygon points="154.76 182.06 151.08 180.05 155.14 179.48 158.82 181.49 154.76 182.06"/>
      <polygon points="166.98 158.42 163.3 156.42 167.37 155.85 171.05 157.85 166.98 158.42"/>
      <polygon points="166.97 162.81 163.29 160.8 163.3 156.42 166.98 158.42 166.97 162.81"/>
      <polygon class="cls-5" points="166.98 158.42 163.3 156.42 167.37 155.85 171.05 157.85 166.98 158.42"/>
      <polygon class="cls-4" points="166.97 162.81 163.29 160.8 163.3 156.42 166.98 158.42 166.97 162.81"/>
      <polygon points="138.45 210.65 134.77 208.65 138.84 208.08 142.52 210.08 138.45 210.65"/>
      <polygon class="cls-4" points="158.82 177.1 155.15 175.1 155.15 170.72 158.83 172.72 158.82 177.1"/>
      <polygon class="cls-4" points="142.53 205.7 138.85 203.69 138.85 199.31 142.53 201.31 142.53 205.7"/>
      <polygon class="cls-5" points="114.01 253.54 110.33 251.54 114.39 250.97 118.07 252.97 114.01 253.54"/>
      <polygon points="162.9 167.76 159.22 165.76 159.23 161.37 162.91 163.38 162.9 167.76"/>
      <polygon class="cls-5" points="134.38 215.6 130.7 213.6 134.76 213.03 138.44 215.03 134.38 215.6"/>
      <polygon class="cls-4" points="154.76 182.06 151.08 180.05 151.08 175.67 154.76 177.67 154.76 182.06"/>
      <polygon class="cls-5" points="154.76 177.67 151.08 175.67 155.15 175.1 158.82 177.1 154.76 177.67"/>
      <polygon points="166.99 154.03 163.31 152.03 167.37 151.46 171.05 153.46 166.99 154.03"/>
      <polygon class="cls-5" points="138.46 206.27 134.78 204.27 138.85 203.69 142.53 205.7 138.46 206.27"/>
      <polygon class="cls-4" points="158.83 172.72 155.15 170.72 155.16 166.33 158.84 168.33 158.83 172.72"/>
      <polygon points="130.31 220.56 126.63 218.56 130.69 217.99 134.37 219.99 130.31 220.56"/>
      <polygon class="cls-4" points="150.68 187.01 147 185.01 147.01 180.63 150.69 182.63 150.68 187.01"/>
      <polygon class="cls-5" points="150.69 182.63 147.01 180.63 151.08 180.05 154.76 182.06 150.69 182.63"/>
      <polygon points="162.91 163.38 159.23 161.37 159.24 156.99 162.92 158.99 162.91 163.38"/>
      <polygon points="134.39 211.22 130.71 209.22 134.77 208.65 138.45 210.65 134.39 211.22"/>
      <polygon points="154.76 177.67 151.08 175.67 151.09 171.29 154.77 173.29 154.76 177.67"/>
      <polygon points="126.25 225.52 122.56 223.52 126.63 222.95 130.31 224.95 126.25 225.52"/>
      <polygon class="cls-5" points="126.25 225.52 122.56 223.52 126.63 222.95 130.31 224.95 126.25 225.52"/>
      <polygon class="cls-4" points="146.61 191.97 142.93 189.97 142.94 185.58 146.62 187.58 146.61 191.97"/>
      <polygon class="cls-5" points="146.62 187.58 142.94 185.58 147 185.01 150.68 187.01 146.62 187.58"/>
      <polygon points="138.47 201.88 134.79 199.88 138.85 199.31 142.53 201.31 138.47 201.88"/>
      <polygon class="cls-5" points="109.94 254.11 106.26 252.11 110.33 251.54 114.01 253.54 109.94 254.11"/>
      <polygon class="cls-4" points="158.84 168.33 155.16 166.33 155.17 161.94 158.85 163.95 158.84 168.33"/>
      <polygon class="cls-5" points="130.32 216.18 126.64 214.17 130.7 213.6 134.38 215.6 130.32 216.18"/>
      <polygon points="150.7 178.24 147.02 176.24 151.08 175.67 154.76 177.67 150.7 178.24"/>
      <polygon points="150.69 182.63 147.01 180.63 147.02 176.24 150.7 178.24 150.69 182.63"/>
      <polygon points="122.17 230.47 118.49 228.47 122.56 227.9 126.24 229.9 122.17 230.47"/>
      <polygon class="cls-5" points="122.17 230.47 118.49 228.47 122.56 227.9 126.24 229.9 122.17 230.47"/>
      <polygon class="cls-4" points="142.54 196.92 138.86 194.92 138.87 190.54 142.55 192.54 142.54 196.92"/>
      <polygon class="cls-5" points="142.55 192.54 138.87 190.54 142.93 189.97 146.61 191.97 142.55 192.54"/>
      <polygon points="162.92 158.99 159.24 156.99 159.25 152.6 162.93 154.6 162.92 158.99"/>
      <polygon points="162.93 154.6 159.25 152.6 163.31 152.03 166.99 154.03 162.93 154.6"/>
      <polygon class="cls-5" points="134.4 206.84 130.72 204.84 134.78 204.27 138.46 206.27 134.4 206.84"/>
      <polygon points="154.77 173.29 151.09 171.29 151.1 166.9 154.78 168.9 154.77 173.29"/>
      <polygon points="126.25 221.13 122.57 219.13 126.63 218.56 130.31 220.56 126.25 221.13"/>
      <polygon points="146.62 187.58 142.94 185.58 142.95 181.2 146.63 183.2 146.62 187.58"/>
      <polygon points="146.63 183.2 142.95 181.2 147.01 180.63 150.69 182.63 146.63 183.2"/>
      <polygon class="cls-5" points="138.48 197.5 134.8 195.49 138.86 194.92 142.54 196.92 138.48 197.5"/>
      <polygon class="cls-4" points="158.85 163.95 155.17 161.94 155.18 157.56 158.86 159.56 158.85 163.95"/>
      <polygon points="130.33 211.79 126.65 209.79 130.71 209.22 134.39 211.22 130.33 211.79"/>
      <polygon points="130.32 216.18 126.64 214.17 126.65 209.79 130.33 211.79 130.32 216.18"/>
      <polygon points="122.18 226.09 118.5 224.09 122.56 223.52 126.25 225.52 122.18 226.09"/>
      <polygon class="cls-5" points="122.18 226.09 118.5 224.09 122.56 223.52 126.25 225.52 122.18 226.09"/>
      <polygon points="142.55 192.54 138.87 190.54 138.88 186.15 142.56 188.15 142.55 192.54"/>
      <polygon points="146.62 187.58 146.61 191.97 142.55 192.54 142.56 188.15 146.62 187.58"/>
      <polygon points="142.56 188.15 138.88 186.15 142.94 185.58 146.62 187.58 142.56 188.15"/>
      <polygon points="114.02 244.77 110.34 242.77 110.35 238.38 114.03 240.39 114.02 244.77"/>
      <polygon class="cls-4" points="114.02 244.77 110.34 242.77 110.35 238.38 114.03 240.39 114.02 244.77"/>
      <polygon points="134.41 202.45 130.73 200.45 134.79 199.88 138.47 201.88 134.41 202.45"/>
      <polygon class="cls-5" points="105.88 254.68 102.2 252.68 106.26 252.11 109.94 254.11 105.88 254.68"/>
      <polygon points="118.11 231.04 114.43 229.04 118.49 228.47 122.17 230.47 118.11 231.04"/>
      <polygon class="cls-5" points="118.11 231.04 114.43 229.04 118.49 228.47 122.17 230.47 118.11 231.04"/>
      <polygon points="138.48 193.11 134.8 191.11 138.87 190.54 142.55 192.54 138.48 193.11"/>
      <polygon points="109.95 249.72 106.27 247.72 106.28 243.34 109.96 245.34 109.95 249.72"/>
      <polygon class="cls-4" points="109.95 249.72 106.27 247.72 106.28 243.34 109.96 245.34 109.95 249.72"/>
      <polygon class="cls-4" points="158.86 159.56 155.18 157.56 155.19 153.17 158.87 155.17 158.86 159.56"/>
      <polygon class="cls-5" points="130.34 207.41 126.66 205.41 130.72 204.84 134.4 206.84 130.34 207.41"/>
      <polygon class="cls-5" points="150.71 169.47 147.03 167.47 151.1 166.9 154.78 168.9 150.71 169.47"/>
      <polygon points="122.19 221.71 118.51 219.71 122.57 219.13 126.25 221.13 122.19 221.71"/>
      <polygon class="cls-4" points="142.56 188.15 138.88 186.15 138.89 181.77 142.57 183.77 142.56 188.15"/>
      <polygon points="114.03 240.39 110.35 238.38 110.36 234 114.04 236 114.03 240.39"/>
      <polygon class="cls-4" points="114.03 240.39 110.35 238.38 110.36 234 114.04 236 114.03 240.39"/>
      <polygon class="cls-5" points="134.41 198.07 130.74 196.06 134.8 195.49 138.48 197.5 134.41 198.07"/>
      <polygon points="105.88 254.68 102.2 252.68 102.21 248.29 105.89 250.29 105.88 254.68"/>
      <polygon class="cls-4" points="126.26 216.75 122.58 214.74 122.59 210.36 126.27 212.36 126.26 216.75"/>
      <polygon class="cls-4" points="146.64 178.81 142.96 176.81 142.97 172.43 146.64 174.43 146.64 178.81"/>
      <polygon class="cls-5" points="118.12 226.66 114.44 224.66 118.5 224.09 122.18 226.09 118.12 226.66"/>
      <polygon points="118.12 226.66 114.44 224.66 118.5 224.09 122.18 226.09 118.12 226.66"/>
      <polygon class="cls-5" points="138.49 188.72 134.81 186.72 138.88 186.15 142.56 188.15 138.49 188.72"/>
      <polygon class="cls-4" points="109.96 245.34 106.28 243.34 106.29 238.96 109.97 240.96 109.96 245.34"/>
      <polygon points="109.96 245.34 106.28 243.34 106.29 238.96 109.97 240.96 109.96 245.34"/>
      <polygon points="130.35 203.02 126.67 201.02 130.73 200.45 134.41 202.45 130.35 203.02"/>
      <polygon class="cls-5" points="122.19 217.32 118.52 215.31 122.58 214.74 126.26 216.75 122.19 217.32"/>
      <polygon class="cls-4" points="142.57 183.77 138.89 181.77 138.9 177.38 142.58 179.39 142.57 183.77"/>
      <polygon class="cls-5" points="142.58 179.39 138.9 177.38 142.96 176.81 146.64 178.81 142.58 179.39"/>
      <polygon points="114.04 236 110.36 234 110.37 229.61 114.05 231.61 114.04 236"/>
      <polygon class="cls-5" points="114.05 231.61 110.37 229.61 114.43 229.04 118.11 231.04 114.05 231.61"/>
      <polygon class="cls-4" points="114.04 236 110.36 234 110.37 229.61 114.05 231.61 114.04 236"/>
      <polygon points="109.97 240.96 106.29 238.96 106.29 234.57 109.97 236.57 109.97 240.96"/>
      <polygon class="cls-4" points="109.97 240.96 106.29 238.96 106.29 234.57 109.97 236.57 109.97 240.96"/>
      <polygon class="cls-5" points="114.06 227.23 110.38 225.23 114.44 224.66 118.12 226.66 114.06 227.23"/>
      <polygon points="114.06 227.23 110.38 225.23 114.44 224.66 118.12 226.66 114.06 227.23"/>
      <polygon points="109.97 236.57 106.29 234.57 106.3 230.18 109.98 232.19 109.97 236.57"/>
      <polygon class="cls-4" points="109.97 236.57 106.29 234.57 106.3 230.18 109.98 232.19 109.97 236.57"/>
      <polygon points="109.99 227.8 106.31 225.8 110.38 225.23 114.06 227.23 109.99 227.8"/>
      <polygon class="cls-5" points="109.99 227.8 106.31 225.8 110.38 225.23 114.06 227.23 109.99 227.8"/>
      <polygon class="cls-4" points="109.98 232.19 106.3 230.18 106.31 225.8 109.99 227.8 109.98 232.19"/>
      <polygon points="109.98 232.19 106.3 230.18 106.31 225.8 109.99 227.8 109.98 232.19"/>
      <polygon points="130.31 220.56 134.37 219.99 134.37 224.38 134.36 228.76 134.35 233.14 134.34 237.53 134.33 241.91 134.33 246.3 134.32 250.69 130.26 251.26 126.2 251.83 122.13 252.4 118.07 252.97 114.01 253.54 109.94 254.11 105.88 254.68 105.89 250.29 105.9 245.91 105.91 241.53 105.91 237.14 105.92 232.76 105.93 228.37 105.94 223.99 110 223.42 114.06 222.85 118.13 222.28 122.19 221.71 126.25 221.13 130.31 220.56"/>
      <polygon points="130.3 229.33 130.29 233.71 130.28 238.1 130.27 242.49 130.26 246.87 126.2 247.44 122.14 248.01 118.08 248.58 114.02 249.15 109.95 249.72 109.96 245.34 109.97 240.96 109.97 236.57 109.98 232.19 109.99 227.8 114.06 227.23 118.12 226.66 122.18 226.09 126.25 225.52 130.31 224.95 130.3 229.33"/>
      <polygon class="cls-2" points="122.18 226.09 126.25 225.52 130.31 224.95 130.3 229.33 130.29 233.71 130.28 238.1 130.27 242.49 130.26 246.87 126.2 247.44 122.14 248.01 118.08 248.58 114.02 249.15 109.95 249.72 109.96 245.34 109.97 240.96 109.97 236.57 109.98 232.19 109.99 227.8 114.06 227.23 118.12 226.66 122.18 226.09"/>
      <polygon class="cls-6" points="126.23 234.28 126.22 238.67 126.21 243.06 122.14 243.63 118.08 244.2 114.02 244.77 114.03 240.39 114.04 236 114.05 231.61 118.11 231.04 122.17 230.47 126.24 229.9 126.23 234.28"/>
      <polygon points="134.42 193.68 130.74 191.68 134.8 191.11 138.48 193.11 134.42 193.68"/>
      <polygon points="105.89 250.29 102.21 248.29 102.22 243.91 105.9 245.91 105.89 250.29"/>
      <polygon points="154.81 155.75 151.13 153.74 155.19 153.17 158.87 155.17 154.81 155.75"/>
      <polygon class="cls-5" points="126.28 207.98 122.6 205.98 126.66 205.41 130.34 207.41 126.28 207.98"/>
      <polygon class="cls-4" points="126.27 212.36 122.59 210.36 122.6 205.98 126.28 207.98 126.27 212.36"/>
      <polygon class="cls-4" points="146.64 174.43 142.97 172.43 142.97 168.04 146.65 170.04 146.64 174.43"/>
      <polygon class="cls-5" points="146.65 170.04 142.97 168.04 147.03 167.47 150.71 169.47 146.65 170.04"/>
      <polygon points="118.13 222.28 114.45 220.28 118.51 219.71 122.19 221.71 118.13 222.28"/>
      <polygon points="138.49 188.72 134.81 186.72 134.82 182.34 138.5 184.34 138.49 188.72"/>
      <polygon class="cls-5" points="130.35 198.64 126.67 196.63 130.74 196.06 134.41 198.07 130.35 198.64"/>
      <polygon class="cls-4" points="130.35 203.02 126.67 201.02 126.67 196.63 130.35 198.64 130.35 203.02"/>
      <polygon class="cls-4" points="150.72 165.09 147.04 163.09 147.05 158.71 150.73 160.71 150.72 165.09"/>
      <polygon class="cls-5" points="150.73 160.71 147.05 158.71 151.12 158.13 154.8 160.13 150.73 160.71"/>
      <polygon points="150.73 160.71 147.05 158.71 151.12 158.13 154.8 160.13 150.73 160.71"/>
      <polygon points="150.72 165.09 147.04 163.09 147.05 158.71 150.73 160.71 150.72 165.09"/>
      <polygon points="122.19 217.32 118.52 215.31 118.52 210.93 122.2 212.93 122.19 217.32"/>
      <polygon points="142.58 179.39 138.9 177.38 138.9 173 142.58 175 142.58 179.39"/>
      <polygon points="105.9 245.91 102.22 243.91 102.22 239.53 105.91 241.53 105.9 245.91"/>
      <polygon points="126.28 207.98 122.6 205.98 122.61 201.59 126.29 203.59 126.28 207.98"/>
      <polygon points="146.65 170.04 142.97 168.04 142.98 163.66 146.66 165.66 146.65 170.04"/>
      <polygon points="138.51 179.96 134.83 177.96 138.9 177.38 142.58 179.39 138.51 179.96"/>
      <polygon points="138.5 184.34 134.82 182.34 134.83 177.96 138.51 179.96 138.5 184.34"/>
      <polygon points="130.35 198.64 126.67 196.63 126.68 192.25 130.36 194.25 130.35 198.64"/>
      <polygon points="130.36 194.25 126.68 192.25 130.74 191.68 134.42 193.68 130.36 194.25"/>
      <polygon points="150.74 156.32 147.06 154.31 151.13 153.74 154.81 155.75 150.74 156.32"/>
      <polygon points="122.21 208.55 118.53 206.55 122.6 205.98 126.28 207.98 122.21 208.55"/>
      <polygon points="142.59 170.61 138.91 168.61 142.97 168.04 146.65 170.04 142.59 170.61"/>
      <polygon points="114.06 222.85 110.39 220.85 114.45 220.28 118.13 222.28 114.06 222.85"/>
      <polygon class="cls-4" points="134.43 189.29 130.75 187.29 130.76 182.91 134.44 184.91 134.43 189.29"/>
      <polygon points="105.91 241.53 102.22 239.53 102.23 235.14 105.91 237.14 105.91 241.53"/>
      <polygon points="126.29 199.21 122.61 197.21 126.67 196.63 130.35 198.64 126.29 199.21"/>
      <polygon class="cls-5" points="118.14 213.5 114.46 211.5 118.52 210.93 122.2 212.93 118.14 213.5"/>
      <polygon class="cls-4" points="118.13 217.89 114.45 215.89 114.46 211.5 118.14 213.5 118.13 217.89"/>
      <polygon class="cls-5" points="138.52 175.57 134.84 173.57 138.9 173 142.58 175 138.52 175.57"/>
      <polygon class="cls-5" points="130.37 189.86 126.69 187.86 130.75 187.29 134.43 189.29 130.37 189.86"/>
      <polygon class="cls-4" points="122.21 208.55 118.53 206.55 118.54 202.16 122.22 204.16 122.21 208.55"/>
      <polygon class="cls-5" points="122.22 204.16 118.54 202.16 122.61 201.59 126.29 203.59 122.22 204.16"/>
      <polygon points="122.22 204.16 118.54 202.16 118.55 197.78 122.23 199.78 122.22 204.16"/>
      <polygon class="cls-6" points="122.22 204.16 126.29 203.59 126.28 207.98 122.21 208.55 122.22 204.16"/>
      <polygon class="cls-5" points="142.6 166.23 138.92 164.23 142.98 163.66 146.66 165.66 142.6 166.23"/>
      <polygon class="cls-5" points="114.07 218.46 110.39 216.46 114.45 215.89 118.13 217.89 114.07 218.46"/>
      <polygon class="cls-4" points="134.44 184.91 130.76 182.91 130.77 178.53 134.45 180.53 134.44 184.91"/>
      <polygon points="105.91 237.14 102.23 235.14 102.24 230.75 105.92 232.76 105.91 237.14"/>
      <polygon class="cls-4" points="126.29 199.21 122.61 197.21 122.62 192.82 126.3 194.82 126.29 199.21"/>
      <polygon points="146.67 161.28 142.99 159.28 143 154.89 146.68 156.89 146.67 161.28"/>
      <polygon points="146.68 156.89 143 154.89 147.06 154.31 150.74 156.32 146.68 156.89"/>
      <polygon points="138.52 175.57 134.84 173.57 134.84 169.18 138.53 171.19 138.52 175.57"/>
      <polygon points="138.53 171.19 134.84 169.18 138.91 168.61 142.59 170.61 138.53 171.19"/>
      <polygon points="110 223.42 106.32 221.42 110.39 220.85 114.06 222.85 110 223.42"/>
      <polygon points="142.61 161.85 138.93 159.85 142.99 159.28 146.67 161.28 142.61 161.85"/>
      <polygon class="cls-4" points="134.45 180.53 130.77 178.53 130.78 174.14 134.46 176.15 134.45 180.53"/>
      <polygon points="105.92 232.76 102.24 230.75 102.25 226.37 105.93 228.37 105.92 232.76"/>
      <polygon class="cls-5" points="126.31 190.44 122.63 188.43 126.69 187.86 130.37 189.86 126.31 190.44"/>
      <polygon points="118.16 204.73 114.48 202.73 118.54 202.16 122.22 204.16 118.16 204.73"/>
      <polygon class="cls-5" points="138.53 166.8 134.85 164.8 138.92 164.23 142.6 166.23 138.53 166.8"/>
      <polygon class="cls-5" points="110.01 219.03 106.33 217.03 110.39 216.46 114.07 218.46 110.01 219.03"/>
      <polygon points="122.23 195.4 118.56 193.4 122.62 192.82 126.3 194.82 122.23 195.4"/>
      <polygon class="cls-4" points="134.46 176.15 130.78 174.14 130.78 169.75 134.46 171.76 134.46 176.15"/>
      <polygon points="105.94 223.99 102.26 221.99 106.32 221.42 110 223.42 105.94 223.99"/>
      <polygon points="105.93 228.37 102.25 226.37 102.26 221.99 105.94 223.99 105.93 228.37"/>
      <polygon class="cls-5" points="118.17 200.35 114.49 198.35 118.55 197.78 122.23 199.78 118.17 200.35"/>
      <polygon class="cls-4" points="118.16 204.73 114.48 202.73 114.49 198.35 118.17 200.35 118.16 204.73"/>
      <polygon points="138.54 162.42 134.86 160.42 138.93 159.85 142.61 161.85 138.54 162.42"/>
      <polygon points="138.53 166.8 134.85 164.8 134.86 160.42 138.54 162.42 138.53 166.8"/>
      <polygon points="110.01 219.03 106.33 217.03 106.33 212.65 110.01 214.65 110.01 219.03"/>
      <polygon class="cls-5" points="122.24 191.01 118.56 189 122.63 188.43 126.31 190.44 122.24 191.01"/>
      <polygon class="cls-4" points="134.46 171.76 130.78 169.75 130.79 165.37 134.47 167.37 134.46 171.76"/>
      <polygon points="118.17 195.97 114.5 193.97 118.56 193.4 122.23 195.4 118.17 195.97"/>
      <polygon points="114.1 205.3 110.42 203.3 110.43 198.92 114.11 200.92 114.1 205.3"/>
      <polygon class="cls-4" points="134.47 167.37 130.79 165.37 130.8 160.99 134.48 162.99 134.47 167.37"/>
      <polygon class="cls-5" points="105.95 215.22 102.27 213.22 106.33 212.65 110.01 214.65 105.95 215.22"/>
      <polygon class="cls-5" points="118.18 191.58 114.5 189.57 118.56 189 122.24 191.01 118.18 191.58"/>
      <polygon points="110.03 205.88 106.35 203.87 110.42 203.3 114.1 205.3 110.03 205.88"/>
      <polygon points="114.11 196.54 110.43 194.54 114.5 193.97 118.17 195.97 114.11 196.54"/>
      <polygon class="cls-4" points="134.48 162.99 130.8 160.99 130.81 156.6 134.49 158.6 134.48 162.99"/>
      <polygon points="105.95 215.22 102.27 213.22 102.28 208.83 105.96 210.84 105.95 215.22"/>
      <polygon class="cls-5" points="110.04 201.49 106.36 199.49 110.43 198.92 114.11 200.92 110.04 201.49"/>
      <polygon class="cls-5" points="114.12 192.15 110.44 190.15 114.5 189.57 118.18 191.58 114.12 192.15"/>
      <polygon points="105.97 206.44 102.29 204.44 106.35 203.87 110.03 205.88 105.97 206.44"/>
      <polygon points="105.96 210.84 102.28 208.83 102.29 204.44 105.97 206.44 105.96 210.84"/>
      <polygon points="110.05 197.11 106.37 195.11 110.43 194.54 114.11 196.54 110.05 197.11"/>
      <polygon points="130.43 159.17 126.75 157.17 130.81 156.6 134.49 158.6 130.43 159.17"/>
      <polygon class="cls-5" points="105.98 202.06 102.3 200.06 106.36 199.49 110.04 201.49 105.98 202.06"/>
      <polygon points="126.36 164.13 122.68 162.13 126.74 161.56 130.42 163.56 126.36 164.13"/>
      <polygon class="cls-5" points="126.36 164.13 122.68 162.13 126.74 161.56 130.42 163.56 126.36 164.13"/>
      <polygon class="cls-5" points="110.06 192.72 106.38 190.72 110.44 190.15 114.12 192.15 110.06 192.72"/>
      <polygon points="122.28 169.09 118.6 167.08 122.67 166.51 126.35 168.51 122.28 169.09"/>
      <polygon class="cls-5" points="122.28 169.09 118.6 167.08 122.67 166.51 126.35 168.51 122.28 169.09"/>
      <polygon points="105.98 202.06 102.3 200.06 102.31 195.68 105.99 197.68 105.98 202.06"/>
      <polygon points="105.99 197.68 102.31 195.68 106.37 195.11 110.05 197.11 105.99 197.68"/>
      <polygon points="126.37 159.74 122.69 157.74 126.75 157.17 130.43 159.17 126.37 159.74"/>
      <polygon points="122.29 164.7 118.61 162.7 122.68 162.13 126.36 164.13 122.29 164.7"/>
      <polygon class="cls-5" points="122.29 164.7 118.61 162.7 122.68 162.13 126.36 164.13 122.29 164.7"/>
      <polygon points="114.14 183.38 110.46 181.38 110.47 177 114.15 179 114.14 183.38"/>
      <polygon class="cls-4" points="114.14 183.38 110.46 181.38 110.47 177 114.15 179 114.14 183.38"/>
      <polygon class="cls-5" points="105.99 193.29 102.31 191.29 106.38 190.72 110.06 192.72 105.99 193.29"/>
      <polygon points="118.22 169.66 114.54 167.66 118.6 167.08 122.28 169.09 118.22 169.66"/>
      <polygon class="cls-5" points="118.22 169.66 114.54 167.66 118.6 167.08 122.28 169.09 118.22 169.66"/>
      <polygon points="110.06 188.34 106.38 186.34 106.39 181.95 110.07 183.95 110.06 188.34"/>
      <polygon class="cls-4" points="110.06 188.34 106.38 186.34 106.39 181.95 110.07 183.95 110.06 188.34"/>
      <polygon points="122.3 160.31 118.62 158.31 122.69 157.74 126.37 159.74 122.3 160.31"/>
      <polygon points="114.15 179 110.47 177 110.47 172.61 114.16 174.61 114.15 179"/>
      <polygon class="cls-4" points="114.15 179 110.47 177 110.47 172.61 114.15 174.61 114.15 179"/>
      <polygon points="105.99 193.29 102.31 191.29 102.32 186.91 106 188.91 105.99 193.29"/>
      <polygon class="cls-5" points="118.23 165.27 114.55 163.27 118.61 162.7 122.29 164.7 118.23 165.27"/>
      <polygon points="118.23 165.27 114.55 163.27 118.61 162.7 122.29 164.7 118.23 165.27"/>
      <polygon class="cls-4" points="110.07 183.95 106.39 181.95 106.4 177.57 110.08 179.57 110.07 183.95"/>
      <polygon points="110.07 183.95 106.39 181.95 106.4 177.57 110.08 179.57 110.07 183.95"/>
      <polygon points="114.16 174.61 110.47 172.61 110.48 168.22 114.16 170.23 114.16 174.61"/>
      <polygon points="114.16 170.23 110.48 168.22 114.54 167.66 118.22 169.66 114.16 170.23"/>
      <polygon points="126.35 168.51 126.34 172.9 126.33 177.29 126.33 181.67 122.26 182.24 118.2 182.81 114.14 183.38 114.15 179 114.16 174.61 114.16 170.23 118.22 169.66 122.28 169.09 126.35 168.51"/>
      <polygon class="cls-5" points="114.16 170.23 110.48 168.22 114.54 167.66 118.22 169.66 114.16 170.23"/>
      <polygon class="cls-4" points="114.15 174.61 110.47 172.61 110.48 168.22 114.16 170.23 114.15 174.61"/>
      <polygon points="106 188.91 102.32 186.91 102.33 182.52 106.01 184.53 106 188.91"/>
      <polygon points="118.24 160.88 114.56 158.88 118.62 158.31 122.3 160.31 118.24 160.88"/>
      <polygon points="110.08 179.57 106.4 177.57 106.41 173.18 110.09 175.18 110.08 179.57"/>
      <polygon class="cls-4" points="110.08 179.57 106.4 177.57 106.41 173.18 110.09 175.18 110.08 179.57"/>
      <polygon points="114.17 165.84 110.49 163.84 114.55 163.27 118.23 165.27 114.17 165.84"/>
      <polygon class="cls-5" points="114.17 165.84 110.49 163.84 114.55 163.27 118.23 165.27 114.17 165.84"/>
      <polygon points="106.01 184.53 102.33 182.52 102.34 178.14 106.02 180.14 106.01 184.53"/>
      <polygon class="cls-4" points="110.09 175.18 106.41 173.18 106.42 168.8 110.1 170.8 110.09 175.18"/>
      <polygon points="110.09 175.18 106.41 173.18 106.42 168.8 110.1 170.8 110.09 175.18"/>
      <polygon points="114.18 161.46 110.5 159.45 114.56 158.88 118.24 160.88 114.18 161.46"/>
      <polygon points="106.02 180.14 102.34 178.14 102.35 173.75 106.03 175.75 106.02 180.14"/>
      <polygon points="110.1 170.8 106.42 168.8 106.42 164.41 110.1 166.42 110.1 170.8"/>
      <polygon points="110.1 166.42 106.42 164.41 110.49 163.84 114.17 165.84 110.1 166.42"/>
      <polygon class="cls-4" points="110.1 170.8 106.42 168.8 106.42 164.41 110.1 166.42 110.1 170.8"/>
      <polygon class="cls-5" points="110.1 166.42 106.42 164.41 110.49 163.84 114.17 165.84 110.1 166.42"/>
      <polygon points="106.03 175.75 102.35 173.75 102.36 169.37 106.03 171.37 106.03 175.75"/>
      <polygon points="110.11 162.03 106.43 160.02 110.5 159.45 114.18 161.46 110.11 162.03"/>
      <polygon points="106.03 171.37 102.36 169.37 102.36 164.99 106.04 166.99 106.03 171.37"/>
      <polygon points="106.05 162.6 102.37 160.59 106.43 160.02 110.11 162.03 106.05 162.6"/>
      <polygon points="106.04 166.99 102.36 164.99 102.37 160.59 106.05 162.6 106.04 166.99"/>
      <path class="cls-2" d="M89.83,147.34,89.6,274.51,207.41,258l.23-127.16ZM106,188.91V162.6l4.06-.57,4.07-.58,4.06-.57,4.06-.57,4.07-.57,4.06-.57,4.06-.57v30.69l-4.06.57-4.06.57-4.07.58-4.06.57-4.06.57-4.07.57-4.06.57v-4.38m28.37,35.47v26.31l-4.06.57-4.06.57-4.07.57-4.06.57-4.06.57-4.07.57-4.06.57V224l4.06-.57,4.06-.57,4.07-.57,4.06-.57,4.06-.57,4.06-.58,4.06-.57v4.39m48.73,6.3-4.07.57v4.38l4.07-.57v8.78l-4.07.57-4.06.57-4.06.57-4.06.57v-4.39l-4.06.57-4.06.57v4.39l-4.06.57v-4.39l-4.07.57v4.39l-4.06.57V240.2l-4.06.57v8.78l-4.07.57V228.19l4.07-.57v-4.39l-4.06.58V215l-4.06.57-4.06.57v-4.38l4.06-.57,4.06-.57,4.07-.57V205.7l-4.07.57-4.06.57-4.06.57-4.06.57v8.77l-4.07.57v-4.39l-4.06.58v4.38l-4.06.57L110,219v-4.38l-4.06.57v-8.77l4.06-.58,4.07-.57v-4.38l-4.07.57-4.06.57v-4.38l4.06-.57,4.06-.57,4.06-.57,4.06-.57,4.07-.58v4.39l4.06-.57v-4.39l4.06-.57,4.06-.57,4.07-.57v-4.39l-4.07.57V180l4.07-.57V175l-4.06.57v-4.39l4.07-.57,4.06-.57v-4.38l-4.06.57-4.07.57v-4.38l4.07-.57,4.06-.57v-4.39l4.06-.57,4.06-.57,4.07-.58V177.1l-4.06.57v4.39l4.06-.57v4.38l-4.06.57v-4.38l-4.07.57V187l-4.06.57V192l-4.06.57v4.38l-4.06.58-4.06.57-4.07.57V203l4.06-.57,4.06-.57,4.06-.57v4.39l4.06-.57v-4.39l4.06-.57V191.4l4.07-.57v4.38l4.06-.57v-4.38l4.06-.57v4.38l4.06-.57v-4.38l4.07-.58v26.31l-4.07.58v-8.78l-4.06.57-4.06.58v8.77l4.06-.57v4.38l-4.06.57v-4.38l-4.06.57v4.38l-4.06.57v4.39l4.06-.58v4.39l4.06-.57v-4.39l4.07-.57v4.39l4.06-.58V233l4.07-.57v-8.77l-4.06.57v-4.38l4.07-.57v4.38l4.06-.57v-8.77l4.06-.57,4.07-.57v8.77l4.06-.57v4.38l-4.06.57v4.39m8.1,7.62-4.06.57v-4.38l4.06-.57v4.38m.05-26.3v4.38l-4.06.57v-8.77l4.06-.57V212m0-8.77-4.07.57-4.06.57V195.6l-4.07.57v8.77l-4.06.57V188l4.06-.57v4.39l4.07-.58v-4.38l4.06-.57v4.38l-4.06.57v4.39l4.06-.57v4.39l4.06-.57v4.38m.08-48.23v26.3l-4.06.57-4.06.57-4.07.57-4.06.57-4.06.57-4.07.58-4.06.57V154.6L167,154l4.06-.57,4.06-.57,4.06-.57,4.07-.57,4.06-.57,4.06-.57V155"/>
      <polygon points="191.21 233.92 191.2 238.3 187.14 238.88 187.15 234.49 191.21 233.92"/>
      <polygon points="191.26 207.61 191.25 212 191.24 216.38 187.18 216.95 187.19 212.57 187.2 208.18 191.26 207.61"/>
      <polygon class="cls-6" points="174.96 236.21 170.9 236.78 170.91 232.39 174.97 231.82 174.96 236.21"/>
      <polygon points="187.22 195.03 187.21 199.42 191.27 198.84 191.27 203.23 187.21 203.8 183.14 204.37 183.15 199.99 183.16 195.6 187.22 195.03"/>
      <polygon points="170.93 219.24 170.92 223.62 166.86 224.19 166.86 219.81 170.93 219.24"/>
      <polygon class="cls-6" points="158.71 238.49 158.72 234.11 162.78 233.53 162.77 237.92 158.71 238.49"/>
      <polygon points="162.77 237.92 158.71 238.49 158.72 234.11 162.78 233.53 162.77 237.92"/>
      <polygon points="179.11 187.4 179.1 191.79 183.17 191.21 183.16 195.6 179.09 196.17 179.09 200.56 179.08 204.94 175.02 205.51 175.03 201.13 175.03 196.74 175.04 192.36 175.05 187.97 179.11 187.4"/>
      <polygon class="cls-2" points="142.48 232 146.54 231.43 146.53 235.82 142.47 236.39 142.48 232"/>
      <polygon class="cls-6" points="162.84 198.45 162.84 202.84 158.78 203.41 158.78 199.02 162.84 198.45"/>
      <polygon class="cls-2" points="154.72 203.98 150.65 204.56 150.66 200.16 154.72 199.59 154.72 203.98"/>
      <polygon class="cls-2" points="146.56 218.28 146.56 222.66 142.49 223.23 142.5 218.85 142.51 214.46 146.57 213.89 150.63 213.32 150.64 208.94 154.71 208.37 154.7 212.75 154.69 217.14 150.62 217.71 146.56 218.28"/>
      <polygon points="158.82 181.49 158.81 185.87 154.75 186.44 154.76 182.06 158.82 181.49"/>
      <polygon points="154.76 177.67 154.76 182.06 150.69 182.63 150.7 178.24 154.76 177.67"/>
      <polygon points="187.3 151.18 191.36 150.61 191.35 155 191.35 159.38 191.34 163.76 191.33 168.15 191.32 172.53 191.31 176.92 191.31 181.3 187.25 181.87 183.19 182.44 179.12 183.01 175.06 183.58 171 184.16 166.93 184.73 162.87 185.3 162.88 180.91 162.88 176.53 162.89 172.15 162.9 167.76 162.91 163.38 162.92 158.99 162.93 154.6 166.99 154.03 171.05 153.46 175.11 152.89 179.18 152.32 183.24 151.75 187.3 151.18"/>
      <polygon points="150.69 182.63 150.68 187.01 146.62 187.58 146.63 183.2 150.69 182.63"/>
      <polygon points="126.3 194.82 126.29 199.21 130.35 198.64 130.35 203.02 134.41 202.45 138.47 201.88 142.53 201.31 142.53 205.7 138.46 206.27 134.4 206.84 130.34 207.41 126.28 207.98 126.29 203.59 122.22 204.16 122.23 199.78 118.17 200.35 118.16 204.73 122.22 204.16 122.21 208.55 126.28 207.98 126.27 212.36 126.26 216.75 122.19 217.32 122.2 212.93 118.14 213.5 118.13 217.89 114.07 218.46 110.01 219.03 110.01 214.65 105.95 215.22 105.96 210.84 105.97 206.44 110.03 205.88 114.1 205.3 114.11 200.92 110.04 201.49 105.98 202.06 105.99 197.68 110.05 197.11 114.11 196.54 118.17 195.97 122.23 195.4 126.3 194.82"/>
      <polygon points="166.92 189.12 170.99 188.54 170.98 192.93 170.97 197.31 170.96 201.7 170.96 206.08 170.95 210.47 170.94 214.85 166.87 215.43 166.88 211.04 166.89 206.65 162.83 207.22 158.77 207.79 158.76 212.18 158.75 216.57 154.69 217.14 154.7 212.75 154.71 208.37 150.64 208.94 150.63 213.32 146.57 213.89 142.51 214.46 142.5 218.85 142.49 223.23 138.43 223.81 138.44 219.42 138.44 215.03 134.38 215.6 130.32 216.18 130.33 211.79 134.39 211.22 138.45 210.65 142.52 210.08 142.53 205.7 146.59 205.13 146.59 200.74 150.66 200.16 150.65 204.56 154.72 203.98 154.72 199.59 150.66 200.16 150.66 195.78 150.67 191.4 154.74 190.83 154.73 195.21 158.79 194.64 158.8 190.26 162.86 189.69 162.85 194.07 166.91 193.5 166.92 189.12"/>
      <polygon points="126.24 229.9 126.23 234.28 126.22 238.67 126.21 243.06 122.15 243.63 118.08 244.2 114.02 244.77 114.03 240.39 114.04 236 114.05 231.61 118.11 231.04 122.17 230.47 126.24 229.9"/>
      <polygon class="cls-2" points="146.63 183.2 146.62 187.58 142.56 188.15 142.57 183.77 142.58 179.39 146.64 178.81 146.64 174.43 146.65 170.04 150.71 169.47 154.78 168.9 154.77 173.29 154.76 177.67 150.7 178.24 150.69 182.63 146.63 183.2"/>
      <polygon class="cls-6" points="154.8 160.13 154.79 164.52 150.72 165.09 150.73 160.71 154.8 160.13"/>
      <polygon points="154.79 164.52 150.72 165.09 150.73 160.71 154.8 160.13 154.79 164.52"/>
      <polygon points="142.58 179.39 142.57 183.77 142.56 188.15 138.49 188.72 138.5 184.34 138.51 179.96 142.58 179.39"/>
      <polygon points="142.55 192.54 142.54 196.92 138.48 197.5 134.41 198.07 130.35 198.64 130.36 194.25 134.42 193.68 138.48 193.11 142.55 192.54"/>
      <polygon points="146.65 170.04 146.64 174.43 146.64 178.81 142.58 179.39 142.58 175 138.52 175.57 138.53 171.19 142.59 170.61 146.65 170.04"/>
      <polygon class="cls-6" points="118.17 200.35 122.23 199.78 122.22 204.16 118.16 204.73 118.17 200.35"/>
      <polygon points="154.81 155.75 158.87 155.17 158.86 159.56 158.85 163.95 158.84 168.33 158.83 172.72 158.82 177.1 154.76 177.67 154.77 173.29 154.78 168.9 150.71 169.47 146.65 170.04 146.66 165.66 142.6 166.23 138.53 166.8 138.54 162.42 142.61 161.85 146.67 161.28 146.68 156.89 150.74 156.32 154.81 155.75"/>
      <polygon points="130.41 167.94 130.4 172.33 130.4 176.72 130.39 181.1 130.38 185.48 126.32 186.05 122.25 186.62 118.19 187.19 114.13 187.76 110.06 188.34 110.07 183.95 110.08 179.57 110.09 175.18 110.1 170.8 110.1 166.42 114.17 165.84 118.23 165.27 122.29 164.7 126.36 164.13 130.42 163.56 130.41 167.94"/>
      <polygon class="cls-6" points="118.19 187.19 114.13 187.76 110.06 188.34 110.07 183.95 110.08 179.57 110.09 175.18 110.1 170.8 110.1 166.42 114.17 165.84 118.23 165.27 122.29 164.7 126.36 164.13 130.42 163.56 130.41 167.94 130.4 172.33 130.4 176.72 130.39 181.1 130.38 185.48 126.32 186.05 122.25 186.62 118.19 187.19"/>
      <polygon class="cls-6" points="114.15 179 114.15 174.61 114.16 170.23 118.22 169.66 122.28 169.09 126.35 168.51 126.34 172.9 126.33 177.29 126.33 181.67 122.26 182.24 118.2 182.81 114.14 183.38 114.15 179"/>
      <polygon points="130.43 159.17 134.49 158.6 134.48 162.99 134.47 167.37 134.46 171.76 134.46 176.15 134.45 180.53 134.44 184.91 134.43 189.29 130.37 189.86 126.31 190.44 122.24 191.01 118.18 191.58 114.12 192.15 110.06 192.72 105.99 193.29 106 188.91 106.01 184.53 106.02 180.14 106.03 175.75 106.03 171.37 106.04 166.99 106.05 162.6 110.11 162.03 114.18 161.46 118.24 160.88 122.3 160.31 126.37 159.74 130.43 159.17"/>
    </g>
    <g>
      <g class="cls-7">
        <g>
          <path class="cls-8" d="M284.28,332.5,279,329.63a13.5697,13.5697,0,0,0,3.78-1.16l5.27,2.87a13.36979,13.36979,0,0,1-3.78,1.16"/>
          <path class="cls-9" d="M288.06,331.34l-5.27-2.87a15.19,15.19,0,0,0,2.14-1.23l5.27,2.87a14.63927,14.63927,0,0,1-2.14,1.23"/>
          <path class="cls-10" d="M290.2,330.11l-5.27-2.87A15.54112,15.54112,0,0,0,286.5,326l5.28,2.87a15.658,15.658,0,0,1-1.58,1.24"/>
          <path class="cls-11" d="M291.78,328.87,286.5,326a14.72906,14.72906,0,0,0,1.3-1.32l5.28,2.87a16.224,16.224,0,0,1-1.3,1.32"/>
          <path class="cls-12" d="M293.08,327.55l-5.28-2.87a15.78051,15.78051,0,0,0,1.13-1.43l5.28,2.87a15.7819,15.7819,0,0,1-1.13,1.43"/>
          <path class="cls-13" d="M294.21,326.12l-5.28-2.87a15.36168,15.36168,0,0,0,1-1.64l5.28,2.87a17.16707,17.16707,0,0,1-1,1.64"/>
          <path class="cls-14" d="M295.22,324.48l-5.28-2.87a13.99851,13.99851,0,0,0,.92-2.05l5.28,2.87a16.42878,16.42878,0,0,1-.92,2.05"/>
          <path class="cls-15" d="M296.14,322.43l-5.28-2.87a14.64987,14.64987,0,0,0,.92-5.09l5.28,2.87a14.89075,14.89075,0,0,1-.92,5.09"/>
        </g>
      </g>
      <polygon class="cls-16" points="185.58 347.36 180.3 344.49 279.01 329.63 284.28 332.5 185.58 347.36"/>
      <g class="cls-17">
        <g>
          <path class="cls-10" d="M178.56,346.17l-5.28-2.87.39.2,5.27,2.87-.38-.2"/>
          <path class="cls-9" d="M178.94,346.37l-5.27-2.87a10.2691,10.2691,0,0,0,2.05.76l5.28,2.87a10.36037,10.36037,0,0,1-2.06-.76"/>
          <path class="cls-8" d="M181,347.13l-5.28-2.87a11.61967,11.61967,0,0,0,4.58.23l5.28,2.87a11.61,11.61,0,0,1-4.58-.23"/>
        </g>
      </g>
      <g class="cls-18">
        <path class="cls-19" d="M178.54,346.14l-5.27-2.87a11.23,11.23,0,0,1-5.69-10.1l5.28,2.87a11.2,11.2,0,0,0,5.68,10.1"/>
      </g>
      <g class="cls-20">
        <path class="cls-15" d="M176.19,350.15l-5.28-2.87a15,15,0,0,1-7.59-13.47l5.27,2.87a15,15,0,0,0,7.6,13.47"/>
      </g>
      <polygon class="cls-21" points="297.06 317.34 291.78 314.47 291.06 93.53 296.33 96.4 297.06 317.34"/>
      <g class="cls-22">
        <path class="cls-15" d="M296.33,96.4l-5.27-2.87a11.3,11.3,0,0,0-5.7-10.14l5.28,2.87a11.27,11.27,0,0,1,5.69,10.14"/>
      </g>
      <g class="cls-23">
        <g>
          <path class="cls-24" d="M283.49,85.09l-5.28-2.87a12.00008,12.00008,0,0,1,4.7.24l5.28,2.87a11.99989,11.99989,0,0,0-4.7-.24"/>
          <path class="cls-25" d="M288.19,85.33l-5.28-2.87a10.54018,10.54018,0,0,1,2.08.76l5.28,2.87a10.78034,10.78034,0,0,0-2.08-.76"/>
          <path class="cls-26" d="M290.27,86.09,285,83.22l.38.2,5.28,2.87-.38-.2"/>
        </g>
      </g>
      <g class="cls-27">
        <g>
          <path class="cls-8" d="M283.48,80.68l-5.28-2.87a16.14988,16.14988,0,0,1,6.24.31L289.72,81a16.14988,16.14988,0,0,0-6.24-.31"/>
          <path class="cls-9" d="M289.72,81l-5.28-2.87a14.67952,14.67952,0,0,1,2.78,1L292.49,82a14.34047,14.34047,0,0,0-2.77-1"/>
          <path class="cls-10" d="M292.49,82l-5.27-2.87c.17.09.34.17.51.27L293,82.29c-.17-.1-.34-.18-.52-.27"/>
        </g>
      </g>
      <polygon class="cls-5" points="263.15 88.15 257.87 85.28 278.21 82.22 283.49 85.09 263.15 88.15"/>
      <g class="cls-28">
        <g>
          <path class="cls-19" d="M259,95.16l-5.27-2.87a7,7,0,0,0,.42-2.36,4.72015,4.72015,0,0,1,.3-1.72l5.27,2.87a5.18027,5.18027,0,0,0-.3,1.72,6.5304,6.5304,0,0,1-.42,2.36"/>
          <path class="cls-29" d="M259.74,91.08l-5.27-2.87a4.45876,4.45876,0,0,1,.28-.63L260,90.45a6.00107,6.00107,0,0,0-.29.63"/>
          <path class="cls-30" d="M260,90.45l-5.28-2.87a3.88021,3.88021,0,0,1,.3-.48l5.31,2.9a3.87776,3.87776,0,0,0-.3.48"/>
          <path class="cls-31" d="M260.33,90l-5.28-2.87a3.38925,3.38925,0,0,1,.33-.42l5.27,2.87a4.63408,4.63408,0,0,0-.32.42"/>
          <path class="cls-32" d="M260.65,89.55l-5.27-2.87a4.312,4.312,0,0,1,.37-.37L261,89.18a4.31207,4.31207,0,0,0-.37.37"/>
          <path class="cls-26" d="M261,89.18l-5.27-2.87a3.54976,3.54976,0,0,1,.44-.35l5.28,2.87a3.63924,3.63924,0,0,0-.45.35"/>
          <path class="cls-25" d="M261.47,88.83,256.19,86a5.202,5.202,0,0,1,.6-.35l5.28,2.87a4.4789,4.4789,0,0,0-.6.35"/>
          <path class="cls-24" d="M262.07,88.48l-5.28-2.87a4.21012,4.21012,0,0,1,1.08-.33l5.28,2.87a4,4,0,0,0-1.08.33"/>
        </g>
      </g>
      <g class="cls-33">
        <g>
          <path class="cls-24" d="M253.57,99.78l-5.27-2.87a6.26056,6.26056,0,0,0,1.74-.53l5.27,2.87a6.16,6.16,0,0,1-1.74.53"/>
          <path class="cls-25" d="M255.31,99.25,250,96.38a6.411,6.411,0,0,0,1-.57l5.28,2.87a6.51118,6.51118,0,0,1-1,.57"/>
          <path class="cls-26" d="M256.3,98.68,251,95.81a6.43022,6.43022,0,0,0,.72-.57L257,98.11a6.43089,6.43089,0,0,1-.72.57"/>
          <path class="cls-32" d="M257,98.11l-5.28-2.87q.31-.28.6-.6l5.28,2.87q-.28.31-.6.6"/>
          <path class="cls-31" d="M257.62,97.51l-5.28-2.87a8.38072,8.38072,0,0,0,.52-.66l5.28,2.87c-.17.23-.34.45-.52.66"/>
          <path class="cls-30" d="M258.14,96.85,252.86,94a7.16981,7.16981,0,0,0,.46-.75l5.28,2.87c-.14.26-.3.51-.46.75"/>
          <path class="cls-29" d="M258.6,96.1l-5.28-2.87a7.99813,7.99813,0,0,0,.43-.94L259,95.16a7.92252,7.92252,0,0,1-.42.94"/>
          <path class="cls-19" d="M259,95.16l-5.27-2.87a7,7,0,0,0,.42-2.36,4.72015,4.72015,0,0,1,.3-1.72l5.27,2.87a5.18027,5.18027,0,0,0-.3,1.72,6.5304,6.5304,0,0,1-.42,2.36"/>
        </g>
      </g>
      <polygon class="cls-5" points="217.18 105.26 211.9 102.39 248.3 96.91 253.57 99.78 217.18 105.26"/>
      <g class="cls-34">
        <path class="cls-24" d="M215.1,105.15l-5.28-2.87a5.33007,5.33007,0,0,0,2.08.11l5.28,2.87a5.30989,5.30989,0,0,1-2.08-.11"/>
      </g>
      <g class="cls-35">
        <g>
          <path class="cls-26" d="M214,104.72l-5.28-2.87.18.09,5.27,2.87-.17-.09"/>
          <path class="cls-25" d="M214.17,104.81l-5.27-2.87a4.22984,4.22984,0,0,0,.92.34l5.28,2.87a4.13011,4.13011,0,0,1-.93-.34"/>
          <path class="cls-24" d="M215.1,105.15l-5.28-2.87a5.33007,5.33007,0,0,0,2.08.11l5.28,2.87a5.30989,5.30989,0,0,1-2.08-.11"/>
        </g>
      </g>
      <g class="cls-36">
        <path class="cls-15" d="M214,104.69l-5.28-2.87a5.14,5.14,0,0,1-2.61-4.63l5.27,2.87a5.13,5.13,0,0,0,2.62,4.63"/>
      </g>
      <g class="cls-37">
        <path class="cls-15" d="M211.33,100.06l-5.27-2.87A3.49,3.49,0,0,0,204.37,94l5.27,2.87a3.48,3.48,0,0,1,1.69,3.21"/>
      </g>
      <g class="cls-38">
        <g>
          <path class="cls-24" d="M207.61,96.52l-5.28-2.87a3.46018,3.46018,0,0,1,1.37.07l5.3,2.87a3.40986,3.40986,0,0,0-1.36-.07"/>
          <path class="cls-25" d="M209,96.59l-5.27-2.87a2.54053,2.54053,0,0,1,.6.22l5.28,2.87a2.45983,2.45983,0,0,0-.61-.22"/>
          <path class="cls-26" d="M209.58,96.81l-5.28-2.87.11.06,5.28,2.87-.11-.06"/>
        </g>
      </g>
      <polygon class="cls-5" points="184.9 99.94 179.63 97.07 202.33 93.65 207.61 96.52 184.9 99.94"/>
      <polygon class="cls-16" points="184.89 95.53 179.61 92.66 278.2 77.81 283.48 80.68 184.89 95.53"/>
      <polygon class="cls-4" points="172.86 336.04 167.58 333.17 166.86 112.23 172.14 115.1 172.86 336.04"/>
      <polygon class="cls-21" points="168.59 336.69 163.32 333.81 162.6 112.87 167.87 115.74 168.59 336.69"/>
      <g class="cls-39">
        <g>
          <path class="cls-19" d="M172.14,115.1l-5.28-2.87a14.65992,14.65992,0,0,1,.92-5.1l5.27,2.87a14.66,14.66,0,0,0-.91,5.1"/>
          <path class="cls-29" d="M173.05,110l-5.27-2.87a13.99916,13.99916,0,0,1,.92-2L174,108a16.43082,16.43082,0,0,0-.92,2"/>
          <path class="cls-30" d="M174,108l-5.27-2.87a16.92623,16.92623,0,0,1,1-1.63l5.28,2.87a17.00293,17.00293,0,0,0-1,1.63"/>
          <path class="cls-31" d="M175,106.32l-5.28-2.87a17.44715,17.44715,0,0,1,1.13-1.44l5.28,2.87a17.45071,17.45071,0,0,0-1.13,1.44"/>
          <path class="cls-32" d="M176.11,104.88,170.83,102a17.85831,17.85831,0,0,1,1.3-1.31l5.28,2.87a16.06953,16.06953,0,0,0-1.3,1.31"/>
          <path class="cls-26" d="M177.41,103.57l-5.28-2.87a16.75062,16.75062,0,0,1,1.57-1.24l5.28,2.87a15.54016,15.54016,0,0,0-1.57,1.24"/>
          <path class="cls-25" d="M179,102.33l-5.28-2.87a15.25053,15.25053,0,0,1,2.14-1.24l5.28,2.87a15.25151,15.25151,0,0,0-2.14,1.24"/>
          <path class="cls-24" d="M181.12,101.09l-5.28-2.87a13.85994,13.85994,0,0,1,3.79-1.15l5.27,2.87a13.68,13.68,0,0,0-3.78,1.15"/>
        </g>
      </g>
      <path class="cls-40" d="M300.6,95.76l.72,220.94c0,9.73-7.61,18.8-17,20.21l-98.58,14.85c-9.49,1.33-17.09-5.41-17.12-15.08l-.72-220.94c0-9.73,7.61-18.8,17-20.21l98.59-14.85C293,79.35,300.57,86.09,300.6,95.76ZM284.28,332.5c7.08-1.06,12.79-7.85,12.78-15.16L296.33,96.4c0-7.26-5.7-12.31-12.72-11.33l-20.46,3.08a4.55,4.55,0,0,0-3.71,4.41,7.25,7.25,0,0,1-5.87,7.22l-36.32,5.47a5.06,5.06,0,0,1-5.92-5.19c0-2.37-1.65-3.83-3.69-3.55L184.9,99.94c-7.07,1.06-12.79,7.85-12.76,15.16l.72,220.9c0,7.26,5.7,12.31,12.72,11.32l98.7-14.86"/>
      <path class="cls-2" d="M283.49,85.09c7.14-1,12.82,4,12.84,11.31l.73,220.94c0,7.31-5.7,14.1-12.78,15.16L185.7,347.35c-7.14,1-12.82-4.05-12.84-11.31l-.72-220.94c0-7.31,5.69-14.1,12.76-15.16l22.71-3.42a3.2,3.2,0,0,1,3.73,3.29c0,3.58,2.61,5.9,5.84,5.45l36.39-5.48a7.18,7.18,0,0,0,5.87-7,4.62,4.62,0,0,1,3.71-4.65Z"/>
      <g class="cls-41">
        <g>
          <path class="cls-15" d="M167.87,115.74l-5.27-2.87a19.50006,19.50006,0,0,1,1.21-6.78l5.28,2.87a19.74008,19.74008,0,0,0-1.22,6.78"/>
          <path class="cls-14" d="M169.09,109l-5.28-2.87a22.32075,22.32075,0,0,1,1.23-2.73l5.28,2.87a20.89983,20.89983,0,0,0-1.23,2.73"/>
          <path class="cls-13" d="M170.32,106.23,165,103.36a22.16788,22.16788,0,0,1,1.35-2.19l5.27,2.87a20.35432,20.35432,0,0,0-1.34,2.19"/>
          <path class="cls-12" d="M171.66,104l-5.27-2.87a23.16,23.16,0,0,1,1.51-1.92l5.28,2.87a23.276,23.276,0,0,0-1.52,1.92"/>
          <path class="cls-11" d="M173.18,102.12l-5.28-2.87a23.94012,23.94012,0,0,1,1.74-1.75l5.28,2.87a23.94012,23.94012,0,0,0-1.74,1.75"/>
          <path class="cls-10" d="M174.92,100.37l-5.28-2.87a20.669,20.669,0,0,1,2.1-1.66L177,98.71a20.851,20.851,0,0,0-2.09,1.66"/>
          <path class="cls-9" d="M177,98.71l-5.27-2.87a19.729,19.729,0,0,1,2.85-1.65l5.28,2.87A19.82975,19.82975,0,0,0,177,98.71"/>
          <path class="cls-8" d="M179.87,97.06l-5.28-2.87a18.34964,18.34964,0,0,1,5-1.53l5.28,2.87a18.13946,18.13946,0,0,0-5,1.53"/>
        </g>
      </g>
    </g>
    <path class="cls-42" d="M272.8,281h0a9.48,9.48,0,0,1-8,9.46l-52.61,8.07a9.48,9.48,0,0,1-10.92-9.29h0a9.49,9.49,0,0,1,8.05-9.46l52.6-8.07A9.48,9.48,0,0,1,272.8,281Z"/>
    <g class="cls-43">
      <g class="cls-43">
        <path class="cls-2" d="M229.06836,284.457a1.94816,1.94816,0,0,0-.375-.30176,1.4455,1.4455,0,0,0-.40039-.167,1.88724,1.88724,0,0,0-.44824-.05078,3.28247,3.28247,0,0,0-.52637.04492,2.76111,2.76111,0,0,0-1.58789.68164,1.7609,1.7609,0,0,0-.51465,1.23535,1.076,1.076,0,0,0,.19238.72364,1.10031,1.10031,0,0,0,.64356.33789,7.70181,7.70181,0,0,0,1.15136.13476,8.09271,8.09271,0,0,1,1.22657.14844,1.50774,1.50774,0,0,1,.79492.39941,1.19407,1.19407,0,0,1,.26562.87989,1.80981,1.80981,0,0,1-.168.74218,1.77761,1.77761,0,0,1-.45508.59376,2.69989,2.69989,0,0,1-.71875.43554,4.05793,4.05793,0,0,1-.94336.25977,3.75091,3.75091,0,0,1-.94727.03515,2.56077,2.56077,0,0,1-.80859-.21484,2.92146,2.92146,0,0,1-.709-.46387l.1377-.14355a2.57591,2.57591,0,0,0,.49512.37207,2.2336,2.2336,0,0,0,.54785.22265,2.591,2.591,0,0,0,.61426.08106,3.89842,3.89842,0,0,0,.68164-.05078,3.09789,3.09789,0,0,0,1.5166-.60938,1.5271,1.5271,0,0,0,.57519-1.20312,1.1416,1.1416,0,0,0-.209-.76758,1.24274,1.24274,0,0,0-.6875-.3877,6.3484,6.3484,0,0,0-1.2041-.15332,8.01672,8.01672,0,0,1-1.19141-.127,1.31552,1.31552,0,0,1-.74219-.37012,1.15228,1.15228,0,0,1-.23925-.82714,1.93268,1.93268,0,0,1,.29394-1.02344,2.18759,2.18759,0,0,1,.792-.72656,3.49135,3.49135,0,0,1,1.1836-.39063,3.15072,3.15072,0,0,1,.74023-.03711,1.8225,1.8225,0,0,1,.61719.15625,1.78013,1.78013,0,0,1,.52637.38086Z"/>
      </g>
      <g class="cls-43">
        <path class="cls-2" d="M230.207,286.66309a3.95748,3.95748,0,0,1,.22656-1.21875,4.42892,4.42892,0,0,1,.61133-1.16114,3.78521,3.78521,0,0,1,.96094-.92187,3.14873,3.14873,0,0,1,1.28418-.49024,2.25764,2.25764,0,0,1,1.44238.18164,1.93131,1.93131,0,0,1,.86133.90821l-.17187.082a1.79031,1.79031,0,0,0-.58887-.68359,1.8866,1.8866,0,0,0-.76074-.29688,2.669,2.669,0,0,0-.82227.002,2.932,2.932,0,0,0-1.19336.457,3.4881,3.4881,0,0,0-.89746.87012,4.12415,4.12415,0,0,0-.56543,1.10254,3.95191,3.95191,0,0,0-.207,1.16895,3.16675,3.16675,0,0,0,.1914,1.18066,2.707,2.707,0,0,0,.583.93359,2.30793,2.30793,0,0,0,.88575.57129,2.20888,2.20888,0,0,0,1.10253.08985,3.01456,3.01456,0,0,0,.86817-.28614,3.3848,3.3848,0,0,0,.83691-.58789,3.00367,3.00367,0,0,0,.64746-.8955l.16993.01953a2.87778,2.87778,0,0,1-.64747.94238,3.69511,3.69511,0,0,1-.9248.668,3.28464,3.28464,0,0,1-.98926.332,2.25443,2.25443,0,0,1-1.1875-.1084,2.437,2.437,0,0,1-.92969-.63965,2.93221,2.93221,0,0,1-.59472-1.01074A3.41034,3.41034,0,0,1,230.207,286.66309Z"/>
      </g>
      <g class="cls-43">
        <path class="cls-2" d="M238.957,282.03223l.16211-.02539,2.64941,6.22558-.19824.03028-.94629-2.22657-3.34863.52246-1.04492,2.53907-.19727.03027Zm1.5918,3.82812-1.5166-3.56836-1.67481,4.06739Z"/>
        <path class="cls-2" d="M244.03711,281.60352l-.125,6.293-.18066.0293.13281-6.66016L244,281.24414l4.76172,5.624.12695-6.38769.18067-.02832-.13282,6.65918-.208.0332Z"/>
      </g>
    </g>
    <polygon class="cls-44" points="190.19 174.75 206.16 171.88 263.55 161.57 279.43 158.72 279.43 179.57 279.43 247.96 190.19 264 190.19 174.75 190.19 174.75"/>
    <path class="cls-45" d="M199.26,205.9l3.39-.61,3.39-.61,3.38-.61,3.39-.61,3.38-.6,3.39-.61,3.38-.61v-23.7l-3.38.61-3.39.61-3.38.61-3.39.61L206,181l-3.39.6-3.39.61v23.7m3.39-4,3.39-.6,3.38-.61,3.39-.61,3.38-.61,3.39-.61V181.94l-3.39.61-3.38.6-3.39.61-3.38.61-3.39.61V201.9"/>
    <path class="cls-45" d="M239.89,191.83l3.38-.61V174.29l-3.38.61-3.39.61-3.38.61v3.38l-3.39.61-3.38.61v3.39l3.38-.61,3.39-.61v3.38l3.38-.6,3.39-.61v6.77m-3.39-9.55,3.39-.61v-3.38l-3.39.61v3.38"/>
    <path class="cls-45" d="M246.66,197.38l3.38-.61,3.39-.6,3.38-.61,3.39-.61,3.38-.61,3.39-.61,3.38-.61V169.43L267,170l-3.39.6-3.38.61-3.39.61-3.38.61-3.39.61-3.38.61v23.69m3.38-4,3.39-.61,3.38-.61,3.39-.61,3.38-.6,3.39-.61V173.42l-3.39.61-3.38.61-3.39.61-3.38.6-3.39.61v16.93"/>
    <polyline class="cls-45" points="206.03 197.91 209.42 197.3 212.81 196.69 216.19 196.09 216.19 192.7 216.19 189.32 216.19 185.93 212.81 186.54 209.42 187.15 206.03 187.75 206.03 191.14 206.03 194.53 206.03 197.91"/>
    <polyline class="cls-45" points="253.43 189.4 256.81 188.79 260.2 188.18 263.58 187.57 263.58 184.19 263.58 180.8 263.58 177.41 260.2 178.02 256.81 178.63 253.43 179.24 253.43 182.63 253.43 186.01 253.43 189.4"/>
    <polyline class="cls-45" points="229.73 193.65 233.12 193.04 233.12 189.66 233.12 186.27 229.73 186.88 226.34 187.49 226.34 190.88 229.73 190.27 229.73 193.65"/>
    <polyline class="cls-45" points="226.34 201.03 229.73 200.42 229.73 197.04 229.73 193.65 226.34 194.26 226.34 197.65 226.34 201.03"/>
    <polyline class="cls-45" points="236.5 195.82 239.89 195.21 239.89 191.83 236.5 192.44"/>
    <polyline class="cls-45" points="233.12 199.81 236.5 199.21 236.5 195.82 233.12 196.43"/>
    <polyline class="cls-45" points="239.89 198.6 243.27 197.99 243.27 194.6 239.89 195.21"/>
    <polyline class="cls-45" points="229.73 203.81 233.12 203.2 233.12 199.81 229.73 200.42"/>
    <polyline class="cls-45" points="202.65 225.6 206.03 224.99 209.42 224.38 209.42 221 212.81 220.39 212.81 223.77 216.19 223.17 216.19 219.78 216.19 216.4 212.81 217 212.81 213.62 209.42 214.23 209.42 210.84 212.81 210.23 212.81 213.62 216.19 213.01 216.19 216.4 219.57 215.79 222.96 215.18 226.34 214.57 229.73 213.96 229.73 210.58 226.34 211.19 222.96 211.79 219.57 212.4 219.57 209.02 216.19 209.63 216.19 206.24 212.81 206.85 209.42 207.46 206.03 208.07 202.65 208.67 199.26 209.28 199.26 212.67 202.65 212.06 206.03 211.45 206.03 214.84 202.65 215.44 199.26 216.05 199.26 219.44 199.26 222.82 202.65 222.21 202.65 225.6"/>
    <polyline class="cls-45" points="219.57 209.02 222.96 208.41 226.34 207.8 229.73 207.19 229.73 203.81 226.34 204.42 222.96 205.02 219.57 205.63 219.57 209.02"/>
    <path class="cls-45" d="M226.35,228.11l3.38-.61v-6.77l3.39-.61,3.38-.6v-3.39l3.39-.61v6.77l3.38-.6v-6.77l3.39-.61,3.38-.61v6.77l3.39-.61V199.55l-3.39.61v3.38l-3.38.61v-3.38l-3.39.6v3.39l-3.38.61V202l-3.39.61v6.77l3.39-.61v3.39l-3.39.61v-3.39l-3.38.61v3.38l-3.39.61v3.39l-3.38.61-3.39.6-3.38.61v3.39L223,222l3.39-.61v6.77m16.92-16.58,3.39-.61v-3.38l-3.39.6v3.39"/>
    <polyline class="cls-45" points="256.81 212.48 260.2 211.87 260.2 208.49 260.2 205.1 263.58 204.5 263.58 201.11 260.2 201.72 260.2 198.33 256.81 198.94 256.81 202.33 256.81 205.71 256.81 209.1 256.81 212.48"/>
    <polyline class="cls-45" points="263.58 201.11 266.97 200.5 266.97 197.12 263.58 197.72"/>
    <polyline class="cls-45" points="263.58 211.27 266.97 210.66 270.35 210.05 270.35 206.66 266.97 207.27 266.97 203.89 263.58 204.5 263.58 207.88 263.58 211.27"/>
    <polyline class="cls-45" points="266.97 220.81 270.35 220.2 270.35 216.82 270.35 213.43 266.97 214.04 266.97 217.43 266.97 220.81"/>
    <path class="cls-45" d="M199.26,253.29l3.39-.61,3.39-.61,3.38-.61,3.39-.61,3.38-.6,3.39-.61L223,249V225.3l-3.38.61-3.39.61-3.38.61-3.39.61-3.38.61-3.39.6-3.39.61v23.7m3.39-4,3.39-.6,3.38-.61,3.39-.61,3.38-.61,3.39-.61V229.33l-3.39.61-3.38.6-3.39.61-3.38.61-3.39.61v16.92"/>
    <path class="cls-45" d="M226.35,248.42l3.38-.61V241l3.39-.6v-3.39l-3.39.61v-3.39l3.39-.6v3.38l3.38-.61,3.39-.61v3.39l-3.39.61-3.38.61v6.77l3.38-.61v-3.39l3.39-.61V246l3.38-.61V242l3.39-.61,3.38-.61v3.38l3.39-.6,3.38-.61,3.39-.61,3.38-.61V235l-3.38.61v-3.39l3.38-.6v-3.39l3.39-.61V224.2l-3.39.61V218l-3.38.6-3.39.61V226l-3.38.61v6.77l3.38-.61v3.39l-3.38.61V233.4L250,234v-3.39l-3.38.61v-3.38l-3.39.61v3.38l-3.38.61v-3.39l-3.39.61v-3.38l3.39-.61v-3.39l-3.39.61-3.38.61v3.39l-3.39.6v3.39l-3.38.61v16.92m16.92-9.81,3.39-.61v-3.38l-3.39.61v3.38"/>
    <polyline class="cls-45" points="243.27 225.07 246.66 224.46 246.66 221.08 243.27 221.69"/>
    <polyline class="cls-45" points="250.04 227.24 253.43 226.63 253.43 223.25 250.04 223.85"/>
    <polyline class="cls-45" points="206.03 245.3 209.42 244.69 212.81 244.09 216.19 243.48 216.19 240.09 216.19 236.71 216.19 233.32 212.81 233.93 209.42 234.54 206.03 235.15 206.03 238.53 206.03 241.92 206.03 245.3"/>
    <polyline class="cls-45" points="266.97 237.74 270.35 237.13 270.35 233.74 266.97 234.35"/>
    <g class="cls-46">
      <g>
        <path class="cls-47" d="M338.35,270.48l-20.78-58.43a6.92,6.92,0,0,0-6.47-4.71h-9.51v25.41l5.62,10.61c.79,1.49,4.42,24.23,3.31,25.48-4.26,4.81-5.17,9.1-17.48,37.55-1.34,3.09-5,13.34-7.8,15a9.84,9.84,0,0,1-13.05-3.06l-22.67-32.64c-4.49-6.47-13.64-8-19.44-2a13.86,13.86,0,0,0-1.15,17.48l22.47,32.35a30.44,30.44,0,0,1,5.43,16.6c.38,15.47,3.47,48.39,21.57,72.33v69.11l53.63-21,7.55-191.76A21.81005,21.81005,0,0,0,338.35,270.48Z"/>
        <path class="cls-2" d="M271.74,468.91V442.44A8.00011,8.00011,0,0,1,275,436a143.65,143.65,0,0,1,56-24.5,8,8,0,0,1,9.49,7.92l-.55,49.45Z"/>
      </g>
    </g>
  </g>
</svg>
