<svg id="Группа_7" data-name="Группа 7" xmlns="http://www.w3.org/2000/svg" width="2144" height="2177" viewBox="0 0 2144 2177">
  <defs>
    <style>
      .cls-1 {
        fill: none;
        stroke: #fff;
        stroke-width: 1px;
        fill-rule: evenodd;
      }
    </style>
  </defs>
  <g id="animals">
    <path id="_0" data-name="0" class="cls-1" d="M535,1125.16a39.38,39.38,0,1,1-39.38,39.38A39.38,39.38,0,0,1,535,1125.16Z"/>
    <path id="_1" data-name="1" class="cls-1" d="M523,1026.16a39.38,39.38,0,1,1-39.38,39.38A39.38,39.38,0,0,1,523,1026.16Z"/>
    <path id="_2" data-name="2" class="cls-1" d="M638,1009.16a39.38,39.38,0,1,1-39.38,39.38A39.38,39.38,0,0,1,638,1009.16Z"/>
    <path id="_3" data-name="3" class="cls-1" d="M517,779.156a39.381,39.381,0,1,1-39.38,39.38A39.38,39.38,0,0,1,517,779.156Z"/>
    <path id="_4" data-name="4" class="cls-1" d="M520,670.156a39.381,39.381,0,1,1-39.38,39.38A39.38,39.38,0,0,1,520,670.156Z"/>
    <path id="_4_копия" data-name="4 копия" class="cls-1" d="M573,511.156a39.381,39.381,0,1,1-39.38,39.38A39.38,39.38,0,0,1,573,511.156Z"/>
    <path id="_4_копия_2" data-name="4 копия 2" class="cls-1" d="M682,528.156a39.381,39.381,0,1,1-39.38,39.38A39.38,39.38,0,0,1,682,528.156Z"/>
    <path id="_4_копия_6" data-name="4 копия 6" class="cls-1" d="M794,484.156a39.381,39.381,0,1,1-39.38,39.38A39.38,39.38,0,0,1,794,484.156Z"/>
    <path id="_4_копия_5" data-name="4 копия 5" class="cls-1" d="M1272,740.156a39.381,39.381,0,1,1-39.38,39.38A39.379,39.379,0,0,1,1272,740.156Z"/>
    <path id="_4_копия_4" data-name="4 копия 4" class="cls-1" d="M1355,795.156a39.381,39.381,0,1,1-39.38,39.38A39.379,39.379,0,0,1,1355,795.156Z"/>
    <path id="_4_копия_3" data-name="4 копия 3" class="cls-1" d="M710,432.156a39.381,39.381,0,1,1-39.38,39.38A39.38,39.38,0,0,1,710,432.156Z"/>
    <path id="_5" data-name="5" class="cls-1" d="M837,656.156a39.381,39.381,0,1,1-39.38,39.38A39.38,39.38,0,0,1,837,656.156Z"/>
    <path id="_6" data-name="6" class="cls-1" d="M943,442.156a39.381,39.381,0,1,1-39.38,39.38A39.38,39.38,0,0,1,943,442.156Z"/>
    <path id="_7" data-name="7" class="cls-1" d="M1093,436.156a39.381,39.381,0,1,1-39.38,39.38A39.379,39.379,0,0,1,1093,436.156Z"/>
    <path id="_8" data-name="8" class="cls-1" d="M1144,329.156a39.381,39.381,0,1,1-39.38,39.38A39.379,39.379,0,0,1,1144,329.156Z"/>
    <path id="_9" data-name="9" class="cls-1" d="M1293,244.156a39.381,39.381,0,1,1-39.38,39.38A39.379,39.379,0,0,1,1293,244.156Z"/>
    <path id="_10" data-name="10" class="cls-1" d="M1387,195.156a39.381,39.381,0,1,1-39.38,39.38A39.379,39.379,0,0,1,1387,195.156Z"/>
    <path id="_11" data-name="11" class="cls-1" d="M1450,274.156a39.381,39.381,0,1,1-39.38,39.38A39.379,39.379,0,0,1,1450,274.156Z"/>
    <path id="_12" data-name="12" class="cls-1" d="M1551,240.156a39.381,39.381,0,1,1-39.38,39.38A39.379,39.379,0,0,1,1551,240.156Z"/>
    <path id="_13" data-name="13" class="cls-1" d="M1646,299.156a39.381,39.381,0,1,1-39.38,39.38A39.379,39.379,0,0,1,1646,299.156Z"/>
    <path id="_14" data-name="14" class="cls-1" d="M1593,379.156a39.381,39.381,0,1,1-39.38,39.38A39.379,39.379,0,0,1,1593,379.156Z"/>
    <path id="_15" data-name="15" class="cls-1" d="M1732,365.156a39.381,39.381,0,1,1-39.38,39.38A39.379,39.379,0,0,1,1732,365.156Z"/>
    <path id="_16" data-name="16" class="cls-1" d="M1279,482.156a39.381,39.381,0,1,1-39.38,39.38A39.379,39.379,0,0,1,1279,482.156Z"/>
    <path id="_17" data-name="17" class="cls-1" d="M1359,412.156a39.381,39.381,0,1,1-39.38,39.38A39.379,39.379,0,0,1,1359,412.156Z"/>
    <path id="_18" data-name="18" class="cls-1" d="M1457,523.156a39.381,39.381,0,1,1-39.38,39.38A39.379,39.379,0,0,1,1457,523.156Z"/>
    <path id="_19" data-name="19" class="cls-1" d="M1317,596.156a39.381,39.381,0,1,1-39.38,39.38A39.379,39.379,0,0,1,1317,596.156Z"/>
    <path id="_20" data-name="20" class="cls-1" d="M1411,652.156a39.381,39.381,0,1,1-39.38,39.38A39.379,39.379,0,0,1,1411,652.156Z"/>
    <path id="_21" data-name="21" class="cls-1" d="M1511,690.156a39.381,39.381,0,1,1-39.38,39.38A39.379,39.379,0,0,1,1511,690.156Z"/>
    <path id="_22" data-name="22" class="cls-1" d="M1650,516.156a39.381,39.381,0,1,1-39.38,39.38A39.379,39.379,0,0,1,1650,516.156Z"/>
    <path id="_23" data-name="23" class="cls-1" d="M1765,518.156a39.381,39.381,0,1,1-39.38,39.38A39.379,39.379,0,0,1,1765,518.156Z"/>
    <path id="_24" data-name="24" class="cls-1" d="M1669,626.156a39.381,39.381,0,1,1-39.38,39.38A39.379,39.379,0,0,1,1669,626.156Z"/>
    <path id="_25" data-name="25" class="cls-1" d="M1775,627.156a39.381,39.381,0,1,1-39.38,39.38A39.379,39.379,0,0,1,1775,627.156Z"/>
    <path id="_26" data-name="26" class="cls-1" d="M1691,773.156a39.381,39.381,0,1,1-39.38,39.38A39.379,39.379,0,0,1,1691,773.156Z"/>
    <path id="_27" data-name="27" class="cls-1" d="M1755,880.156a39.381,39.381,0,1,1-39.38,39.38A39.379,39.379,0,0,1,1755,880.156Z"/>
    <path id="_28" data-name="28" class="cls-1" d="M1634,926.156a39.382,39.382,0,1,1-39.38,39.38A39.379,39.379,0,0,1,1634,926.156Z"/>
    <path id="_29" data-name="29" class="cls-1" d="M1669,1025.16a39.38,39.38,0,1,1-39.38,39.38A39.379,39.379,0,0,1,1669,1025.16Z"/>
    <path id="_30" data-name="30" class="cls-1" d="M1545,1024.16a39.38,39.38,0,1,1-39.38,39.38A39.379,39.379,0,0,1,1545,1024.16Z"/>
    <path id="_31" data-name="31" class="cls-1" d="M1568,1134.16a39.38,39.38,0,1,1-39.38,39.38A39.379,39.379,0,0,1,1568,1134.16Z"/>
    <path id="_32" data-name="32" class="cls-1" d="M1455,1151.16a39.38,39.38,0,1,1-39.38,39.38A39.379,39.379,0,0,1,1455,1151.16Z"/>
    <path id="_33" data-name="33" class="cls-1" d="M1413,1259.16a39.38,39.38,0,1,1-39.38,39.38A39.379,39.379,0,0,1,1413,1259.16Z"/>
    <path id="_34" data-name="34" class="cls-1" d="M1293,1262.16a39.38,39.38,0,1,1-39.38,39.38A39.379,39.379,0,0,1,1293,1262.16Z"/>
    <path id="_35" data-name="35" class="cls-1" d="M1323,1363.16a39.38,39.38,0,1,1-39.38,39.38A39.379,39.379,0,0,1,1323,1363.16Z"/>
    <path id="_36" data-name="36" class="cls-1" d="M1226,1439.16a39.38,39.38,0,1,1-39.38,39.38A39.379,39.379,0,0,1,1226,1439.16Z"/>
    <path id="_37" data-name="37" class="cls-1" d="M977,795.156a39.381,39.381,0,1,1-39.38,39.38A39.382,39.382,0,0,1,977,795.156Z"/>
    <path id="_38" data-name="38" class="cls-1" d="M1019,881.156a39.381,39.381,0,1,1-39.383,39.38A39.379,39.379,0,0,1,1019,881.156Z"/>
    <path id="_39" data-name="39" class="cls-1" d="M1121,895.156a39.381,39.381,0,1,1-39.38,39.38A39.379,39.379,0,0,1,1121,895.156Z"/>
    <path id="_40" data-name="40" class="cls-1" d="M886,1013.16a39.38,39.38,0,1,1-39.38,39.38A39.38,39.38,0,0,1,886,1013.16Z"/>
    <path id="_41" data-name="41" class="cls-1" d="M990,1048.16a39.38,39.38,0,1,1-39.38,39.38A39.379,39.379,0,0,1,990,1048.16Z"/>
    <path id="_42" data-name="42" class="cls-1" d="M949,1216.16a39.38,39.38,0,1,1-39.38,39.38A39.38,39.38,0,0,1,949,1216.16Z"/>
    <path id="_43" data-name="43" class="cls-1" d="M1064,1213.16a39.38,39.38,0,1,1-39.38,39.38A39.379,39.379,0,0,1,1064,1213.16Z"/>
    <path id="_44" data-name="44" class="cls-1" d="M658,1408.16a39.38,39.38,0,1,1-39.38,39.38A39.38,39.38,0,0,1,658,1408.16Z"/>
    <path id="_45" data-name="45" class="cls-1" d="M707,1493.16a39.38,39.38,0,1,1-39.38,39.38A39.38,39.38,0,0,1,707,1493.16Z"/>
    <path id="_46" data-name="46" class="cls-1" d="M787,1620.16a39.38,39.38,0,1,1-39.38,39.38A39.38,39.38,0,0,1,787,1620.16Z"/>
    <path id="_47" data-name="47" class="cls-1" d="M912,1639.16a39.38,39.38,0,1,1-39.38,39.38A39.38,39.38,0,0,1,912,1639.16Z"/>
    <path id="_48" data-name="48" class="cls-1" d="M1036,1632.16a39.38,39.38,0,1,1-39.383,39.38A39.379,39.379,0,0,1,1036,1632.16Z"/>
    <path id="_49" data-name="49" class="cls-1" d="M1138,1593.16a39.38,39.38,0,1,1-39.38,39.38A39.379,39.379,0,0,1,1138,1593.16Z"/>
    <path id="_50" data-name="50" class="cls-1" d="M832,1725.16a39.38,39.38,0,1,1-39.38,39.38A39.38,39.38,0,0,1,832,1725.16Z"/>
    <path id="_51" data-name="51" class="cls-1" d="M977,1740.16a39.38,39.38,0,1,1-39.38,39.38A39.381,39.381,0,0,1,977,1740.16Z"/>
    <path id="_52" data-name="52" class="cls-1" d="M1125,1710.16a39.38,39.38,0,1,1-39.38,39.38A39.379,39.379,0,0,1,1125,1710.16Z"/>
  </g>
</svg>
