<svg id="Группа_7" data-name="Группа 7" xmlns="http://www.w3.org/2000/svg" width="2144" height="2177" viewBox="0 0 2144 2177">
  <defs>
    <style>
      .cls-1 {
        fill: #99ce62;
        stroke-width: 1px;
        fill-rule: evenodd;
      }
      .cls-2 {
        fill: #333333;
        stroke-width: 1px;
        fill-rule: evenodd;
      }
    </style>
  </defs>
  <g id="Группа_2" data-name="Группа 2">
    <path id="Фигура_28" data-name="Фигура 28" class="cls-1" d="M1468,487c-3.79-.733-15.39,1.187-26.99,5.511-18.66,6.953-32.86,17.477-43.01,29.489-6.95,8.225-32.8,41.823-21,65,9.25,18.172,29.7,35.705,68,48,9.53,3.058,54.54,3.569,65-3C1537.47,614.75,1514.27,495.948,1468,487Z"/>
    <path id="Фигура_29" data-name="Фигура 29" class="cls-1" d="M1572.28,512.646c-8.8,22,6.54,37.214,18.5,75.656,8.98,28.884,11.25,66.663,23.74,98.841,7.5,19.352,17.96,35.106,42.5,38.116,62.21,7.632,77.61,7.107,95.96,10.5,101.69,18.827,79.93-100.693,82.59-131.081,4.2-48.123-12.65-80.514-26.96-92.274-27.05-22.216-75.98-21.492-158.14-17.228C1599.98,497.8,1579.19,495.365,1572.28,512.646Z"/>
    <path id="Фигура_31" data-name="Фигура 31" class="cls-1" d="M1142.92,521.644c-16.06,38.871-81.35,41.347-109.86,2-11.27-15.55-7.78-60.36,18.82-124.326,16.58-39.875,40.36-65.977,51.2-72.347,35.61-20.924,54.86-25.9,90.21-8.08,36.82,18.557,39.39,25.769,41.52,42.024,1.81,13.826-11.85,25.244-24.97,39.933C1175.59,439.19,1163.9,470.877,1142.92,521.644Z"/>
    <path id="Фигура_32" data-name="Фигура 32" class="cls-1" d="M1215,562c-22.94-18.935,14.36-85.521,43-118,8.09-9.171,33.79-26.44,64-35,37.69-10.682,65.38-9.1,80.02-1.852,15.34,7.593,22.3,16.554,25.09,24,12.12,32.377-13.3,61.293-51.11,85.852-16.53,10.739-15.7,20.185-30,41C1333.08,576.8,1244.16,586.072,1215,562Z"/>
    <path id="Фигура_33" data-name="Фигура 33" class="cls-1" d="M1251,640c-3.6-2.948-9.8-8.116-5-21,4.6-12.342,24.85-23.362,31-25,15.89-4.231,26.97-2.642,39-2,37.56,2,96.69,59.139,130,66,25.56,5.265,46.99-9,72.75,1.966,38.99,16.6,43.02,53.395,45.25,64.034,7.01,33.423-10.6,72.248-33,77-7.35,1.558-14.38-1.285-16-2C1452.49,771.479,1298.39,678.769,1251,640Z"/>
    <path id="Фигура_34" data-name="Фигура 34" class="cls-1" d="M1212,696c-18.26,10.5-3.28,67.208,2,84,11.15,35.471,30.19,61.609,41.86,72.239C1305.64,897.56,1382.86,893,1409,876c11.29-7.338,36.37-33.648-6-63-49.27-34.136-84.46-56.775-145-98C1239.01,702.068,1222.48,689.97,1212,696Z"/>
    <path id="Фигура_35" data-name="Фигура 35" class="cls-1" d="M905.627,878.131c3.132,18.884,17.93,42.643,51.987,67.987,35.494,26.414,113.346,72.092,182.686,49.36,20.09-6.586,33.63-17.788,35.7-26.478,8.55-35.9-3.42-57.633-8-62-29.19-27.825-42.87-20.435-105-57-24.68-14.524-41.45-69.891-74-80-22.686-7.045-44.309,19.088-51.78,25.529C916.131,813.711,900.157,845.156,905.627,878.131Z"/>
    <path id="Фигура_36" data-name="Фигура 36" class="cls-1" d="M829.2,1093.88c-13.844-34.21,5.312-70.2,15.238-84.5,12.759-18.388,27.292-26.578,34.865-27.9,22.294-3.9,38.105,15.2,61.972,31.513,22.847,15.62,69.266,27.26,112.656,43.66,31.11,11.75,49.6,19.48,50.51,31.94,1.57,21.57-50.56,43.7-89.83,52.5C952.14,1155.09,852.042,1150.33,829.2,1093.88Z"/>
    <path id="Фигура_37" data-name="Фигура 37" class="cls-1" d="M879.7,447.143c-7.074,10.335-28.134,53.857-7.349,80.316,26.48,33.711,102.582,37.183,131.7,13.4,13.15-10.739,4.55-24.786,6.39-46.251,3.23-37.628,14.82-63.6,3.87-72.267C986.852,400.584,909.378,403.788,879.7,447.143Z"/>
    <path id="Фигура_15" data-name="Фигура 15" class="cls-1" d="M1140.09,1499.28c1.95,22.56,24.48,42.55,46.32,47.76,23.06,5.51,86.58,2.22,136.03-52.82,39.21-43.64,68.53-87.36,103.51-128,34.28-39.85,57.4-54.18,99.55-84.98,51.77-37.83,110.46-98.91,157.09-142.38,22.43-20.9,63.49-67.04,96.35-109.85,9.63-12.54,44.02-66.47,58.37-121.318,15.69-59.952-15.53-117.154-26.7-131.542-18.67-24.032-61.01-22.742-126.01-27.7-61.21-4.672-56.98,14.822-66.82,82.928-6.82,47.146-36.58,109.571-74.93,155.887-18.42,22.237-39.91,41.477-51.88,48.717-22.07,13.34-45.9,17.43-60.74,37.3-14.15,18.93-17.13,49.07-21.31,60.18-11.05,29.38-28.58,51.12-37.06,57.32-24.47,17.86-61.38,27.63-90.75,42.66-16.36,8.36-26.81,17.22-34.28,26.74-13.72,17.48-18.37,40.27-19.46,46.81-8.83,52.8-15.41,74.14-31.37,100.01C1182.4,1429.05,1137.53,1469.82,1140.09,1499.28Z"/>
    <path id="Фигура_30" data-name="Фигура 30" class="cls-1" d="M1269,343c18.79,2.389,48.16-4.654,65-7,27.87-3.884,77.87,11.756,130.38,42.148,17.5,10.132,45.7,31.03,67.62,58.852,18.92,24.014,41.97,46.871,132.59,38.188,47.79-4.58,99.55-11.833,110.41-29.188,29.59-47.294-2.37-87.556-31-115-66.26-63.511-280.3-154.655-364-147-41.66,3.81-85.02,21.44-126,56-21.28,17.942-29.82,32.09-30,47C1223.66,314.74,1241.29,339.477,1269,343Z"/>
    <path id="Фигура_38" data-name="Фигура 38" class="cls-1" d="M669,1379c-7.172-.8-27.508,4.98-39,19-13.684,16.69-36.068,60.84-27,102,15.47,70.22,61.514,84.03,82,86,26.735,2.57,49.087,1.33,77-13,49.811-25.57,8.8-28.83-47-131C692.385,1400.59,684.84,1380.77,669,1379Z"/>
    <path id="Фигура_40" data-name="Фигура 40" class="cls-1" d="M719,1629c-30.716,39.56-36.438,123.88,16,175,31.2,30.41-53.715-52.62,0,0,73.413,71.91,462.47,79.25,488-81,7.24-45.42-5.2-104.4-34-134-16.15-16.6-32.57-30.07-51-36-41.6-13.38-85.44,36.4-127,50-27.382,8.96-50.556,16.37-88,13-39.172-3.52-74.53-30.26-122-31C766.953,1584.47,745.039,1595.46,719,1629Z"/>
    <path id="Фигура_42" data-name="Фигура 42" class="cls-1" d="M597.2,1224.43c-33.37,17.5-83.021,9.38-115.473-18.18-33.264-28.25-41.138-67.86-39.844-94.69,3.351-69.49,67.379-105.79,90.3-116.365,30.8-14.219,73.366-23.832,110.275-6.466,17.5,8.233,44.849,23.851,47.561,48.261,5.334,48.01-45.144,72.94-57.138,100.17C617.834,1171.31,631.456,1206.47,597.2,1224.43Z"/>
    <path id="Фигура_43" data-name="Фигура 43" class="cls-1" d="M578.652,894.707C569.593,899.64,527.3,900.405,500,878c-49.425-40.557-53.252-94.143-53-136,0.176-29.147,12.754-57.343,25-74,14.626-19.895,28.5-28.925,68.986-36.379,17.961-3.307,36.53-3.161,46.023,7.4,13.9,15.468,4.38,45.988-3.916,64.727-30.819,69.613-4.618,134.45,1.422,155.591C588.521,873.366,586.838,890.249,578.652,894.707Z"/>
    <path id="Фигура_44" data-name="Фигура 44" class="cls-1" d="M713.475,648.359c3.27-9.549,21.973-16.721,56.576-19.394,41.642-3.218,73.89,9.162,86.537,17.475,10.751,7.067,44.962,32.189,42.27,61.231-1.482,15.989-5.774,26.251-13.193,41.64-5.463,11.334-17.125,19.9-23.675,23.335-16.635,8.718-41.6-5.376-79.6-50.291C743.374,676.239,707.939,664.523,713.475,648.359Z"/>
    <path id="Фигура_45" data-name="Фигура 45" class="cls-1" d="M584,610c24.81,7.229,16.6,25.795,42,31,39.249,8.043,111.262-29.794,142-44,11.553-5.339,34.435-12.791,48-19,27.884-12.764,27.671-23.2,30-32,6.127-23.152-5.186-30.081-4-76,0.59-22.865,15.685-36.043,4-53-15.771-22.888-83.3-14.341-105-10-76.151,15.231-310.881,126.989-243,191C521.72,620.368,546.129,598.965,584,610Z"/>
  </g>
</svg>
