<svg id="Группа_7" data-name="Группа 7" xmlns="http://www.w3.org/2000/svg" width="2144" height="2177" viewBox="0 0 2144 2177">
  <defs>
    <style>
      .cls-1, .cls-3, .cls-4, .cls-5 {
        fill: none;
      }

      .cls-1, .cls-2, .cls-3, .cls-4, .cls-5 {
        stroke: #fff;
        fill-rule: evenodd;
      }

      .cls-1, .cls-3, .cls-5 {
        stroke-width: 20px;
      }

      .cls-2 {
        fill: #fff;
        stroke-width: 1px;
      }

      .cls-3, .cls-5 {
        stroke-linecap: round;
      }

      .cls-4 {
        stroke-width: 15px;
      }

      .cls-5 {
        stroke-linejoin: round;
      }
    </style>
  </defs>
  <g id="Группа_1" data-name="Группа 1">
    <path id="Фигура_5" data-name="Фигура 5" class="cls-1" d="M943,704c-20.831-32.5-61.306-71.366-71-93-8.532-19.04-2.135-41.627,32-34,33.08,7.391,89.838,34.2,127,53"/>
    <path id="Фигура_6" data-name="Фигура 6" class="cls-1" d="M888,807c-23.491,2.662-46.159.217-67-9-50.421-22.3-63.672-74.585-111-106a186.461,186.461,0,0,0-46-22"/>
    <path id="Фигура_7" data-name="Фигура 7" class="cls-1" d="M827,802l28,72"/>
    <path id="Фигура_8" data-name="Фигура 8" class="cls-1" d="M837,927c6.881-4.964,12.724-8.1,21-9,15.723-1.71,30.948,4.815,42,16"/>
    <path id="Фигура_9" data-name="Фигура 9" class="cls-1" d="M681,1257l134-33"/>
    <path id="Фигура_10" data-name="Фигура 10" class="cls-1" d="M737,1417c13.812-31.49,39.322-58.23,66-78a179.5,179.5,0,0,1,24-15"/>
    <path id="Фигура_11" data-name="Фигура 11" class="cls-1" d="M867,1360c24.74,33.88,41.422,73.24,51,114a312.488,312.488,0,0,1,6,109"/>
    <path id="Фигура_12" data-name="Фигура 12" class="cls-1" d="M922,1483a439.5,439.5,0,0,1,99-10c26.2,0.34,58.25,5.01,84,10"/>
    <path id="Фигура_16" data-name="Фигура 16" class="cls-2" d="M762,1236c-15.783,19.66-1.19,54.49,8,55a4.821,4.821,0,0,0,3-1c8.509-5.93,24.308-4.62,33-17,9.259-13.19,9.682-37.72-4.808-46.74C788.874,1218.59,770.689,1225.18,762,1236Z"/>
    <path id="Фигура_13" data-name="Фигура 13" class="cls-1" d="M698,1328l108-53"/>
    <path id="Фигура_1" data-name="Фигура 1" class="cls-1" d="M438,1434c63.835-25.41,230.074-91.7,246-105,0.773-.65,4.272-3.74,8-3,5.726,1.14,8.288,10.54,9,13-39.716-137.58,45.716,250.58,246,245,36.03-1,100.44-29.21,164-109,44.83-56.28,69.39-113.49,76-147,6.71-34.04,7.93-73.64,39-104,8.74-8.54,37.1-24.15,69-34,17.12-5.29,30.11-6.5,43-15,34.38-22.67,42.92-83.37,51-98,36.31-65.76,97.05-60.19,146-130,12.22-17.421,25.59-44.406,36-76,15.81-47.974,22.23-104.469,10-183-27.27-175.2-86.83-260.525-161-295-36.67-17.044-83.01-26.767-125-12-32.94,11.583-63.58,38.047-89,83-14.03,24.815-18.76,55.194-41,84-8.77,11.36-32.22,32.513-59,49-28.29,17.419-52.11,22.592-81,39a294.023,294.023,0,0,0-78,65c-29.224,34.441-39.946,65.973-61,110-10,20.9-20.817,36.731-30,58-19.221,44.518-27.548,161.69-79,202-30.158,23.62-68.4,24.7-106,58-9.082,8.04-15.28,15.67-18,22-17.2,40.02,33.117,96.89,38,151a185.005,185.005,0,0,1,0,33"/>
    <path id="Фигура_46" data-name="Фигура 46" class="cls-3" d="M655.687,1139.8l-60.25-30.49"/>
    <path id="Фигура_46-2" data-name="Фигура 46" class="cls-3" d="M659.646,668.225l-2.561-67.477"/>
    <path id="Фигура_2" data-name="Фигура 2" class="cls-1" d="M1111,596c66.65,41.511,132.59,81.734,200,122,85.97,51.353,170.84,100.694,258,150"/>
    <path id="Фигура_3" data-name="Фигура 3" class="cls-1" d="M874,835c-1.353,29.684,3.863,57.84,17,83,22.1,42.329,60.545,65.256,105,84,85.78,36.17,227.2,74.7,270,121,2.1,2.27,4.12,4.62,6,7,12.77,16.14,20.92,35.05,25,56"/>
    <path id="Фигура_4" data-name="Фигура 4" class="cls-1" d="M754,1085c0.8,15.73,4.4,36.06,11,49,14.482,28.4,51.874,43.69,55,73,1.709,16.02-8.717,28.12-11,40-7.969,41.47,23.729,85.6,50,107,33.11,26.97,120.485,39.81,250-1a638.574,638.574,0,0,0,75-29"/>
    <path id="Фигура_17" data-name="Фигура 17" class="cls-1" d="M1403,1054a147.577,147.577,0,0,1-36-22,150.259,150.259,0,0,1-43-59"/>
    <path id="Фигура_20" data-name="Фигура 20" class="cls-1" d="M748,1083c-8.094-31.97-21.65-58.26-41-79-21.795-23.358-42.243-29.582-50-55-6.453-21.143,4.44-40.225-8-67a89.1,89.1,0,0,0-7-12c-8.605-13.078-43.872-46.995-41-106,1.444-29.672,22.758-100.019,66-93"/>
    <path id="Фигура_21" data-name="Фигура 21" class="cls-4" d="M828,964c-2.962-28.4-21.451-59.669-44-77-16.375-12.586-40.971-22.613-80.553-19.128A138.927,138.927,0,0,0,650,884"/>
    <path id="Фигура_22" data-name="Фигура 22" class="cls-4" d="M700,995c-5.173-23.1-1-47.6,13-67,17.883-24.788,49.159-37.487,81-33"/>
    <path id="Фигура_18" data-name="Фигура 18" class="cls-2" d="M1343,1007c20.99-10.645,29.97-23.478,34-34,3.87-10.112,6.91-26.928-1-43-8.72-17.71-28.38-27.155-51.91-30.655-10.78-1.6-48.74-5.106-65.09,18.655-20.74,30.127,5.65,88.48,43,97C1310.39,1016.91,1325.1,1016.08,1343,1007Z"/>
    <path id="Фигура_18_копия" data-name="Фигура 18 копия" class="cls-2" d="M870.7,1493.06c6.912,18.79,17.745,28.33,27.139,33.48,9.027,4.94,24.56,10.43,41.062,7,18.183-3.79,30.181-17.87,37.115-36.13,3.177-8.37,12.323-38.22-7.778-55.67-25.486-22.12-85.045-11.51-98.869,16.94C866.259,1465.07,864.8,1477.04,870.7,1493.06Z"/>
    <path id="Фигура_19" data-name="Фигура 19" class="cls-1" d="M532,1394l-37-80"/>
    <path id="Прямоугольник_2" data-name="Прямоугольник 2" class="cls-5" d="M342.553,1424.07l53.675-21.89a10,10,0,0,1,13.035,5.49l31,76.04a10.007,10.007,0,0,1-5.484,13.04l-53.674,21.88a10,10,0,0,1-13.036-5.48l-31-76.05A9.994,9.994,0,0,1,342.553,1424.07Z"/>
  </g>
</svg>
